<mxfile modified="2021-01-15T07:09:19.648Z" host="app.diagrams.net" agent="5.0 (Macintosh)" etag="eJWaD4F6BND0t_hmiNAt" version="14.1.9" type="github" pages="5">
  <diagram id="Ht1M8jgEwFfnCIfOTk4-" name="Logical Arch Overview">
    <mxGraphModel dx="1694" dy="781" grid="1" gridSize="10" guides="1" tooltips="1" connect="1" arrows="1" fold="1" page="1" pageScale="1" pageWidth="827" pageHeight="1169" math="0" shadow="0">
      <root>
        <mxCell id="0" />
        <mxCell id="1" parent="0" />
        <mxCell id="eBqXmmrQ4SiyawXsPfZD-17" value="Enterprise Network" style="points=[[0,0],[0.25,0],[0.5,0],[0.75,0],[1,0],[1,0.25],[1,0.5],[1,0.75],[1,1],[0.75,1],[0.5,1],[0.25,1],[0,1],[0,0.75],[0,0.5],[0,0.25]];outlineConnect=0;gradientColor=none;html=1;whiteSpace=wrap;fontSize=12;fontStyle=0;shape=mxgraph.aws4.group;grIcon=mxgraph.aws4.group_corporate_data_center;strokeColor=#5A6C86;fillColor=none;verticalAlign=top;align=left;spacingLeft=30;fontColor=#5A6C86;dashed=0;" parent="1" vertex="1">
          <mxGeometry x="1030" y="60" width="230" height="900" as="geometry" />
        </mxCell>
        <mxCell id="9XKgcxNSNh-xXVd38YoH-12" value="" style="points=[[0,0],[0.25,0],[0.5,0],[0.75,0],[1,0],[1,0.25],[1,0.5],[1,0.75],[1,1],[0.75,1],[0.5,1],[0.25,1],[0,1],[0,0.75],[0,0.5],[0,0.25]];outlineConnect=0;gradientColor=none;html=1;whiteSpace=wrap;fontSize=12;fontStyle=0;shape=mxgraph.aws4.group;strokeColor=#232F3E;fillColor=none;verticalAlign=top;align=left;spacingLeft=30;fontColor=#232F3E;dashed=0;" parent="1" vertex="1">
          <mxGeometry y="60" width="1260" height="900" as="geometry" />
        </mxCell>
        <mxCell id="9XKgcxNSNh-xXVd38YoH-19" value="Provider Cloud" style="points=[[0,0],[0.25,0],[0.5,0],[0.75,0],[1,0],[1,0.25],[1,0.5],[1,0.75],[1,1],[0.75,1],[0.5,1],[0.25,1],[0,1],[0,0.75],[0,0.5],[0,0.25]];outlineConnect=0;gradientColor=none;html=1;whiteSpace=wrap;fontSize=12;fontStyle=0;shape=mxgraph.aws4.group;grIcon=mxgraph.aws4.group_aws_cloud;strokeColor=#232F3E;fillColor=none;verticalAlign=top;align=left;spacingLeft=30;fontColor=#232F3E;dashed=0;" parent="1" vertex="1">
          <mxGeometry x="240" y="59.5" width="790" height="900.5" as="geometry" />
        </mxCell>
        <mxCell id="9XKgcxNSNh-xXVd38YoH-22" value="Container Environment (Multiple Nodes) " style="points=[[0,0],[0.25,0],[0.5,0],[0.75,0],[1,0],[1,0.25],[1,0.5],[1,0.75],[1,1],[0.75,1],[0.5,1],[0.25,1],[0,1],[0,0.75],[0,0.5],[0,0.25]];outlineConnect=0;gradientColor=none;html=1;whiteSpace=wrap;fontSize=12;fontStyle=0;shape=mxgraph.aws4.group;grIcon=mxgraph.aws4.group_on_premise;strokeColor=#5A6C86;fillColor=none;verticalAlign=top;align=left;spacingLeft=30;fontColor=#5A6C86;dashed=0;" parent="1" vertex="1">
          <mxGeometry x="300" y="93" width="660" height="437" as="geometry" />
        </mxCell>
        <mxCell id="9XKgcxNSNh-xXVd38YoH-5" value="Public network" style="points=[[0,0],[0.25,0],[0.5,0],[0.75,0],[1,0],[1,0.25],[1,0.5],[1,0.75],[1,1],[0.75,1],[0.5,1],[0.25,1],[0,1],[0,0.75],[0,0.5],[0,0.25]];outlineConnect=0;gradientColor=none;html=1;whiteSpace=wrap;fontSize=12;fontStyle=0;shape=mxgraph.aws4.group;grIcon=mxgraph.aws4.group_region;strokeColor=#147EBA;fillColor=none;verticalAlign=top;align=left;spacingLeft=30;fontColor=#147EBA;dashed=1;" parent="1" vertex="1">
          <mxGeometry y="59.5" width="240" height="900.5" as="geometry" />
        </mxCell>
        <mxCell id="9XKgcxNSNh-xXVd38YoH-2" value="users" style="outlineConnect=0;gradientColor=none;fontColor=#545B64;strokeColor=none;fillColor=#879196;dashed=0;verticalLabelPosition=bottom;verticalAlign=top;align=center;html=1;fontSize=12;fontStyle=0;aspect=fixed;shape=mxgraph.aws4.illustration_users;pointerEvents=1" parent="1" vertex="1">
          <mxGeometry x="20" y="160" width="100" height="100" as="geometry" />
        </mxCell>
        <mxCell id="9XKgcxNSNh-xXVd38YoH-3" value="devices" style="outlineConnect=0;gradientColor=none;fontColor=#545B64;strokeColor=none;fillColor=#879196;dashed=0;verticalLabelPosition=bottom;verticalAlign=top;align=center;html=1;fontSize=12;fontStyle=0;aspect=fixed;shape=mxgraph.aws4.illustration_devices;pointerEvents=1" parent="1" vertex="1">
          <mxGeometry x="20" y="320" width="100" height="73" as="geometry" />
        </mxCell>
        <mxCell id="9XKgcxNSNh-xXVd38YoH-25" value="Permission Service" style="outlineConnect=0;fontColor=#232F3E;gradientColor=#F34482;gradientDirection=north;fillColor=#BC1356;strokeColor=#ffffff;dashed=0;verticalLabelPosition=bottom;verticalAlign=top;align=center;html=1;fontSize=12;fontStyle=0;aspect=fixed;shape=mxgraph.aws4.resourceIcon;resIcon=mxgraph.aws4.appsync;" parent="1" vertex="1">
          <mxGeometry x="350" y="150" width="78" height="78" as="geometry" />
        </mxCell>
        <mxCell id="9XKgcxNSNh-xXVd38YoH-26" value="Passenger Service" style="outlineConnect=0;fontColor=#232F3E;gradientColor=#F34482;gradientDirection=north;fillColor=#BC1356;strokeColor=#ffffff;dashed=0;verticalLabelPosition=bottom;verticalAlign=top;align=center;html=1;fontSize=12;fontStyle=0;aspect=fixed;shape=mxgraph.aws4.resourceIcon;resIcon=mxgraph.aws4.appsync;" parent="1" vertex="1">
          <mxGeometry x="428" y="260" width="78" height="78" as="geometry" />
        </mxCell>
        <mxCell id="9XKgcxNSNh-xXVd38YoH-32" style="edgeStyle=orthogonalEdgeStyle;rounded=0;orthogonalLoop=1;jettySize=auto;html=1;" parent="1" source="9XKgcxNSNh-xXVd38YoH-28" target="9XKgcxNSNh-xXVd38YoH-29" edge="1">
          <mxGeometry relative="1" as="geometry" />
        </mxCell>
        <mxCell id="9XKgcxNSNh-xXVd38YoH-28" value="Driver Service" style="outlineConnect=0;fontColor=#232F3E;gradientColor=#F34482;gradientDirection=north;fillColor=#BC1356;strokeColor=#ffffff;dashed=0;verticalLabelPosition=bottom;verticalAlign=top;align=center;html=1;fontSize=12;fontStyle=0;aspect=fixed;shape=mxgraph.aws4.resourceIcon;resIcon=mxgraph.aws4.appsync;" parent="1" vertex="1">
          <mxGeometry x="585" y="260" width="78" height="78" as="geometry" />
        </mxCell>
        <mxCell id="9XKgcxNSNh-xXVd38YoH-29" value="Device Service" style="outlineConnect=0;fontColor=#232F3E;gradientColor=#F34482;gradientDirection=north;fillColor=#BC1356;strokeColor=#ffffff;dashed=0;verticalLabelPosition=bottom;verticalAlign=top;align=center;html=1;fontSize=12;fontStyle=0;aspect=fixed;shape=mxgraph.aws4.resourceIcon;resIcon=mxgraph.aws4.appsync;" parent="1" vertex="1">
          <mxGeometry x="710" y="260" width="78" height="78" as="geometry" />
        </mxCell>
        <mxCell id="XUHNmj0Dy2AW-mBv5T06-1" style="edgeStyle=orthogonalEdgeStyle;rounded=0;orthogonalLoop=1;jettySize=auto;html=1;" edge="1" parent="1" source="9XKgcxNSNh-xXVd38YoH-22" target="eBqXmmrQ4SiyawXsPfZD-16">
          <mxGeometry relative="1" as="geometry">
            <mxPoint x="970" y="297" as="sourcePoint" />
            <Array as="points">
              <mxPoint x="970" y="297" />
              <mxPoint x="970" y="297" />
            </Array>
          </mxGeometry>
        </mxCell>
        <mxCell id="9XKgcxNSNh-xXVd38YoH-33" value="Finance Service" style="outlineConnect=0;fontColor=#232F3E;gradientColor=#F34482;gradientDirection=north;fillColor=#BC1356;strokeColor=#ffffff;dashed=0;verticalLabelPosition=bottom;verticalAlign=top;align=center;html=1;fontSize=12;fontStyle=0;aspect=fixed;shape=mxgraph.aws4.resourceIcon;resIcon=mxgraph.aws4.appsync;" parent="1" vertex="1">
          <mxGeometry x="860" y="257.5" width="78" height="78" as="geometry" />
        </mxCell>
        <mxCell id="-QjtrjUzRDEMRZ5MF8oH-47" value="Logical Architecture Overview" style="text;html=1;resizable=0;points=[];autosize=1;align=left;verticalAlign=top;spacingTop=-4;fontSize=30;fontStyle=1;labelBackgroundColor=none;" parent="1" vertex="1">
          <mxGeometry x="20" y="10" width="450" height="40" as="geometry" />
        </mxCell>
        <object label="API&lt;br&gt;Gateway" id="w8zy75_ecwpdjTFvmNjA-1">
          <mxCell style="outlineConnect=0;fontColor=#232F3E;gradientColor=#945DF2;gradientDirection=north;fillColor=#5A30B5;strokeColor=#ffffff;dashed=0;verticalLabelPosition=bottom;verticalAlign=top;align=center;html=1;fontSize=12;fontStyle=0;aspect=fixed;shape=mxgraph.aws4.resourceIcon;resIcon=mxgraph.aws4.api_gateway;labelBackgroundColor=#ffffff;" parent="1" vertex="1">
            <mxGeometry x="200" y="242" width="78" height="78" as="geometry" />
          </mxCell>
        </object>
        <mxCell id="eBqXmmrQ4SiyawXsPfZD-1" value="Notification Service" style="outlineConnect=0;fontColor=#232F3E;gradientColor=#F34482;gradientDirection=north;fillColor=#BC1356;strokeColor=#ffffff;dashed=0;verticalLabelPosition=bottom;verticalAlign=top;align=center;html=1;fontSize=12;fontStyle=0;aspect=fixed;shape=mxgraph.aws4.resourceIcon;resIcon=mxgraph.aws4.sns;" parent="1" vertex="1">
          <mxGeometry x="428" y="393" width="78" height="78" as="geometry" />
        </mxCell>
        <mxCell id="eBqXmmrQ4SiyawXsPfZD-2" value="Trip Service" style="outlineConnect=0;fontColor=#232F3E;gradientColor=#F34482;gradientDirection=north;fillColor=#BC1356;strokeColor=#ffffff;dashed=0;verticalLabelPosition=bottom;verticalAlign=top;align=center;html=1;fontSize=12;fontStyle=0;aspect=fixed;shape=mxgraph.aws4.resourceIcon;resIcon=mxgraph.aws4.step_functions;" parent="1" vertex="1">
          <mxGeometry x="770" y="410" width="78" height="78" as="geometry" />
        </mxCell>
        <mxCell id="eBqXmmrQ4SiyawXsPfZD-3" value="" style="edgeStyle=orthogonalEdgeStyle;html=1;endArrow=block;elbow=vertical;startArrow=none;endFill=1;strokeColor=#545B64;rounded=0;" parent="1" source="9XKgcxNSNh-xXVd38YoH-25" target="9XKgcxNSNh-xXVd38YoH-26" edge="1">
          <mxGeometry width="100" relative="1" as="geometry">
            <mxPoint x="550" y="390" as="sourcePoint" />
            <mxPoint x="650" y="390" as="targetPoint" />
            <Array as="points">
              <mxPoint x="389" y="299" />
            </Array>
          </mxGeometry>
        </mxCell>
        <mxCell id="eBqXmmrQ4SiyawXsPfZD-7" value="" style="edgeStyle=orthogonalEdgeStyle;html=1;endArrow=block;elbow=vertical;startArrow=none;endFill=1;strokeColor=#545B64;rounded=0;" parent="1" source="9XKgcxNSNh-xXVd38YoH-25" target="9XKgcxNSNh-xXVd38YoH-28" edge="1">
          <mxGeometry width="100" relative="1" as="geometry">
            <mxPoint x="550" y="390" as="sourcePoint" />
            <mxPoint x="650" y="390" as="targetPoint" />
          </mxGeometry>
        </mxCell>
        <mxCell id="eBqXmmrQ4SiyawXsPfZD-8" value="" style="edgeStyle=orthogonalEdgeStyle;html=1;endArrow=block;elbow=vertical;startArrow=none;endFill=1;strokeColor=#545B64;rounded=0;" parent="1" source="w8zy75_ecwpdjTFvmNjA-1" target="9XKgcxNSNh-xXVd38YoH-25" edge="1">
          <mxGeometry width="100" relative="1" as="geometry">
            <mxPoint x="550" y="390" as="sourcePoint" />
            <mxPoint x="320" y="281" as="targetPoint" />
            <Array as="points">
              <mxPoint x="290" y="281" />
              <mxPoint x="290" y="189" />
            </Array>
          </mxGeometry>
        </mxCell>
        <mxCell id="eBqXmmrQ4SiyawXsPfZD-9" value="" style="edgeStyle=orthogonalEdgeStyle;html=1;endArrow=block;elbow=vertical;startArrow=none;endFill=1;strokeColor=#545B64;rounded=0;" parent="1" source="eBqXmmrQ4SiyawXsPfZD-1" target="9XKgcxNSNh-xXVd38YoH-26" edge="1">
          <mxGeometry width="100" relative="1" as="geometry">
            <mxPoint x="550" y="390" as="sourcePoint" />
            <mxPoint x="650" y="390" as="targetPoint" />
          </mxGeometry>
        </mxCell>
        <mxCell id="eBqXmmrQ4SiyawXsPfZD-10" value="" style="edgeStyle=orthogonalEdgeStyle;html=1;endArrow=block;elbow=vertical;startArrow=none;endFill=1;strokeColor=#545B64;rounded=0;" parent="1" source="eBqXmmrQ4SiyawXsPfZD-1" target="9XKgcxNSNh-xXVd38YoH-28" edge="1">
          <mxGeometry width="100" relative="1" as="geometry">
            <mxPoint x="550" y="390" as="sourcePoint" />
            <mxPoint x="650" y="390" as="targetPoint" />
            <Array as="points">
              <mxPoint x="530" y="432" />
              <mxPoint x="530" y="310" />
            </Array>
          </mxGeometry>
        </mxCell>
        <mxCell id="eBqXmmrQ4SiyawXsPfZD-11" value="" style="edgeStyle=orthogonalEdgeStyle;html=1;endArrow=block;elbow=vertical;startArrow=none;endFill=1;strokeColor=#545B64;rounded=0;" parent="1" source="9XKgcxNSNh-xXVd38YoH-26" target="eBqXmmrQ4SiyawXsPfZD-2" edge="1">
          <mxGeometry width="100" relative="1" as="geometry">
            <mxPoint x="550" y="390" as="sourcePoint" />
            <mxPoint x="650" y="390" as="targetPoint" />
            <Array as="points">
              <mxPoint x="550" y="299" />
              <mxPoint x="550" y="470" />
            </Array>
          </mxGeometry>
        </mxCell>
        <mxCell id="eBqXmmrQ4SiyawXsPfZD-12" value="" style="edgeStyle=orthogonalEdgeStyle;html=1;endArrow=block;elbow=vertical;startArrow=none;endFill=1;strokeColor=#545B64;rounded=0;" parent="1" source="9XKgcxNSNh-xXVd38YoH-28" target="eBqXmmrQ4SiyawXsPfZD-2" edge="1">
          <mxGeometry width="100" relative="1" as="geometry">
            <mxPoint x="550" y="390" as="sourcePoint" />
            <mxPoint x="650" y="390" as="targetPoint" />
            <Array as="points">
              <mxPoint x="624" y="430" />
            </Array>
          </mxGeometry>
        </mxCell>
        <mxCell id="eBqXmmrQ4SiyawXsPfZD-13" value="" style="edgeStyle=orthogonalEdgeStyle;html=1;endArrow=block;elbow=vertical;startArrow=none;endFill=1;strokeColor=#545B64;rounded=0;" parent="1" source="eBqXmmrQ4SiyawXsPfZD-2" target="9XKgcxNSNh-xXVd38YoH-33" edge="1">
          <mxGeometry width="100" relative="1" as="geometry">
            <mxPoint x="550" y="390" as="sourcePoint" />
            <mxPoint x="650" y="390" as="targetPoint" />
          </mxGeometry>
        </mxCell>
        <mxCell id="eBqXmmrQ4SiyawXsPfZD-16" value="&lt;div&gt;Transformation&amp;amp; &lt;br&gt;&lt;/div&gt;&lt;div&gt;Connectivity&lt;br&gt;&lt;/div&gt;" style="outlineConnect=0;fontColor=#232F3E;gradientColor=#4D72F3;gradientDirection=north;fillColor=#3334B9;strokeColor=#ffffff;dashed=0;verticalLabelPosition=bottom;verticalAlign=top;align=center;html=1;fontSize=12;fontStyle=0;aspect=fixed;shape=mxgraph.aws4.resourceIcon;resIcon=mxgraph.aws4.connect;" parent="1" vertex="1">
          <mxGeometry x="990" y="257.5" width="78" height="78" as="geometry" />
        </mxCell>
        <mxCell id="eBqXmmrQ4SiyawXsPfZD-20" value="Intergration" style="fillColor=none;strokeColor=#2875E2;verticalAlign=top;fontStyle=0;fontColor=#2875E2;" parent="1" vertex="1">
          <mxGeometry x="1110" y="160" width="140" height="419" as="geometry" />
        </mxCell>
        <mxCell id="eBqXmmrQ4SiyawXsPfZD-21" value="&lt;div&gt;&lt;br&gt;&lt;/div&gt;&lt;div&gt;&lt;br&gt;&lt;/div&gt;&lt;div&gt;&lt;br&gt;&lt;/div&gt;&lt;div&gt;&lt;br&gt;&lt;/div&gt;&lt;div&gt;&lt;br&gt;&lt;/div&gt;&lt;div&gt;&lt;br&gt;&lt;/div&gt;&lt;div&gt;API Management&lt;br&gt;&lt;/div&gt;" style="html=1;dashed=0;whitespace=wrap;fillColor=#2875E2;strokeColor=#ffffff;points=[[0.005,0.63,0],[0.1,0.2,0],[0.9,0.2,0],[0.5,0,0],[0.995,0.63,0],[0.72,0.99,0],[0.5,1,0],[0.28,0.99,0]];shape=mxgraph.kubernetes.icon;prIcon=api" parent="1" vertex="1">
          <mxGeometry x="1155" y="200" width="50" height="48" as="geometry" />
        </mxCell>
        <mxCell id="eBqXmmrQ4SiyawXsPfZD-22" value="&lt;div&gt;&lt;br&gt;&lt;/div&gt;&lt;div&gt;&lt;br&gt;&lt;/div&gt;&lt;div&gt;&lt;br&gt;&lt;/div&gt;&lt;div&gt;&lt;br&gt;&lt;/div&gt;&lt;div&gt;Enterprise User Directory&lt;br&gt;&lt;/div&gt;" style="html=1;strokeColor=none;fillColor=#0079D6;labelPosition=center;verticalLabelPosition=middle;verticalAlign=top;align=center;fontSize=12;outlineConnect=0;spacingTop=-6;fontColor=#000000;shape=mxgraph.sitemap.user;" parent="1" vertex="1">
          <mxGeometry x="1147.5" y="293.5" width="65" height="42" as="geometry" />
        </mxCell>
        <mxCell id="eBqXmmrQ4SiyawXsPfZD-23" value="Enterprise Data" style="aspect=fixed;html=1;points=[];align=center;image;fontSize=12;image=img/lib/mscae/Data_Catalog.svg;" parent="1" vertex="1">
          <mxGeometry x="1156.5" y="380" width="47" height="50" as="geometry" />
        </mxCell>
        <mxCell id="eBqXmmrQ4SiyawXsPfZD-24" value="ETL" style="outlineConnect=0;fontColor=#232F3E;gradientColor=#945DF2;gradientDirection=north;fillColor=#2875E2;strokeColor=#ffffff;dashed=0;verticalLabelPosition=bottom;verticalAlign=top;align=center;html=1;fontSize=12;fontStyle=0;aspect=fixed;shape=mxgraph.aws4.resourceIcon;resIcon=mxgraph.aws4.data_exchange;" parent="1" vertex="1">
          <mxGeometry x="1145.5" y="471" width="69" height="69" as="geometry" />
        </mxCell>
        <mxCell id="eBqXmmrQ4SiyawXsPfZD-27" value="Micro-services Mesh" style="points=[[0,0],[0.25,0],[0.5,0],[0.75,0],[1,0],[1,0.25],[1,0.5],[1,0.75],[1,1],[0.75,1],[0.5,1],[0.25,1],[0,1],[0,0.75],[0,0.5],[0,0.25]];outlineConnect=0;gradientColor=none;html=1;whiteSpace=wrap;fontSize=12;fontStyle=0;shape=mxgraph.aws4.group;grIcon=mxgraph.aws4.group_elastic_beanstalk;strokeColor=#D86613;fillColor=none;verticalAlign=top;align=left;spacingLeft=30;fontColor=#D86613;dashed=0;" parent="1" vertex="1">
          <mxGeometry x="300" y="775" width="660" height="150" as="geometry" />
        </mxCell>
        <mxCell id="eBqXmmrQ4SiyawXsPfZD-28" value="&lt;div&gt;Circuit&lt;/div&gt;&lt;div&gt;Breaker&lt;/div&gt;" style="verticalLabelPosition=bottom;dashed=0;shadow=0;html=1;align=center;verticalAlign=top;shape=mxgraph.cabinets.cb_3p;fillColor=#D86613;strokeColor=#ffffff;" parent="1" vertex="1">
          <mxGeometry x="355" y="830" width="40" height="50" as="geometry" />
        </mxCell>
        <mxCell id="eBqXmmrQ4SiyawXsPfZD-30" value="&lt;div&gt;Services&lt;/div&gt;&lt;div&gt;Discovery&lt;/div&gt;" style="outlineConnect=0;fontColor=#232F3E;gradientColor=#4AB29A;gradientDirection=north;fillColor=#D86613;strokeColor=#ffffff;dashed=0;verticalLabelPosition=bottom;verticalAlign=top;align=center;html=1;fontSize=12;fontStyle=0;aspect=fixed;shape=mxgraph.aws4.resourceIcon;resIcon=mxgraph.aws4.application_discovery_service;" parent="1" vertex="1">
          <mxGeometry x="465" y="825" width="60" height="60" as="geometry" />
        </mxCell>
        <mxCell id="eBqXmmrQ4SiyawXsPfZD-32" value="&lt;div&gt;Routing&lt;/div&gt;&lt;div&gt;Service&lt;/div&gt;" style="points=[[0.015,0.015,0],[0.985,0.015,0],[0.985,0.985,0],[0.015,0.985,0],[0.25,0,0],[0.5,0,0],[0.75,0,0],[1,0.25,0],[1,0.5,0],[1,0.75,0],[0.75,1,0],[0.5,1,0],[0.25,1,0],[0,0.75,0],[0,0.5,0],[0,0.25,0]];verticalLabelPosition=bottom;html=1;verticalAlign=top;aspect=fixed;align=center;pointerEvents=1;shape=mxgraph.cisco19.rect;prIcon=content_router;fillColor=#D86613;strokeColor=#005073;" parent="1" vertex="1">
          <mxGeometry x="585" y="825" width="70.39" height="55" as="geometry" />
        </mxCell>
        <mxCell id="eBqXmmrQ4SiyawXsPfZD-34" value="&lt;br&gt;&lt;div&gt;&lt;br&gt;&lt;/div&gt;&lt;div&gt;&lt;br&gt;&lt;/div&gt;&lt;div&gt;&lt;br&gt;&lt;/div&gt;&lt;div&gt;Microservices &lt;br&gt;&lt;/div&gt;&lt;div&gt;Security&lt;/div&gt;" style="html=1;strokeColor=none;fillColor=#D86613;labelPosition=center;verticalLabelPosition=middle;verticalAlign=top;align=center;fontSize=12;outlineConnect=0;spacingTop=-6;fontColor=#000000;shape=mxgraph.sitemap.security;" parent="1" vertex="1">
          <mxGeometry x="715" y="825" width="70" height="50" as="geometry" />
        </mxCell>
        <mxCell id="eBqXmmrQ4SiyawXsPfZD-35" value="&lt;div&gt;Configuration &lt;br&gt;&lt;/div&gt;&lt;div&gt;Management&lt;/div&gt;" style="aspect=fixed;perimeter=ellipsePerimeter;html=1;align=center;shadow=0;dashed=0;fontColor=#000000;labelBackgroundColor=#ffffff;fontSize=12;spacingTop=3;image;image=img/lib/ibm/devops/configuration_management.svg;" parent="1" vertex="1">
          <mxGeometry x="845" y="815" width="60" height="60" as="geometry" />
        </mxCell>
        <mxCell id="eBqXmmrQ4SiyawXsPfZD-40" value="Cloud Services" style="points=[[0,0],[0.25,0],[0.5,0],[0.75,0],[1,0],[1,0.25],[1,0.5],[1,0.75],[1,1],[0.75,1],[0.5,1],[0.25,1],[0,1],[0,0.75],[0,0.5],[0,0.25]];outlineConnect=0;gradientColor=none;html=1;whiteSpace=wrap;fontSize=12;fontStyle=0;shape=mxgraph.aws4.group;grIcon=mxgraph.aws4.group_aws_cloud;strokeColor=#277116;fillColor=none;verticalAlign=top;align=left;spacingLeft=30;fontColor=#277116;dashed=0;" parent="1" vertex="1">
          <mxGeometry x="300" y="560" width="660" height="180" as="geometry" />
        </mxCell>
        <mxCell id="eBqXmmrQ4SiyawXsPfZD-42" value="DB" style="outlineConnect=0;fontColor=#232F3E;gradientColor=none;fillColor=#277116;strokeColor=none;dashed=0;verticalLabelPosition=bottom;verticalAlign=top;align=center;html=1;fontSize=12;fontStyle=0;aspect=fixed;pointerEvents=1;shape=mxgraph.aws4.iot_analytics_data_store;" parent="1" vertex="1">
          <mxGeometry x="362" y="610" width="54" height="78" as="geometry" />
        </mxCell>
        <mxCell id="eBqXmmrQ4SiyawXsPfZD-43" value="MQ" style="outlineConnect=0;fontColor=#277116;gradientColor=#277116;gradientDirection=north;fillColor=#BC1356;strokeColor=#ffffff;dashed=0;verticalLabelPosition=bottom;verticalAlign=top;align=center;html=1;fontSize=12;fontStyle=0;aspect=fixed;shape=mxgraph.aws4.resourceIcon;resIcon=mxgraph.aws4.mq;" parent="1" vertex="1">
          <mxGeometry x="470" y="611" width="78" height="78" as="geometry" />
        </mxCell>
        <mxCell id="eBqXmmrQ4SiyawXsPfZD-44" value="MAP API" style="outlineConnect=0;fontColor=#277116;gradientColor=#277116;gradientDirection=north;fillColor=#5A30B5;strokeColor=#ffffff;dashed=0;verticalLabelPosition=bottom;verticalAlign=top;align=center;html=1;fontSize=12;fontStyle=0;aspect=fixed;shape=mxgraph.aws4.resourceIcon;resIcon=mxgraph.aws4.cloud_map;" parent="1" vertex="1">
          <mxGeometry x="610" y="611" width="78" height="78" as="geometry" />
        </mxCell>
        <mxCell id="eBqXmmrQ4SiyawXsPfZD-45" value="Single Sign-On" style="outlineConnect=0;fontColor=#232F3E;gradientColor=none;strokeColor=#ffffff;fillColor=#232F3E;dashed=0;verticalLabelPosition=middle;verticalAlign=bottom;align=center;html=1;whiteSpace=wrap;fontSize=10;fontStyle=1;spacing=3;shape=mxgraph.aws4.productIcon;prIcon=mxgraph.aws4.single_sign_on;" parent="1" vertex="1">
          <mxGeometry x="740" y="610" width="80" height="110" as="geometry" />
        </mxCell>
        <mxCell id="qifHWt82FNLUO4kdKhs4-1" value="" style="edgeStyle=orthogonalEdgeStyle;html=1;endArrow=block;elbow=vertical;startArrow=none;endFill=1;strokeColor=#545B64;rounded=0;exitX=1.001;exitY=0.7;exitDx=0;exitDy=0;exitPerimeter=0;" parent="1" source="9XKgcxNSNh-xXVd38YoH-2" target="w8zy75_ecwpdjTFvmNjA-1" edge="1">
          <mxGeometry width="100" relative="1" as="geometry">
            <mxPoint x="340" y="410" as="sourcePoint" />
            <mxPoint x="440" y="410" as="targetPoint" />
          </mxGeometry>
        </mxCell>
        <mxCell id="qifHWt82FNLUO4kdKhs4-2" value="" style="edgeStyle=orthogonalEdgeStyle;html=1;endArrow=block;elbow=vertical;startArrow=none;endFill=1;strokeColor=#545B64;rounded=0;" parent="1" source="9XKgcxNSNh-xXVd38YoH-3" target="w8zy75_ecwpdjTFvmNjA-1" edge="1">
          <mxGeometry width="100" relative="1" as="geometry">
            <mxPoint x="340" y="410" as="sourcePoint" />
            <mxPoint x="440" y="410" as="targetPoint" />
            <Array as="points">
              <mxPoint x="180" y="356" />
              <mxPoint x="180" y="281" />
            </Array>
          </mxGeometry>
        </mxCell>
        <mxCell id="XUHNmj0Dy2AW-mBv5T06-3" value="" style="edgeStyle=orthogonalEdgeStyle;html=1;endArrow=block;elbow=vertical;startArrow=none;endFill=1;strokeColor=#545B64;rounded=0;" edge="1" parent="1" source="eBqXmmrQ4SiyawXsPfZD-16">
          <mxGeometry width="100" relative="1" as="geometry">
            <mxPoint x="438" y="199.0000000000001" as="sourcePoint" />
            <mxPoint x="1110" y="299" as="targetPoint" />
          </mxGeometry>
        </mxCell>
      </root>
    </mxGraphModel>
  </diagram>
  <diagram id="VtfdDCnuB1Arp0akUjs2" name="Data Model">
    <mxGraphModel dx="1694" dy="781" grid="1" gridSize="10" guides="1" tooltips="1" connect="1" arrows="1" fold="1" page="1" pageScale="1" pageWidth="850" pageHeight="1100" math="0" shadow="0">
      <root>
        <mxCell id="GXWJZuFiqb-djiV_RVK9-0" />
        <mxCell id="GXWJZuFiqb-djiV_RVK9-1" parent="GXWJZuFiqb-djiV_RVK9-0" />
        <mxCell id="GXWJZuFiqb-djiV_RVK9-2" value="" style="rounded=0;whiteSpace=wrap;html=1;fillColor=none;gradientColor=none;" vertex="1" parent="GXWJZuFiqb-djiV_RVK9-1">
          <mxGeometry x="740" y="810" width="420" height="430" as="geometry" />
        </mxCell>
        <mxCell id="GXWJZuFiqb-djiV_RVK9-3" value="Permission" style="shape=table;startSize=30;container=1;collapsible=1;childLayout=tableLayout;fixedRows=1;rowLines=0;fontStyle=1;align=center;resizeLast=1;fillColor=#dae8fc;strokeColor=#6c8ebf;" vertex="1" parent="GXWJZuFiqb-djiV_RVK9-1">
          <mxGeometry x="50" y="220" width="170" height="155" as="geometry" />
        </mxCell>
        <mxCell id="GXWJZuFiqb-djiV_RVK9-4" value="" style="shape=partialRectangle;collapsible=0;dropTarget=0;pointerEvents=0;fillColor=#dae8fc;top=0;left=0;bottom=1;right=0;points=[[0,0.5],[1,0.5]];portConstraint=eastwest;strokeColor=#6c8ebf;" vertex="1" parent="GXWJZuFiqb-djiV_RVK9-3">
          <mxGeometry y="30" width="170" height="30" as="geometry" />
        </mxCell>
        <mxCell id="GXWJZuFiqb-djiV_RVK9-5" value="PK" style="shape=partialRectangle;connectable=0;fillColor=#dae8fc;top=0;left=0;bottom=0;right=0;fontStyle=1;overflow=hidden;strokeColor=#6c8ebf;" vertex="1" parent="GXWJZuFiqb-djiV_RVK9-4">
          <mxGeometry width="30" height="30" as="geometry" />
        </mxCell>
        <mxCell id="GXWJZuFiqb-djiV_RVK9-6" value="Permission_id" style="shape=partialRectangle;connectable=0;fillColor=#dae8fc;top=0;left=0;bottom=0;right=0;align=left;spacingLeft=6;fontStyle=5;overflow=hidden;strokeColor=#6c8ebf;" vertex="1" parent="GXWJZuFiqb-djiV_RVK9-4">
          <mxGeometry x="30" width="140" height="30" as="geometry" />
        </mxCell>
        <mxCell id="GXWJZuFiqb-djiV_RVK9-7" value="" style="shape=partialRectangle;collapsible=0;dropTarget=0;pointerEvents=0;fillColor=#dae8fc;top=0;left=0;bottom=0;right=0;points=[[0,0.5],[1,0.5]];portConstraint=eastwest;strokeColor=#6c8ebf;" vertex="1" parent="GXWJZuFiqb-djiV_RVK9-3">
          <mxGeometry y="60" width="170" height="30" as="geometry" />
        </mxCell>
        <mxCell id="GXWJZuFiqb-djiV_RVK9-8" value="" style="shape=partialRectangle;connectable=0;fillColor=#dae8fc;top=0;left=0;bottom=0;right=0;editable=1;overflow=hidden;strokeColor=#6c8ebf;" vertex="1" parent="GXWJZuFiqb-djiV_RVK9-7">
          <mxGeometry width="30" height="30" as="geometry" />
        </mxCell>
        <mxCell id="GXWJZuFiqb-djiV_RVK9-9" value="Permission_name" style="shape=partialRectangle;connectable=0;fillColor=#dae8fc;top=0;left=0;bottom=0;right=0;align=left;spacingLeft=6;overflow=hidden;fontStyle=1;strokeColor=#6c8ebf;" vertex="1" parent="GXWJZuFiqb-djiV_RVK9-7">
          <mxGeometry x="30" width="140" height="30" as="geometry" />
        </mxCell>
        <mxCell id="GXWJZuFiqb-djiV_RVK9-10" value="" style="shape=partialRectangle;collapsible=0;dropTarget=0;pointerEvents=0;fillColor=#dae8fc;top=0;left=0;bottom=0;right=0;points=[[0,0.5],[1,0.5]];portConstraint=eastwest;strokeColor=#6c8ebf;" vertex="1" parent="GXWJZuFiqb-djiV_RVK9-3">
          <mxGeometry y="90" width="170" height="30" as="geometry" />
        </mxCell>
        <mxCell id="GXWJZuFiqb-djiV_RVK9-11" value="" style="shape=partialRectangle;connectable=0;fillColor=#dae8fc;top=0;left=0;bottom=0;right=0;editable=1;overflow=hidden;strokeColor=#6c8ebf;" vertex="1" parent="GXWJZuFiqb-djiV_RVK9-10">
          <mxGeometry width="30" height="30" as="geometry" />
        </mxCell>
        <mxCell id="GXWJZuFiqb-djiV_RVK9-12" value="Permission_desc" style="shape=partialRectangle;connectable=0;fillColor=#dae8fc;top=0;left=0;bottom=0;right=0;align=left;spacingLeft=6;overflow=hidden;strokeColor=#6c8ebf;" vertex="1" parent="GXWJZuFiqb-djiV_RVK9-10">
          <mxGeometry x="30" width="140" height="30" as="geometry" />
        </mxCell>
        <mxCell id="GXWJZuFiqb-djiV_RVK9-13" value="" style="shape=partialRectangle;collapsible=0;dropTarget=0;pointerEvents=0;fillColor=#dae8fc;top=0;left=0;bottom=0;right=0;points=[[0,0.5],[1,0.5]];portConstraint=eastwest;strokeColor=#6c8ebf;" vertex="1" parent="GXWJZuFiqb-djiV_RVK9-3">
          <mxGeometry y="120" width="170" height="30" as="geometry" />
        </mxCell>
        <mxCell id="GXWJZuFiqb-djiV_RVK9-14" value="" style="shape=partialRectangle;connectable=0;fillColor=#dae8fc;top=0;left=0;bottom=0;right=0;editable=1;overflow=hidden;strokeColor=#6c8ebf;" vertex="1" parent="GXWJZuFiqb-djiV_RVK9-13">
          <mxGeometry width="30" height="30" as="geometry" />
        </mxCell>
        <mxCell id="GXWJZuFiqb-djiV_RVK9-15" value="update_time" style="shape=partialRectangle;connectable=0;fillColor=#dae8fc;top=0;left=0;bottom=0;right=0;align=left;spacingLeft=6;overflow=hidden;strokeColor=#6c8ebf;" vertex="1" parent="GXWJZuFiqb-djiV_RVK9-13">
          <mxGeometry x="30" width="140" height="30" as="geometry" />
        </mxCell>
        <mxCell id="GXWJZuFiqb-djiV_RVK9-16" value="Role_Permission" style="shape=table;startSize=25;container=1;collapsible=1;childLayout=tableLayout;fixedRows=1;rowLines=0;fontStyle=1;align=center;resizeLast=1;fillColor=#dae8fc;strokeColor=#6c8ebf;" vertex="1" parent="GXWJZuFiqb-djiV_RVK9-1">
          <mxGeometry x="250" y="225" width="140" height="150" as="geometry" />
        </mxCell>
        <mxCell id="GXWJZuFiqb-djiV_RVK9-17" value="" style="shape=partialRectangle;collapsible=0;dropTarget=0;pointerEvents=0;fillColor=#dae8fc;top=0;left=0;bottom=1;right=0;points=[[0,0.5],[1,0.5]];portConstraint=eastwest;strokeColor=#6c8ebf;" vertex="1" parent="GXWJZuFiqb-djiV_RVK9-16">
          <mxGeometry y="25" width="140" height="30" as="geometry" />
        </mxCell>
        <mxCell id="GXWJZuFiqb-djiV_RVK9-18" value="PK" style="shape=partialRectangle;connectable=0;fillColor=#dae8fc;top=0;left=0;bottom=0;right=0;fontStyle=1;overflow=hidden;strokeColor=#6c8ebf;" vertex="1" parent="GXWJZuFiqb-djiV_RVK9-17">
          <mxGeometry width="30" height="30" as="geometry" />
        </mxCell>
        <mxCell id="GXWJZuFiqb-djiV_RVK9-19" value="Role_Permission_id" style="shape=partialRectangle;connectable=0;fillColor=#dae8fc;top=0;left=0;bottom=0;right=0;align=left;spacingLeft=6;fontStyle=5;overflow=hidden;strokeColor=#6c8ebf;" vertex="1" parent="GXWJZuFiqb-djiV_RVK9-17">
          <mxGeometry x="30" width="110" height="30" as="geometry" />
        </mxCell>
        <mxCell id="GXWJZuFiqb-djiV_RVK9-20" value="" style="shape=partialRectangle;collapsible=0;dropTarget=0;pointerEvents=0;fillColor=#dae8fc;top=0;left=0;bottom=0;right=0;points=[[0,0.5],[1,0.5]];portConstraint=eastwest;strokeColor=#6c8ebf;" vertex="1" parent="GXWJZuFiqb-djiV_RVK9-16">
          <mxGeometry y="55" width="140" height="30" as="geometry" />
        </mxCell>
        <mxCell id="GXWJZuFiqb-djiV_RVK9-21" value="" style="shape=partialRectangle;connectable=0;fillColor=#dae8fc;top=0;left=0;bottom=0;right=0;editable=1;overflow=hidden;strokeColor=#6c8ebf;" vertex="1" parent="GXWJZuFiqb-djiV_RVK9-20">
          <mxGeometry width="30" height="30" as="geometry" />
        </mxCell>
        <mxCell id="GXWJZuFiqb-djiV_RVK9-22" value="Permission_id" style="shape=partialRectangle;connectable=0;fillColor=#dae8fc;top=0;left=0;bottom=0;right=0;align=left;spacingLeft=6;overflow=hidden;strokeColor=#6c8ebf;" vertex="1" parent="GXWJZuFiqb-djiV_RVK9-20">
          <mxGeometry x="30" width="110" height="30" as="geometry" />
        </mxCell>
        <mxCell id="GXWJZuFiqb-djiV_RVK9-23" value="" style="shape=partialRectangle;collapsible=0;dropTarget=0;pointerEvents=0;fillColor=#dae8fc;top=0;left=0;bottom=0;right=0;points=[[0,0.5],[1,0.5]];portConstraint=eastwest;strokeColor=#6c8ebf;" vertex="1" parent="GXWJZuFiqb-djiV_RVK9-16">
          <mxGeometry y="85" width="140" height="30" as="geometry" />
        </mxCell>
        <mxCell id="GXWJZuFiqb-djiV_RVK9-24" value="" style="shape=partialRectangle;connectable=0;fillColor=#dae8fc;top=0;left=0;bottom=0;right=0;editable=1;overflow=hidden;strokeColor=#6c8ebf;" vertex="1" parent="GXWJZuFiqb-djiV_RVK9-23">
          <mxGeometry width="30" height="30" as="geometry" />
        </mxCell>
        <mxCell id="GXWJZuFiqb-djiV_RVK9-25" value="Role_id" style="shape=partialRectangle;connectable=0;fillColor=#dae8fc;top=0;left=0;bottom=0;right=0;align=left;spacingLeft=6;overflow=hidden;strokeColor=#6c8ebf;" vertex="1" parent="GXWJZuFiqb-djiV_RVK9-23">
          <mxGeometry x="30" width="110" height="30" as="geometry" />
        </mxCell>
        <mxCell id="GXWJZuFiqb-djiV_RVK9-26" value="" style="shape=partialRectangle;collapsible=0;dropTarget=0;pointerEvents=0;fillColor=#dae8fc;top=0;left=0;bottom=0;right=0;points=[[0,0.5],[1,0.5]];portConstraint=eastwest;strokeColor=#6c8ebf;" vertex="1" parent="GXWJZuFiqb-djiV_RVK9-16">
          <mxGeometry y="115" width="140" height="30" as="geometry" />
        </mxCell>
        <mxCell id="GXWJZuFiqb-djiV_RVK9-27" value="" style="shape=partialRectangle;connectable=0;fillColor=#dae8fc;top=0;left=0;bottom=0;right=0;editable=1;overflow=hidden;strokeColor=#6c8ebf;" vertex="1" parent="GXWJZuFiqb-djiV_RVK9-26">
          <mxGeometry width="30" height="30" as="geometry" />
        </mxCell>
        <mxCell id="GXWJZuFiqb-djiV_RVK9-28" value="desc" style="shape=partialRectangle;connectable=0;fillColor=#dae8fc;top=0;left=0;bottom=0;right=0;align=left;spacingLeft=6;overflow=hidden;strokeColor=#6c8ebf;" vertex="1" parent="GXWJZuFiqb-djiV_RVK9-26">
          <mxGeometry x="30" width="110" height="30" as="geometry" />
        </mxCell>
        <mxCell id="GXWJZuFiqb-djiV_RVK9-29" value="Role" style="shape=table;startSize=30;container=1;collapsible=1;childLayout=tableLayout;fixedRows=1;rowLines=0;fontStyle=1;align=center;resizeLast=1;fillColor=#dae8fc;strokeColor=#6c8ebf;" vertex="1" parent="GXWJZuFiqb-djiV_RVK9-1">
          <mxGeometry x="60" y="400" width="140" height="150" as="geometry" />
        </mxCell>
        <mxCell id="GXWJZuFiqb-djiV_RVK9-30" value="" style="shape=partialRectangle;collapsible=0;dropTarget=0;pointerEvents=0;fillColor=#dae8fc;top=0;left=0;bottom=1;right=0;points=[[0,0.5],[1,0.5]];portConstraint=eastwest;strokeColor=#6c8ebf;" vertex="1" parent="GXWJZuFiqb-djiV_RVK9-29">
          <mxGeometry y="30" width="140" height="30" as="geometry" />
        </mxCell>
        <mxCell id="GXWJZuFiqb-djiV_RVK9-31" value="PK" style="shape=partialRectangle;connectable=0;fillColor=#dae8fc;top=0;left=0;bottom=0;right=0;fontStyle=1;overflow=hidden;strokeColor=#6c8ebf;" vertex="1" parent="GXWJZuFiqb-djiV_RVK9-30">
          <mxGeometry width="30" height="30" as="geometry" />
        </mxCell>
        <mxCell id="GXWJZuFiqb-djiV_RVK9-32" value="Role_id" style="shape=partialRectangle;connectable=0;fillColor=#dae8fc;top=0;left=0;bottom=0;right=0;align=left;spacingLeft=6;fontStyle=5;overflow=hidden;strokeColor=#6c8ebf;" vertex="1" parent="GXWJZuFiqb-djiV_RVK9-30">
          <mxGeometry x="30" width="110" height="30" as="geometry" />
        </mxCell>
        <mxCell id="GXWJZuFiqb-djiV_RVK9-33" value="" style="shape=partialRectangle;collapsible=0;dropTarget=0;pointerEvents=0;fillColor=#dae8fc;top=0;left=0;bottom=0;right=0;points=[[0,0.5],[1,0.5]];portConstraint=eastwest;strokeColor=#6c8ebf;" vertex="1" parent="GXWJZuFiqb-djiV_RVK9-29">
          <mxGeometry y="60" width="140" height="30" as="geometry" />
        </mxCell>
        <mxCell id="GXWJZuFiqb-djiV_RVK9-34" value="" style="shape=partialRectangle;connectable=0;fillColor=#dae8fc;top=0;left=0;bottom=0;right=0;editable=1;overflow=hidden;strokeColor=#6c8ebf;" vertex="1" parent="GXWJZuFiqb-djiV_RVK9-33">
          <mxGeometry width="30" height="30" as="geometry" />
        </mxCell>
        <mxCell id="GXWJZuFiqb-djiV_RVK9-35" value="Role_name" style="shape=partialRectangle;connectable=0;fillColor=#dae8fc;top=0;left=0;bottom=0;right=0;align=left;spacingLeft=6;overflow=hidden;strokeColor=#6c8ebf;" vertex="1" parent="GXWJZuFiqb-djiV_RVK9-33">
          <mxGeometry x="30" width="110" height="30" as="geometry" />
        </mxCell>
        <mxCell id="GXWJZuFiqb-djiV_RVK9-36" value="" style="shape=partialRectangle;collapsible=0;dropTarget=0;pointerEvents=0;fillColor=#dae8fc;top=0;left=0;bottom=0;right=0;points=[[0,0.5],[1,0.5]];portConstraint=eastwest;strokeColor=#6c8ebf;" vertex="1" parent="GXWJZuFiqb-djiV_RVK9-29">
          <mxGeometry y="90" width="140" height="30" as="geometry" />
        </mxCell>
        <mxCell id="GXWJZuFiqb-djiV_RVK9-37" value="" style="shape=partialRectangle;connectable=0;fillColor=#dae8fc;top=0;left=0;bottom=0;right=0;editable=1;overflow=hidden;strokeColor=#6c8ebf;" vertex="1" parent="GXWJZuFiqb-djiV_RVK9-36">
          <mxGeometry width="30" height="30" as="geometry" />
        </mxCell>
        <mxCell id="GXWJZuFiqb-djiV_RVK9-38" value="Role_desc" style="shape=partialRectangle;connectable=0;fillColor=#dae8fc;top=0;left=0;bottom=0;right=0;align=left;spacingLeft=6;overflow=hidden;strokeColor=#6c8ebf;" vertex="1" parent="GXWJZuFiqb-djiV_RVK9-36">
          <mxGeometry x="30" width="110" height="30" as="geometry" />
        </mxCell>
        <mxCell id="GXWJZuFiqb-djiV_RVK9-39" value="" style="shape=partialRectangle;collapsible=0;dropTarget=0;pointerEvents=0;fillColor=#dae8fc;top=0;left=0;bottom=0;right=0;points=[[0,0.5],[1,0.5]];portConstraint=eastwest;strokeColor=#6c8ebf;" vertex="1" parent="GXWJZuFiqb-djiV_RVK9-29">
          <mxGeometry y="120" width="140" height="30" as="geometry" />
        </mxCell>
        <mxCell id="GXWJZuFiqb-djiV_RVK9-40" value="" style="shape=partialRectangle;connectable=0;fillColor=#dae8fc;top=0;left=0;bottom=0;right=0;editable=1;overflow=hidden;strokeColor=#6c8ebf;" vertex="1" parent="GXWJZuFiqb-djiV_RVK9-39">
          <mxGeometry width="30" height="30" as="geometry" />
        </mxCell>
        <mxCell id="GXWJZuFiqb-djiV_RVK9-41" value="update_time" style="shape=partialRectangle;connectable=0;fillColor=#dae8fc;top=0;left=0;bottom=0;right=0;align=left;spacingLeft=6;overflow=hidden;strokeColor=#6c8ebf;" vertex="1" parent="GXWJZuFiqb-djiV_RVK9-39">
          <mxGeometry x="30" width="110" height="30" as="geometry" />
        </mxCell>
        <mxCell id="GXWJZuFiqb-djiV_RVK9-42" style="edgeStyle=orthogonalEdgeStyle;rounded=0;orthogonalLoop=1;jettySize=auto;html=1;exitX=1;exitY=0.5;exitDx=0;exitDy=0;entryX=0;entryY=0.5;entryDx=0;entryDy=0;fillColor=#dae8fc;strokeColor=#6c8ebf;" edge="1" parent="GXWJZuFiqb-djiV_RVK9-1" source="GXWJZuFiqb-djiV_RVK9-4" target="GXWJZuFiqb-djiV_RVK9-20">
          <mxGeometry relative="1" as="geometry" />
        </mxCell>
        <mxCell id="GXWJZuFiqb-djiV_RVK9-43" style="edgeStyle=orthogonalEdgeStyle;rounded=0;orthogonalLoop=1;jettySize=auto;html=1;exitX=1;exitY=0.5;exitDx=0;exitDy=0;entryX=0;entryY=0.5;entryDx=0;entryDy=0;fillColor=#dae8fc;strokeColor=#6c8ebf;" edge="1" parent="GXWJZuFiqb-djiV_RVK9-1" source="GXWJZuFiqb-djiV_RVK9-30" target="GXWJZuFiqb-djiV_RVK9-23">
          <mxGeometry relative="1" as="geometry" />
        </mxCell>
        <mxCell id="GXWJZuFiqb-djiV_RVK9-44" value="Passenger" style="shape=table;startSize=30;container=1;collapsible=1;childLayout=tableLayout;fixedRows=1;rowLines=0;fontStyle=1;align=center;resizeLast=1;fillColor=#d5e8d4;strokeColor=#82b366;" vertex="1" parent="GXWJZuFiqb-djiV_RVK9-1">
          <mxGeometry x="465" y="219" width="110" height="150" as="geometry" />
        </mxCell>
        <mxCell id="GXWJZuFiqb-djiV_RVK9-45" value="" style="shape=partialRectangle;collapsible=0;dropTarget=0;pointerEvents=0;fillColor=#d5e8d4;top=0;left=0;bottom=1;right=0;points=[[0,0.5],[1,0.5]];portConstraint=eastwest;strokeColor=#82b366;" vertex="1" parent="GXWJZuFiqb-djiV_RVK9-44">
          <mxGeometry y="30" width="110" height="30" as="geometry" />
        </mxCell>
        <mxCell id="GXWJZuFiqb-djiV_RVK9-46" value="PK" style="shape=partialRectangle;connectable=0;fillColor=#d5e8d4;top=0;left=0;bottom=0;right=0;fontStyle=1;overflow=hidden;strokeColor=#82b366;" vertex="1" parent="GXWJZuFiqb-djiV_RVK9-45">
          <mxGeometry width="30" height="30" as="geometry" />
        </mxCell>
        <mxCell id="GXWJZuFiqb-djiV_RVK9-47" value="Psger_id" style="shape=partialRectangle;connectable=0;fillColor=#d5e8d4;top=0;left=0;bottom=0;right=0;align=left;spacingLeft=6;fontStyle=5;overflow=hidden;strokeColor=#82b366;" vertex="1" parent="GXWJZuFiqb-djiV_RVK9-45">
          <mxGeometry x="30" width="80" height="30" as="geometry" />
        </mxCell>
        <mxCell id="GXWJZuFiqb-djiV_RVK9-48" value="" style="shape=partialRectangle;collapsible=0;dropTarget=0;pointerEvents=0;fillColor=#d5e8d4;top=0;left=0;bottom=0;right=0;points=[[0,0.5],[1,0.5]];portConstraint=eastwest;strokeColor=#82b366;" vertex="1" parent="GXWJZuFiqb-djiV_RVK9-44">
          <mxGeometry y="60" width="110" height="30" as="geometry" />
        </mxCell>
        <mxCell id="GXWJZuFiqb-djiV_RVK9-49" value="" style="shape=partialRectangle;connectable=0;fillColor=#d5e8d4;top=0;left=0;bottom=0;right=0;editable=1;overflow=hidden;strokeColor=#82b366;" vertex="1" parent="GXWJZuFiqb-djiV_RVK9-48">
          <mxGeometry width="30" height="30" as="geometry" />
        </mxCell>
        <mxCell id="GXWJZuFiqb-djiV_RVK9-50" value="Age" style="shape=partialRectangle;connectable=0;fillColor=#d5e8d4;top=0;left=0;bottom=0;right=0;align=left;spacingLeft=6;overflow=hidden;strokeColor=#82b366;" vertex="1" parent="GXWJZuFiqb-djiV_RVK9-48">
          <mxGeometry x="30" width="80" height="30" as="geometry" />
        </mxCell>
        <mxCell id="GXWJZuFiqb-djiV_RVK9-51" value="" style="shape=partialRectangle;collapsible=0;dropTarget=0;pointerEvents=0;fillColor=#d5e8d4;top=0;left=0;bottom=0;right=0;points=[[0,0.5],[1,0.5]];portConstraint=eastwest;strokeColor=#82b366;" vertex="1" parent="GXWJZuFiqb-djiV_RVK9-44">
          <mxGeometry y="90" width="110" height="30" as="geometry" />
        </mxCell>
        <mxCell id="GXWJZuFiqb-djiV_RVK9-52" value="" style="shape=partialRectangle;connectable=0;fillColor=#d5e8d4;top=0;left=0;bottom=0;right=0;editable=1;overflow=hidden;strokeColor=#82b366;" vertex="1" parent="GXWJZuFiqb-djiV_RVK9-51">
          <mxGeometry width="30" height="30" as="geometry" />
        </mxCell>
        <mxCell id="GXWJZuFiqb-djiV_RVK9-53" value="Note" style="shape=partialRectangle;connectable=0;fillColor=#d5e8d4;top=0;left=0;bottom=0;right=0;align=left;spacingLeft=6;overflow=hidden;strokeColor=#82b366;" vertex="1" parent="GXWJZuFiqb-djiV_RVK9-51">
          <mxGeometry x="30" width="80" height="30" as="geometry" />
        </mxCell>
        <mxCell id="GXWJZuFiqb-djiV_RVK9-54" value="" style="shape=partialRectangle;collapsible=0;dropTarget=0;pointerEvents=0;fillColor=#d5e8d4;top=0;left=0;bottom=0;right=0;points=[[0,0.5],[1,0.5]];portConstraint=eastwest;strokeColor=#82b366;" vertex="1" parent="GXWJZuFiqb-djiV_RVK9-44">
          <mxGeometry y="120" width="110" height="30" as="geometry" />
        </mxCell>
        <mxCell id="GXWJZuFiqb-djiV_RVK9-55" value="" style="shape=partialRectangle;connectable=0;fillColor=#d5e8d4;top=0;left=0;bottom=0;right=0;editable=1;overflow=hidden;strokeColor=#82b366;" vertex="1" parent="GXWJZuFiqb-djiV_RVK9-54">
          <mxGeometry width="30" height="30" as="geometry" />
        </mxCell>
        <mxCell id="GXWJZuFiqb-djiV_RVK9-56" value="Create_time" style="shape=partialRectangle;connectable=0;fillColor=#d5e8d4;top=0;left=0;bottom=0;right=0;align=left;spacingLeft=6;overflow=hidden;strokeColor=#82b366;" vertex="1" parent="GXWJZuFiqb-djiV_RVK9-54">
          <mxGeometry x="30" width="80" height="30" as="geometry" />
        </mxCell>
        <mxCell id="GXWJZuFiqb-djiV_RVK9-57" value="Driver" style="shape=table;startSize=30;container=1;collapsible=1;childLayout=tableLayout;fixedRows=1;rowLines=0;fontStyle=1;align=center;resizeLast=1;fillColor=#ffcccc;strokeColor=#36393d;" vertex="1" parent="GXWJZuFiqb-djiV_RVK9-1">
          <mxGeometry x="665" y="215" width="110" height="150" as="geometry" />
        </mxCell>
        <mxCell id="GXWJZuFiqb-djiV_RVK9-58" value="" style="shape=partialRectangle;collapsible=0;dropTarget=0;pointerEvents=0;fillColor=#ffcccc;top=0;left=0;bottom=1;right=0;points=[[0,0.5],[1,0.5]];portConstraint=eastwest;strokeColor=#36393d;" vertex="1" parent="GXWJZuFiqb-djiV_RVK9-57">
          <mxGeometry y="30" width="110" height="30" as="geometry" />
        </mxCell>
        <mxCell id="GXWJZuFiqb-djiV_RVK9-59" value="PK" style="shape=partialRectangle;connectable=0;fillColor=#ffcccc;top=0;left=0;bottom=0;right=0;fontStyle=1;overflow=hidden;strokeColor=#36393d;" vertex="1" parent="GXWJZuFiqb-djiV_RVK9-58">
          <mxGeometry width="30" height="30" as="geometry" />
        </mxCell>
        <mxCell id="GXWJZuFiqb-djiV_RVK9-60" value="Driver_id" style="shape=partialRectangle;connectable=0;fillColor=#ffcccc;top=0;left=0;bottom=0;right=0;align=left;spacingLeft=6;fontStyle=5;overflow=hidden;strokeColor=#36393d;" vertex="1" parent="GXWJZuFiqb-djiV_RVK9-58">
          <mxGeometry x="30" width="80" height="30" as="geometry" />
        </mxCell>
        <mxCell id="GXWJZuFiqb-djiV_RVK9-61" value="" style="shape=partialRectangle;collapsible=0;dropTarget=0;pointerEvents=0;fillColor=#ffcccc;top=0;left=0;bottom=0;right=0;points=[[0,0.5],[1,0.5]];portConstraint=eastwest;strokeColor=#36393d;" vertex="1" parent="GXWJZuFiqb-djiV_RVK9-57">
          <mxGeometry y="60" width="110" height="30" as="geometry" />
        </mxCell>
        <mxCell id="GXWJZuFiqb-djiV_RVK9-62" value="" style="shape=partialRectangle;connectable=0;fillColor=#ffcccc;top=0;left=0;bottom=0;right=0;editable=1;overflow=hidden;strokeColor=#36393d;" vertex="1" parent="GXWJZuFiqb-djiV_RVK9-61">
          <mxGeometry width="30" height="30" as="geometry" />
        </mxCell>
        <mxCell id="GXWJZuFiqb-djiV_RVK9-63" value="Age" style="shape=partialRectangle;connectable=0;fillColor=#ffcccc;top=0;left=0;bottom=0;right=0;align=left;spacingLeft=6;overflow=hidden;strokeColor=#36393d;" vertex="1" parent="GXWJZuFiqb-djiV_RVK9-61">
          <mxGeometry x="30" width="80" height="30" as="geometry" />
        </mxCell>
        <mxCell id="GXWJZuFiqb-djiV_RVK9-64" value="" style="shape=partialRectangle;collapsible=0;dropTarget=0;pointerEvents=0;fillColor=#ffcccc;top=0;left=0;bottom=0;right=0;points=[[0,0.5],[1,0.5]];portConstraint=eastwest;strokeColor=#36393d;" vertex="1" parent="GXWJZuFiqb-djiV_RVK9-57">
          <mxGeometry y="90" width="110" height="30" as="geometry" />
        </mxCell>
        <mxCell id="GXWJZuFiqb-djiV_RVK9-65" value="" style="shape=partialRectangle;connectable=0;fillColor=#ffcccc;top=0;left=0;bottom=0;right=0;editable=1;overflow=hidden;strokeColor=#36393d;" vertex="1" parent="GXWJZuFiqb-djiV_RVK9-64">
          <mxGeometry width="30" height="30" as="geometry" />
        </mxCell>
        <mxCell id="GXWJZuFiqb-djiV_RVK9-66" value="Note" style="shape=partialRectangle;connectable=0;fillColor=#ffcccc;top=0;left=0;bottom=0;right=0;align=left;spacingLeft=6;overflow=hidden;strokeColor=#36393d;" vertex="1" parent="GXWJZuFiqb-djiV_RVK9-64">
          <mxGeometry x="30" width="80" height="30" as="geometry" />
        </mxCell>
        <mxCell id="GXWJZuFiqb-djiV_RVK9-67" value="" style="shape=partialRectangle;collapsible=0;dropTarget=0;pointerEvents=0;fillColor=#ffcccc;top=0;left=0;bottom=0;right=0;points=[[0,0.5],[1,0.5]];portConstraint=eastwest;strokeColor=#36393d;" vertex="1" parent="GXWJZuFiqb-djiV_RVK9-57">
          <mxGeometry y="120" width="110" height="30" as="geometry" />
        </mxCell>
        <mxCell id="GXWJZuFiqb-djiV_RVK9-68" value="" style="shape=partialRectangle;connectable=0;fillColor=#ffcccc;top=0;left=0;bottom=0;right=0;editable=1;overflow=hidden;strokeColor=#36393d;" vertex="1" parent="GXWJZuFiqb-djiV_RVK9-67">
          <mxGeometry width="30" height="30" as="geometry" />
        </mxCell>
        <mxCell id="GXWJZuFiqb-djiV_RVK9-69" value="Create_time" style="shape=partialRectangle;connectable=0;fillColor=#ffcccc;top=0;left=0;bottom=0;right=0;align=left;spacingLeft=6;overflow=hidden;strokeColor=#36393d;" vertex="1" parent="GXWJZuFiqb-djiV_RVK9-67">
          <mxGeometry x="30" width="80" height="30" as="geometry" />
        </mxCell>
        <mxCell id="GXWJZuFiqb-djiV_RVK9-70" value="" style="rounded=0;whiteSpace=wrap;html=1;strokeColor=#82b366;fillColor=none;" vertex="1" parent="GXWJZuFiqb-djiV_RVK9-1">
          <mxGeometry x="450" y="174" width="155" height="220" as="geometry" />
        </mxCell>
        <mxCell id="GXWJZuFiqb-djiV_RVK9-71" value="" style="rounded=0;whiteSpace=wrap;html=1;strokeColor=#36393d;fillColor=none;" vertex="1" parent="GXWJZuFiqb-djiV_RVK9-1">
          <mxGeometry x="650" y="174" width="160" height="226" as="geometry" />
        </mxCell>
        <mxCell id="GXWJZuFiqb-djiV_RVK9-72" style="edgeStyle=orthogonalEdgeStyle;rounded=0;orthogonalLoop=1;jettySize=auto;html=1;exitX=1;exitY=0.75;exitDx=0;exitDy=0;entryX=0;entryY=0.5;entryDx=0;entryDy=0;" edge="1" parent="GXWJZuFiqb-djiV_RVK9-1" source="GXWJZuFiqb-djiV_RVK9-73" target="GXWJZuFiqb-djiV_RVK9-105">
          <mxGeometry relative="1" as="geometry">
            <Array as="points">
              <mxPoint x="640" y="580" />
              <mxPoint x="640" y="625" />
              <mxPoint x="790" y="625" />
              <mxPoint x="790" y="500" />
            </Array>
          </mxGeometry>
        </mxCell>
        <object label="Device" id="GXWJZuFiqb-djiV_RVK9-73">
          <mxCell style="shape=table;startSize=30;container=1;collapsible=1;childLayout=tableLayout;fixedRows=1;rowLines=0;fontStyle=1;align=center;resizeLast=1;fillColor=#e1d5e7;strokeColor=#9673a6;" vertex="1" parent="GXWJZuFiqb-djiV_RVK9-1">
            <mxGeometry x="480" y="440" width="145" height="180" as="geometry" />
          </mxCell>
        </object>
        <mxCell id="GXWJZuFiqb-djiV_RVK9-74" value="" style="shape=partialRectangle;collapsible=0;dropTarget=0;pointerEvents=0;fillColor=#e1d5e7;top=0;left=0;bottom=1;right=0;points=[[0,0.5],[1,0.5]];portConstraint=eastwest;strokeColor=#9673a6;" vertex="1" parent="GXWJZuFiqb-djiV_RVK9-73">
          <mxGeometry y="30" width="145" height="30" as="geometry" />
        </mxCell>
        <mxCell id="GXWJZuFiqb-djiV_RVK9-75" value="PK" style="shape=partialRectangle;connectable=0;fillColor=#e1d5e7;top=0;left=0;bottom=0;right=0;fontStyle=1;overflow=hidden;strokeColor=#9673a6;" vertex="1" parent="GXWJZuFiqb-djiV_RVK9-74">
          <mxGeometry width="30" height="30" as="geometry" />
        </mxCell>
        <mxCell id="GXWJZuFiqb-djiV_RVK9-76" value="Driver_id" style="shape=partialRectangle;connectable=0;fillColor=#e1d5e7;top=0;left=0;bottom=0;right=0;align=left;spacingLeft=6;fontStyle=5;overflow=hidden;strokeColor=#9673a6;" vertex="1" parent="GXWJZuFiqb-djiV_RVK9-74">
          <mxGeometry x="30" width="115" height="30" as="geometry" />
        </mxCell>
        <mxCell id="GXWJZuFiqb-djiV_RVK9-77" value="" style="shape=partialRectangle;collapsible=0;dropTarget=0;pointerEvents=0;fillColor=#e1d5e7;top=0;left=0;bottom=0;right=0;points=[[0,0.5],[1,0.5]];portConstraint=eastwest;strokeColor=#9673a6;" vertex="1" parent="GXWJZuFiqb-djiV_RVK9-73">
          <mxGeometry y="60" width="145" height="30" as="geometry" />
        </mxCell>
        <mxCell id="GXWJZuFiqb-djiV_RVK9-78" value="" style="shape=partialRectangle;connectable=0;fillColor=#e1d5e7;top=0;left=0;bottom=0;right=0;editable=1;overflow=hidden;strokeColor=#9673a6;" vertex="1" parent="GXWJZuFiqb-djiV_RVK9-77">
          <mxGeometry width="30" height="30" as="geometry" />
        </mxCell>
        <mxCell id="GXWJZuFiqb-djiV_RVK9-79" value="Brand_id" style="shape=partialRectangle;connectable=0;fillColor=#e1d5e7;top=0;left=0;bottom=0;right=0;align=left;spacingLeft=6;overflow=hidden;strokeColor=#9673a6;" vertex="1" parent="GXWJZuFiqb-djiV_RVK9-77">
          <mxGeometry x="30" width="115" height="30" as="geometry" />
        </mxCell>
        <mxCell id="GXWJZuFiqb-djiV_RVK9-80" value="" style="shape=partialRectangle;collapsible=0;dropTarget=0;pointerEvents=0;fillColor=#e1d5e7;top=0;left=0;bottom=0;right=0;points=[[0,0.5],[1,0.5]];portConstraint=eastwest;strokeColor=#9673a6;" vertex="1" parent="GXWJZuFiqb-djiV_RVK9-73">
          <mxGeometry y="90" width="145" height="30" as="geometry" />
        </mxCell>
        <mxCell id="GXWJZuFiqb-djiV_RVK9-81" value="" style="shape=partialRectangle;connectable=0;fillColor=#e1d5e7;top=0;left=0;bottom=0;right=0;editable=1;overflow=hidden;strokeColor=#9673a6;" vertex="1" parent="GXWJZuFiqb-djiV_RVK9-80">
          <mxGeometry width="30" height="30" as="geometry" />
        </mxCell>
        <mxCell id="GXWJZuFiqb-djiV_RVK9-82" value="Type_id" style="shape=partialRectangle;connectable=0;fillColor=#e1d5e7;top=0;left=0;bottom=0;right=0;align=left;spacingLeft=6;overflow=hidden;strokeColor=#9673a6;" vertex="1" parent="GXWJZuFiqb-djiV_RVK9-80">
          <mxGeometry x="30" width="115" height="30" as="geometry" />
        </mxCell>
        <mxCell id="GXWJZuFiqb-djiV_RVK9-83" value="" style="shape=partialRectangle;collapsible=0;dropTarget=0;pointerEvents=0;fillColor=#e1d5e7;top=0;left=0;bottom=0;right=0;points=[[0,0.5],[1,0.5]];portConstraint=eastwest;strokeColor=#9673a6;" vertex="1" parent="GXWJZuFiqb-djiV_RVK9-73">
          <mxGeometry y="120" width="145" height="30" as="geometry" />
        </mxCell>
        <mxCell id="GXWJZuFiqb-djiV_RVK9-84" value="" style="shape=partialRectangle;connectable=0;fillColor=#e1d5e7;top=0;left=0;bottom=0;right=0;editable=1;overflow=hidden;strokeColor=#9673a6;" vertex="1" parent="GXWJZuFiqb-djiV_RVK9-83">
          <mxGeometry width="30" height="30" as="geometry" />
        </mxCell>
        <mxCell id="GXWJZuFiqb-djiV_RVK9-85" value="Insurance_type_id" style="shape=partialRectangle;connectable=0;fillColor=#e1d5e7;top=0;left=0;bottom=0;right=0;align=left;spacingLeft=6;overflow=hidden;strokeColor=#9673a6;" vertex="1" parent="GXWJZuFiqb-djiV_RVK9-83">
          <mxGeometry x="30" width="115" height="30" as="geometry" />
        </mxCell>
        <mxCell id="GXWJZuFiqb-djiV_RVK9-86" value="" style="shape=partialRectangle;collapsible=0;dropTarget=0;pointerEvents=0;fillColor=#e1d5e7;top=0;left=0;bottom=0;right=0;points=[[0,0.5],[1,0.5]];portConstraint=eastwest;strokeColor=#9673a6;" vertex="1" parent="GXWJZuFiqb-djiV_RVK9-73">
          <mxGeometry y="150" width="145" height="30" as="geometry" />
        </mxCell>
        <mxCell id="GXWJZuFiqb-djiV_RVK9-87" value="" style="shape=partialRectangle;connectable=0;fillColor=#e1d5e7;top=0;left=0;bottom=0;right=0;editable=1;overflow=hidden;strokeColor=#9673a6;" vertex="1" parent="GXWJZuFiqb-djiV_RVK9-86">
          <mxGeometry width="30" height="30" as="geometry" />
        </mxCell>
        <mxCell id="GXWJZuFiqb-djiV_RVK9-88" value=" Device_owner_id" style="shape=partialRectangle;connectable=0;fillColor=#e1d5e7;top=0;left=0;bottom=0;right=0;align=left;spacingLeft=6;overflow=hidden;strokeColor=#9673a6;" vertex="1" parent="GXWJZuFiqb-djiV_RVK9-86">
          <mxGeometry x="30" width="115" height="30" as="geometry" />
        </mxCell>
        <mxCell id="GXWJZuFiqb-djiV_RVK9-89" style="edgeStyle=orthogonalEdgeStyle;rounded=0;orthogonalLoop=1;jettySize=auto;html=1;exitX=0;exitY=0.25;exitDx=0;exitDy=0;entryX=1;entryY=0.5;entryDx=0;entryDy=0;" edge="1" parent="GXWJZuFiqb-djiV_RVK9-1" source="GXWJZuFiqb-djiV_RVK9-90" target="GXWJZuFiqb-djiV_RVK9-77">
          <mxGeometry relative="1" as="geometry" />
        </mxCell>
        <mxCell id="GXWJZuFiqb-djiV_RVK9-90" value="Device_brand" style="shape=table;startSize=30;container=1;collapsible=1;childLayout=tableLayout;fixedRows=1;rowLines=0;fontStyle=1;align=center;resizeLast=1;fillColor=#e1d5e7;strokeColor=#9673a6;" vertex="1" parent="GXWJZuFiqb-djiV_RVK9-1">
          <mxGeometry x="670" y="455" width="110" height="150" as="geometry" />
        </mxCell>
        <mxCell id="GXWJZuFiqb-djiV_RVK9-91" value="" style="shape=partialRectangle;collapsible=0;dropTarget=0;pointerEvents=0;fillColor=#e1d5e7;top=0;left=0;bottom=1;right=0;points=[[0,0.5],[1,0.5]];portConstraint=eastwest;strokeColor=#9673a6;" vertex="1" parent="GXWJZuFiqb-djiV_RVK9-90">
          <mxGeometry y="30" width="110" height="30" as="geometry" />
        </mxCell>
        <mxCell id="GXWJZuFiqb-djiV_RVK9-92" value="PK" style="shape=partialRectangle;connectable=0;fillColor=#e1d5e7;top=0;left=0;bottom=0;right=0;fontStyle=1;overflow=hidden;strokeColor=#9673a6;" vertex="1" parent="GXWJZuFiqb-djiV_RVK9-91">
          <mxGeometry width="30" height="30" as="geometry" />
        </mxCell>
        <mxCell id="GXWJZuFiqb-djiV_RVK9-93" value="Brand_id" style="shape=partialRectangle;connectable=0;fillColor=#e1d5e7;top=0;left=0;bottom=0;right=0;align=left;spacingLeft=6;fontStyle=5;overflow=hidden;strokeColor=#9673a6;" vertex="1" parent="GXWJZuFiqb-djiV_RVK9-91">
          <mxGeometry x="30" width="80" height="30" as="geometry" />
        </mxCell>
        <mxCell id="GXWJZuFiqb-djiV_RVK9-94" value="" style="shape=partialRectangle;collapsible=0;dropTarget=0;pointerEvents=0;fillColor=#e1d5e7;top=0;left=0;bottom=0;right=0;points=[[0,0.5],[1,0.5]];portConstraint=eastwest;strokeColor=#9673a6;" vertex="1" parent="GXWJZuFiqb-djiV_RVK9-90">
          <mxGeometry y="60" width="110" height="30" as="geometry" />
        </mxCell>
        <mxCell id="GXWJZuFiqb-djiV_RVK9-95" value="" style="shape=partialRectangle;connectable=0;fillColor=#e1d5e7;top=0;left=0;bottom=0;right=0;editable=1;overflow=hidden;strokeColor=#9673a6;" vertex="1" parent="GXWJZuFiqb-djiV_RVK9-94">
          <mxGeometry width="30" height="30" as="geometry" />
        </mxCell>
        <mxCell id="GXWJZuFiqb-djiV_RVK9-96" value="Age" style="shape=partialRectangle;connectable=0;fillColor=#e1d5e7;top=0;left=0;bottom=0;right=0;align=left;spacingLeft=6;overflow=hidden;strokeColor=#9673a6;" vertex="1" parent="GXWJZuFiqb-djiV_RVK9-94">
          <mxGeometry x="30" width="80" height="30" as="geometry" />
        </mxCell>
        <mxCell id="GXWJZuFiqb-djiV_RVK9-97" value="" style="shape=partialRectangle;collapsible=0;dropTarget=0;pointerEvents=0;fillColor=#e1d5e7;top=0;left=0;bottom=0;right=0;points=[[0,0.5],[1,0.5]];portConstraint=eastwest;strokeColor=#9673a6;" vertex="1" parent="GXWJZuFiqb-djiV_RVK9-90">
          <mxGeometry y="90" width="110" height="30" as="geometry" />
        </mxCell>
        <mxCell id="GXWJZuFiqb-djiV_RVK9-98" value="" style="shape=partialRectangle;connectable=0;fillColor=#e1d5e7;top=0;left=0;bottom=0;right=0;editable=1;overflow=hidden;strokeColor=#9673a6;" vertex="1" parent="GXWJZuFiqb-djiV_RVK9-97">
          <mxGeometry width="30" height="30" as="geometry" />
        </mxCell>
        <mxCell id="GXWJZuFiqb-djiV_RVK9-99" value="Note" style="shape=partialRectangle;connectable=0;fillColor=#e1d5e7;top=0;left=0;bottom=0;right=0;align=left;spacingLeft=6;overflow=hidden;strokeColor=#9673a6;" vertex="1" parent="GXWJZuFiqb-djiV_RVK9-97">
          <mxGeometry x="30" width="80" height="30" as="geometry" />
        </mxCell>
        <mxCell id="GXWJZuFiqb-djiV_RVK9-100" value="" style="shape=partialRectangle;collapsible=0;dropTarget=0;pointerEvents=0;fillColor=#e1d5e7;top=0;left=0;bottom=0;right=0;points=[[0,0.5],[1,0.5]];portConstraint=eastwest;strokeColor=#9673a6;" vertex="1" parent="GXWJZuFiqb-djiV_RVK9-90">
          <mxGeometry y="120" width="110" height="30" as="geometry" />
        </mxCell>
        <mxCell id="GXWJZuFiqb-djiV_RVK9-101" value="" style="shape=partialRectangle;connectable=0;fillColor=#e1d5e7;top=0;left=0;bottom=0;right=0;editable=1;overflow=hidden;strokeColor=#9673a6;" vertex="1" parent="GXWJZuFiqb-djiV_RVK9-100">
          <mxGeometry width="30" height="30" as="geometry" />
        </mxCell>
        <mxCell id="GXWJZuFiqb-djiV_RVK9-102" value="Create_time" style="shape=partialRectangle;connectable=0;fillColor=#e1d5e7;top=0;left=0;bottom=0;right=0;align=left;spacingLeft=6;overflow=hidden;strokeColor=#9673a6;" vertex="1" parent="GXWJZuFiqb-djiV_RVK9-100">
          <mxGeometry x="30" width="80" height="30" as="geometry" />
        </mxCell>
        <mxCell id="GXWJZuFiqb-djiV_RVK9-103" style="edgeStyle=orthogonalEdgeStyle;rounded=0;orthogonalLoop=1;jettySize=auto;html=1;exitX=1;exitY=0.5;exitDx=0;exitDy=0;entryX=1;entryY=0.5;entryDx=0;entryDy=0;" edge="1" parent="GXWJZuFiqb-djiV_RVK9-1" source="GXWJZuFiqb-djiV_RVK9-104" target="GXWJZuFiqb-djiV_RVK9-118">
          <mxGeometry relative="1" as="geometry" />
        </mxCell>
        <mxCell id="GXWJZuFiqb-djiV_RVK9-104" value="Insurance_type" style="shape=table;startSize=30;container=1;collapsible=1;childLayout=tableLayout;fixedRows=1;rowLines=0;fontStyle=1;align=center;resizeLast=1;fillColor=#e1d5e7;strokeColor=#9673a6;" vertex="1" parent="GXWJZuFiqb-djiV_RVK9-1">
          <mxGeometry x="810" y="455" width="110" height="150" as="geometry" />
        </mxCell>
        <mxCell id="GXWJZuFiqb-djiV_RVK9-105" value="" style="shape=partialRectangle;collapsible=0;dropTarget=0;pointerEvents=0;fillColor=#e1d5e7;top=0;left=0;bottom=1;right=0;points=[[0,0.5],[1,0.5]];portConstraint=eastwest;strokeColor=#9673a6;" vertex="1" parent="GXWJZuFiqb-djiV_RVK9-104">
          <mxGeometry y="30" width="110" height="30" as="geometry" />
        </mxCell>
        <mxCell id="GXWJZuFiqb-djiV_RVK9-106" value="PK" style="shape=partialRectangle;connectable=0;fillColor=#e1d5e7;top=0;left=0;bottom=0;right=0;fontStyle=1;overflow=hidden;strokeColor=#9673a6;" vertex="1" parent="GXWJZuFiqb-djiV_RVK9-105">
          <mxGeometry width="30" height="30" as="geometry" />
        </mxCell>
        <mxCell id="GXWJZuFiqb-djiV_RVK9-107" value="InType_id" style="shape=partialRectangle;connectable=0;fillColor=#e1d5e7;top=0;left=0;bottom=0;right=0;align=left;spacingLeft=6;fontStyle=5;overflow=hidden;strokeColor=#9673a6;" vertex="1" parent="GXWJZuFiqb-djiV_RVK9-105">
          <mxGeometry x="30" width="80" height="30" as="geometry" />
        </mxCell>
        <mxCell id="GXWJZuFiqb-djiV_RVK9-108" value="" style="shape=partialRectangle;collapsible=0;dropTarget=0;pointerEvents=0;fillColor=#e1d5e7;top=0;left=0;bottom=0;right=0;points=[[0,0.5],[1,0.5]];portConstraint=eastwest;strokeColor=#9673a6;" vertex="1" parent="GXWJZuFiqb-djiV_RVK9-104">
          <mxGeometry y="60" width="110" height="30" as="geometry" />
        </mxCell>
        <mxCell id="GXWJZuFiqb-djiV_RVK9-109" value="" style="shape=partialRectangle;connectable=0;fillColor=#e1d5e7;top=0;left=0;bottom=0;right=0;editable=1;overflow=hidden;strokeColor=#9673a6;" vertex="1" parent="GXWJZuFiqb-djiV_RVK9-108">
          <mxGeometry width="30" height="30" as="geometry" />
        </mxCell>
        <mxCell id="GXWJZuFiqb-djiV_RVK9-110" value="Contract_id" style="shape=partialRectangle;connectable=0;fillColor=#e1d5e7;top=0;left=0;bottom=0;right=0;align=left;spacingLeft=6;overflow=hidden;strokeColor=#9673a6;" vertex="1" parent="GXWJZuFiqb-djiV_RVK9-108">
          <mxGeometry x="30" width="80" height="30" as="geometry" />
        </mxCell>
        <mxCell id="GXWJZuFiqb-djiV_RVK9-111" value="" style="shape=partialRectangle;collapsible=0;dropTarget=0;pointerEvents=0;fillColor=#e1d5e7;top=0;left=0;bottom=0;right=0;points=[[0,0.5],[1,0.5]];portConstraint=eastwest;strokeColor=#9673a6;" vertex="1" parent="GXWJZuFiqb-djiV_RVK9-104">
          <mxGeometry y="90" width="110" height="30" as="geometry" />
        </mxCell>
        <mxCell id="GXWJZuFiqb-djiV_RVK9-112" value="" style="shape=partialRectangle;connectable=0;fillColor=#e1d5e7;top=0;left=0;bottom=0;right=0;editable=1;overflow=hidden;strokeColor=#9673a6;" vertex="1" parent="GXWJZuFiqb-djiV_RVK9-111">
          <mxGeometry width="30" height="30" as="geometry" />
        </mxCell>
        <mxCell id="GXWJZuFiqb-djiV_RVK9-113" value="name" style="shape=partialRectangle;connectable=0;fillColor=#e1d5e7;top=0;left=0;bottom=0;right=0;align=left;spacingLeft=6;overflow=hidden;strokeColor=#9673a6;" vertex="1" parent="GXWJZuFiqb-djiV_RVK9-111">
          <mxGeometry x="30" width="80" height="30" as="geometry" />
        </mxCell>
        <mxCell id="GXWJZuFiqb-djiV_RVK9-114" value="" style="shape=partialRectangle;collapsible=0;dropTarget=0;pointerEvents=0;fillColor=#e1d5e7;top=0;left=0;bottom=0;right=0;points=[[0,0.5],[1,0.5]];portConstraint=eastwest;strokeColor=#9673a6;" vertex="1" parent="GXWJZuFiqb-djiV_RVK9-104">
          <mxGeometry y="120" width="110" height="30" as="geometry" />
        </mxCell>
        <mxCell id="GXWJZuFiqb-djiV_RVK9-115" value="" style="shape=partialRectangle;connectable=0;fillColor=#e1d5e7;top=0;left=0;bottom=0;right=0;editable=1;overflow=hidden;strokeColor=#9673a6;" vertex="1" parent="GXWJZuFiqb-djiV_RVK9-114">
          <mxGeometry width="30" height="30" as="geometry" />
        </mxCell>
        <mxCell id="GXWJZuFiqb-djiV_RVK9-116" value="Point" style="shape=partialRectangle;connectable=0;fillColor=#e1d5e7;top=0;left=0;bottom=0;right=0;align=left;spacingLeft=6;overflow=hidden;strokeColor=#9673a6;" vertex="1" parent="GXWJZuFiqb-djiV_RVK9-114">
          <mxGeometry x="30" width="80" height="30" as="geometry" />
        </mxCell>
        <mxCell id="GXWJZuFiqb-djiV_RVK9-117" value="Contract" style="shape=table;startSize=30;container=1;collapsible=1;childLayout=tableLayout;fixedRows=1;rowLines=0;fontStyle=1;align=center;resizeLast=1;fillColor=#e1d5e7;strokeColor=#9673a6;" vertex="1" parent="GXWJZuFiqb-djiV_RVK9-1">
          <mxGeometry x="750" y="635" width="120" height="120" as="geometry" />
        </mxCell>
        <mxCell id="GXWJZuFiqb-djiV_RVK9-118" value="" style="shape=partialRectangle;collapsible=0;dropTarget=0;pointerEvents=0;fillColor=#e1d5e7;top=0;left=0;bottom=1;right=0;points=[[0,0.5],[1,0.5]];portConstraint=eastwest;strokeColor=#9673a6;" vertex="1" parent="GXWJZuFiqb-djiV_RVK9-117">
          <mxGeometry y="30" width="120" height="30" as="geometry" />
        </mxCell>
        <mxCell id="GXWJZuFiqb-djiV_RVK9-119" value="PK" style="shape=partialRectangle;connectable=0;fillColor=#e1d5e7;top=0;left=0;bottom=0;right=0;fontStyle=1;overflow=hidden;strokeColor=#9673a6;" vertex="1" parent="GXWJZuFiqb-djiV_RVK9-118">
          <mxGeometry width="30" height="30" as="geometry" />
        </mxCell>
        <mxCell id="GXWJZuFiqb-djiV_RVK9-120" value="Contract_id" style="shape=partialRectangle;connectable=0;fillColor=#e1d5e7;top=0;left=0;bottom=0;right=0;align=left;spacingLeft=6;fontStyle=5;overflow=hidden;strokeColor=#9673a6;" vertex="1" parent="GXWJZuFiqb-djiV_RVK9-118">
          <mxGeometry x="30" width="90" height="30" as="geometry" />
        </mxCell>
        <mxCell id="GXWJZuFiqb-djiV_RVK9-121" value="" style="shape=partialRectangle;collapsible=0;dropTarget=0;pointerEvents=0;fillColor=#e1d5e7;top=0;left=0;bottom=0;right=0;points=[[0,0.5],[1,0.5]];portConstraint=eastwest;strokeColor=#9673a6;" vertex="1" parent="GXWJZuFiqb-djiV_RVK9-117">
          <mxGeometry y="60" width="120" height="30" as="geometry" />
        </mxCell>
        <mxCell id="GXWJZuFiqb-djiV_RVK9-122" value="" style="shape=partialRectangle;connectable=0;fillColor=#e1d5e7;top=0;left=0;bottom=0;right=0;editable=1;overflow=hidden;strokeColor=#9673a6;" vertex="1" parent="GXWJZuFiqb-djiV_RVK9-121">
          <mxGeometry width="30" height="30" as="geometry" />
        </mxCell>
        <mxCell id="GXWJZuFiqb-djiV_RVK9-123" value="Contract_name" style="shape=partialRectangle;connectable=0;fillColor=#e1d5e7;top=0;left=0;bottom=0;right=0;align=left;spacingLeft=6;overflow=hidden;strokeColor=#9673a6;" vertex="1" parent="GXWJZuFiqb-djiV_RVK9-121">
          <mxGeometry x="30" width="90" height="30" as="geometry" />
        </mxCell>
        <mxCell id="GXWJZuFiqb-djiV_RVK9-124" value="" style="shape=partialRectangle;collapsible=0;dropTarget=0;pointerEvents=0;fillColor=#e1d5e7;top=0;left=0;bottom=0;right=0;points=[[0,0.5],[1,0.5]];portConstraint=eastwest;strokeColor=#9673a6;" vertex="1" parent="GXWJZuFiqb-djiV_RVK9-117">
          <mxGeometry y="90" width="120" height="30" as="geometry" />
        </mxCell>
        <mxCell id="GXWJZuFiqb-djiV_RVK9-125" value="" style="shape=partialRectangle;connectable=0;fillColor=#e1d5e7;top=0;left=0;bottom=0;right=0;editable=1;overflow=hidden;strokeColor=#9673a6;" vertex="1" parent="GXWJZuFiqb-djiV_RVK9-124">
          <mxGeometry width="30" height="30" as="geometry" />
        </mxCell>
        <mxCell id="GXWJZuFiqb-djiV_RVK9-126" value="Desc" style="shape=partialRectangle;connectable=0;fillColor=#e1d5e7;top=0;left=0;bottom=0;right=0;align=left;spacingLeft=6;overflow=hidden;strokeColor=#9673a6;" vertex="1" parent="GXWJZuFiqb-djiV_RVK9-124">
          <mxGeometry x="30" width="90" height="30" as="geometry" />
        </mxCell>
        <mxCell id="GXWJZuFiqb-djiV_RVK9-127" value="" style="rounded=0;whiteSpace=wrap;html=1;strokeColor=#d79b00;fillColor=none;" vertex="1" parent="GXWJZuFiqb-djiV_RVK9-1">
          <mxGeometry x="75" y="870" width="185" height="320" as="geometry" />
        </mxCell>
        <mxCell id="GXWJZuFiqb-djiV_RVK9-128" value="" style="rounded=0;whiteSpace=wrap;html=1;strokeColor=#d6b656;fillColor=none;" vertex="1" parent="GXWJZuFiqb-djiV_RVK9-1">
          <mxGeometry x="278.5" y="870" width="441.5" height="620" as="geometry" />
        </mxCell>
        <mxCell id="GXWJZuFiqb-djiV_RVK9-129" style="edgeStyle=orthogonalEdgeStyle;rounded=0;orthogonalLoop=1;jettySize=auto;html=1;exitX=0.5;exitY=1;exitDx=0;exitDy=0;entryX=0.5;entryY=0;entryDx=0;entryDy=0;" edge="1" parent="GXWJZuFiqb-djiV_RVK9-1" source="GXWJZuFiqb-djiV_RVK9-131" target="GXWJZuFiqb-djiV_RVK9-203">
          <mxGeometry relative="1" as="geometry" />
        </mxCell>
        <mxCell id="GXWJZuFiqb-djiV_RVK9-130" style="edgeStyle=orthogonalEdgeStyle;rounded=0;orthogonalLoop=1;jettySize=auto;html=1;exitX=0.5;exitY=1;exitDx=0;exitDy=0;entryX=0.5;entryY=0;entryDx=0;entryDy=0;" edge="1" parent="GXWJZuFiqb-djiV_RVK9-1" source="GXWJZuFiqb-djiV_RVK9-131" target="GXWJZuFiqb-djiV_RVK9-225">
          <mxGeometry relative="1" as="geometry" />
        </mxCell>
        <mxCell id="GXWJZuFiqb-djiV_RVK9-131" value="Trip Management" style="rounded=0;whiteSpace=wrap;html=1;fillColor=#647687;strokeColor=#314354;fontColor=#ffffff;" vertex="1" parent="GXWJZuFiqb-djiV_RVK9-1">
          <mxGeometry x="855" y="860" width="170" height="60" as="geometry" />
        </mxCell>
        <mxCell id="GXWJZuFiqb-djiV_RVK9-132" value="Payment" style="shape=table;startSize=30;container=1;collapsible=1;childLayout=tableLayout;fixedRows=1;rowLines=0;fontStyle=1;align=center;resizeLast=1;fillColor=#fff2cc;strokeColor=#d6b656;" vertex="1" parent="GXWJZuFiqb-djiV_RVK9-1">
          <mxGeometry x="300" y="910" width="137" height="150" as="geometry" />
        </mxCell>
        <mxCell id="GXWJZuFiqb-djiV_RVK9-133" value="" style="shape=partialRectangle;collapsible=0;dropTarget=0;pointerEvents=0;fillColor=#fff2cc;top=0;left=0;bottom=1;right=0;points=[[0,0.5],[1,0.5]];portConstraint=eastwest;strokeColor=#d6b656;" vertex="1" parent="GXWJZuFiqb-djiV_RVK9-132">
          <mxGeometry y="30" width="137" height="30" as="geometry" />
        </mxCell>
        <mxCell id="GXWJZuFiqb-djiV_RVK9-134" value="PK" style="shape=partialRectangle;connectable=0;fillColor=#fff2cc;top=0;left=0;bottom=0;right=0;fontStyle=1;overflow=hidden;strokeColor=#d6b656;" vertex="1" parent="GXWJZuFiqb-djiV_RVK9-133">
          <mxGeometry width="30" height="30" as="geometry" />
        </mxCell>
        <mxCell id="GXWJZuFiqb-djiV_RVK9-135" value="Payment_id" style="shape=partialRectangle;connectable=0;fillColor=#fff2cc;top=0;left=0;bottom=0;right=0;align=left;spacingLeft=6;fontStyle=5;overflow=hidden;strokeColor=#d6b656;" vertex="1" parent="GXWJZuFiqb-djiV_RVK9-133">
          <mxGeometry x="30" width="107" height="30" as="geometry" />
        </mxCell>
        <mxCell id="GXWJZuFiqb-djiV_RVK9-136" value="" style="shape=partialRectangle;collapsible=0;dropTarget=0;pointerEvents=0;fillColor=#fff2cc;top=0;left=0;bottom=0;right=0;points=[[0,0.5],[1,0.5]];portConstraint=eastwest;strokeColor=#d6b656;" vertex="1" parent="GXWJZuFiqb-djiV_RVK9-132">
          <mxGeometry y="60" width="137" height="30" as="geometry" />
        </mxCell>
        <mxCell id="GXWJZuFiqb-djiV_RVK9-137" value="" style="shape=partialRectangle;connectable=0;fillColor=#fff2cc;top=0;left=0;bottom=0;right=0;editable=1;overflow=hidden;strokeColor=#d6b656;" vertex="1" parent="GXWJZuFiqb-djiV_RVK9-136">
          <mxGeometry width="30" height="30" as="geometry" />
        </mxCell>
        <mxCell id="GXWJZuFiqb-djiV_RVK9-138" value="Payment_type_id" style="shape=partialRectangle;connectable=0;fillColor=#fff2cc;top=0;left=0;bottom=0;right=0;align=left;spacingLeft=6;overflow=hidden;strokeColor=#d6b656;" vertex="1" parent="GXWJZuFiqb-djiV_RVK9-136">
          <mxGeometry x="30" width="107" height="30" as="geometry" />
        </mxCell>
        <mxCell id="GXWJZuFiqb-djiV_RVK9-139" value="" style="shape=partialRectangle;collapsible=0;dropTarget=0;pointerEvents=0;fillColor=#fff2cc;top=0;left=0;bottom=0;right=0;points=[[0,0.5],[1,0.5]];portConstraint=eastwest;strokeColor=#d6b656;" vertex="1" parent="GXWJZuFiqb-djiV_RVK9-132">
          <mxGeometry y="90" width="137" height="30" as="geometry" />
        </mxCell>
        <mxCell id="GXWJZuFiqb-djiV_RVK9-140" value="" style="shape=partialRectangle;connectable=0;fillColor=#fff2cc;top=0;left=0;bottom=0;right=0;editable=1;overflow=hidden;strokeColor=#d6b656;" vertex="1" parent="GXWJZuFiqb-djiV_RVK9-139">
          <mxGeometry width="30" height="30" as="geometry" />
        </mxCell>
        <mxCell id="GXWJZuFiqb-djiV_RVK9-141" value="Payment_account" style="shape=partialRectangle;connectable=0;fillColor=#fff2cc;top=0;left=0;bottom=0;right=0;align=left;spacingLeft=6;overflow=hidden;strokeColor=#d6b656;" vertex="1" parent="GXWJZuFiqb-djiV_RVK9-139">
          <mxGeometry x="30" width="107" height="30" as="geometry" />
        </mxCell>
        <mxCell id="GXWJZuFiqb-djiV_RVK9-142" value="" style="shape=partialRectangle;collapsible=0;dropTarget=0;pointerEvents=0;fillColor=#fff2cc;top=0;left=0;bottom=0;right=0;points=[[0,0.5],[1,0.5]];portConstraint=eastwest;strokeColor=#d6b656;" vertex="1" parent="GXWJZuFiqb-djiV_RVK9-132">
          <mxGeometry y="120" width="137" height="30" as="geometry" />
        </mxCell>
        <mxCell id="GXWJZuFiqb-djiV_RVK9-143" value="" style="shape=partialRectangle;connectable=0;fillColor=#fff2cc;top=0;left=0;bottom=0;right=0;editable=1;overflow=hidden;strokeColor=#d6b656;" vertex="1" parent="GXWJZuFiqb-djiV_RVK9-142">
          <mxGeometry width="30" height="30" as="geometry" />
        </mxCell>
        <mxCell id="GXWJZuFiqb-djiV_RVK9-144" value="Payment_time" style="shape=partialRectangle;connectable=0;fillColor=#fff2cc;top=0;left=0;bottom=0;right=0;align=left;spacingLeft=6;overflow=hidden;strokeColor=#d6b656;" vertex="1" parent="GXWJZuFiqb-djiV_RVK9-142">
          <mxGeometry x="30" width="107" height="30" as="geometry" />
        </mxCell>
        <mxCell id="GXWJZuFiqb-djiV_RVK9-145" value="Payment_type" style="shape=table;startSize=30;container=1;collapsible=1;childLayout=tableLayout;fixedRows=1;rowLines=0;fontStyle=1;align=center;resizeLast=1;fillColor=#fff2cc;strokeColor=#d6b656;" vertex="1" parent="GXWJZuFiqb-djiV_RVK9-1">
          <mxGeometry x="330" y="1160" width="170" height="150" as="geometry" />
        </mxCell>
        <mxCell id="GXWJZuFiqb-djiV_RVK9-146" value="" style="shape=partialRectangle;collapsible=0;dropTarget=0;pointerEvents=0;fillColor=#fff2cc;top=0;left=0;bottom=1;right=0;points=[[0,0.5],[1,0.5]];portConstraint=eastwest;strokeColor=#d6b656;" vertex="1" parent="GXWJZuFiqb-djiV_RVK9-145">
          <mxGeometry y="30" width="170" height="30" as="geometry" />
        </mxCell>
        <mxCell id="GXWJZuFiqb-djiV_RVK9-147" value="PK" style="shape=partialRectangle;connectable=0;fillColor=#fff2cc;top=0;left=0;bottom=0;right=0;fontStyle=1;overflow=hidden;strokeColor=#d6b656;" vertex="1" parent="GXWJZuFiqb-djiV_RVK9-146">
          <mxGeometry width="30" height="30" as="geometry" />
        </mxCell>
        <mxCell id="GXWJZuFiqb-djiV_RVK9-148" value="Payment_type_id" style="shape=partialRectangle;connectable=0;fillColor=#fff2cc;top=0;left=0;bottom=0;right=0;align=left;spacingLeft=6;fontStyle=5;overflow=hidden;strokeColor=#d6b656;" vertex="1" parent="GXWJZuFiqb-djiV_RVK9-146">
          <mxGeometry x="30" width="140" height="30" as="geometry" />
        </mxCell>
        <mxCell id="GXWJZuFiqb-djiV_RVK9-149" value="" style="shape=partialRectangle;collapsible=0;dropTarget=0;pointerEvents=0;fillColor=#fff2cc;top=0;left=0;bottom=0;right=0;points=[[0,0.5],[1,0.5]];portConstraint=eastwest;strokeColor=#d6b656;" vertex="1" parent="GXWJZuFiqb-djiV_RVK9-145">
          <mxGeometry y="60" width="170" height="30" as="geometry" />
        </mxCell>
        <mxCell id="GXWJZuFiqb-djiV_RVK9-150" value="" style="shape=partialRectangle;connectable=0;fillColor=#fff2cc;top=0;left=0;bottom=0;right=0;editable=1;overflow=hidden;strokeColor=#d6b656;" vertex="1" parent="GXWJZuFiqb-djiV_RVK9-149">
          <mxGeometry width="30" height="30" as="geometry" />
        </mxCell>
        <mxCell id="GXWJZuFiqb-djiV_RVK9-151" value="Payment_type_name" style="shape=partialRectangle;connectable=0;fillColor=#fff2cc;top=0;left=0;bottom=0;right=0;align=left;spacingLeft=6;overflow=hidden;strokeColor=#d6b656;" vertex="1" parent="GXWJZuFiqb-djiV_RVK9-149">
          <mxGeometry x="30" width="140" height="30" as="geometry" />
        </mxCell>
        <mxCell id="GXWJZuFiqb-djiV_RVK9-152" value="" style="shape=partialRectangle;collapsible=0;dropTarget=0;pointerEvents=0;fillColor=#fff2cc;top=0;left=0;bottom=0;right=0;points=[[0,0.5],[1,0.5]];portConstraint=eastwest;strokeColor=#d6b656;" vertex="1" parent="GXWJZuFiqb-djiV_RVK9-145">
          <mxGeometry y="90" width="170" height="30" as="geometry" />
        </mxCell>
        <mxCell id="GXWJZuFiqb-djiV_RVK9-153" value="" style="shape=partialRectangle;connectable=0;fillColor=#fff2cc;top=0;left=0;bottom=0;right=0;editable=1;overflow=hidden;strokeColor=#d6b656;" vertex="1" parent="GXWJZuFiqb-djiV_RVK9-152">
          <mxGeometry width="30" height="30" as="geometry" />
        </mxCell>
        <mxCell id="GXWJZuFiqb-djiV_RVK9-154" value="Payment_type_desc" style="shape=partialRectangle;connectable=0;fillColor=#fff2cc;top=0;left=0;bottom=0;right=0;align=left;spacingLeft=6;overflow=hidden;strokeColor=#d6b656;" vertex="1" parent="GXWJZuFiqb-djiV_RVK9-152">
          <mxGeometry x="30" width="140" height="30" as="geometry" />
        </mxCell>
        <mxCell id="GXWJZuFiqb-djiV_RVK9-155" value="" style="shape=partialRectangle;collapsible=0;dropTarget=0;pointerEvents=0;fillColor=#fff2cc;top=0;left=0;bottom=0;right=0;points=[[0,0.5],[1,0.5]];portConstraint=eastwest;strokeColor=#d6b656;" vertex="1" parent="GXWJZuFiqb-djiV_RVK9-145">
          <mxGeometry y="120" width="170" height="30" as="geometry" />
        </mxCell>
        <mxCell id="GXWJZuFiqb-djiV_RVK9-156" value="" style="shape=partialRectangle;connectable=0;fillColor=#fff2cc;top=0;left=0;bottom=0;right=0;editable=1;overflow=hidden;strokeColor=#d6b656;" vertex="1" parent="GXWJZuFiqb-djiV_RVK9-155">
          <mxGeometry width="30" height="30" as="geometry" />
        </mxCell>
        <mxCell id="GXWJZuFiqb-djiV_RVK9-157" value="Create_time" style="shape=partialRectangle;connectable=0;fillColor=#fff2cc;top=0;left=0;bottom=0;right=0;align=left;spacingLeft=6;overflow=hidden;strokeColor=#d6b656;" vertex="1" parent="GXWJZuFiqb-djiV_RVK9-155">
          <mxGeometry x="30" width="140" height="30" as="geometry" />
        </mxCell>
        <mxCell id="GXWJZuFiqb-djiV_RVK9-158" style="edgeStyle=orthogonalEdgeStyle;rounded=0;orthogonalLoop=1;jettySize=auto;html=1;exitX=0;exitY=0.5;exitDx=0;exitDy=0;entryX=1;entryY=0.5;entryDx=0;entryDy=0;fillColor=#fff2cc;strokeColor=#d6b656;" edge="1" parent="GXWJZuFiqb-djiV_RVK9-1" source="GXWJZuFiqb-djiV_RVK9-146" target="GXWJZuFiqb-djiV_RVK9-132">
          <mxGeometry relative="1" as="geometry" />
        </mxCell>
        <mxCell id="GXWJZuFiqb-djiV_RVK9-159" value="Notification" style="shape=table;startSize=30;container=1;collapsible=1;childLayout=tableLayout;fixedRows=1;rowLines=0;fontStyle=1;align=center;resizeLast=1;fillColor=#ffe6cc;strokeColor=#d79b00;" vertex="1" parent="GXWJZuFiqb-djiV_RVK9-1">
          <mxGeometry x="90" y="910" width="160" height="240" as="geometry" />
        </mxCell>
        <mxCell id="GXWJZuFiqb-djiV_RVK9-160" value="" style="shape=partialRectangle;collapsible=0;dropTarget=0;pointerEvents=0;fillColor=#ffe6cc;top=0;left=0;bottom=1;right=0;points=[[0,0.5],[1,0.5]];portConstraint=eastwest;strokeColor=#d79b00;" vertex="1" parent="GXWJZuFiqb-djiV_RVK9-159">
          <mxGeometry y="30" width="160" height="30" as="geometry" />
        </mxCell>
        <mxCell id="GXWJZuFiqb-djiV_RVK9-161" value="PK" style="shape=partialRectangle;connectable=0;fillColor=#ffe6cc;top=0;left=0;bottom=0;right=0;fontStyle=1;overflow=hidden;strokeColor=#d79b00;" vertex="1" parent="GXWJZuFiqb-djiV_RVK9-160">
          <mxGeometry width="30" height="30" as="geometry" />
        </mxCell>
        <mxCell id="GXWJZuFiqb-djiV_RVK9-162" value="Notification_id" style="shape=partialRectangle;connectable=0;fillColor=#ffe6cc;top=0;left=0;bottom=0;right=0;align=left;spacingLeft=6;fontStyle=5;overflow=hidden;strokeColor=#d79b00;" vertex="1" parent="GXWJZuFiqb-djiV_RVK9-160">
          <mxGeometry x="30" width="130" height="30" as="geometry" />
        </mxCell>
        <mxCell id="GXWJZuFiqb-djiV_RVK9-163" value="" style="shape=partialRectangle;collapsible=0;dropTarget=0;pointerEvents=0;fillColor=#ffe6cc;top=0;left=0;bottom=0;right=0;points=[[0,0.5],[1,0.5]];portConstraint=eastwest;strokeColor=#d79b00;" vertex="1" parent="GXWJZuFiqb-djiV_RVK9-159">
          <mxGeometry y="60" width="160" height="30" as="geometry" />
        </mxCell>
        <mxCell id="GXWJZuFiqb-djiV_RVK9-164" value="" style="shape=partialRectangle;connectable=0;fillColor=#ffe6cc;top=0;left=0;bottom=0;right=0;editable=1;overflow=hidden;strokeColor=#d79b00;" vertex="1" parent="GXWJZuFiqb-djiV_RVK9-163">
          <mxGeometry width="30" height="30" as="geometry" />
        </mxCell>
        <mxCell id="GXWJZuFiqb-djiV_RVK9-165" value="Notification_type" style="shape=partialRectangle;connectable=0;fillColor=#ffe6cc;top=0;left=0;bottom=0;right=0;align=left;spacingLeft=6;overflow=hidden;strokeColor=#d79b00;" vertex="1" parent="GXWJZuFiqb-djiV_RVK9-163">
          <mxGeometry x="30" width="130" height="30" as="geometry" />
        </mxCell>
        <mxCell id="GXWJZuFiqb-djiV_RVK9-166" value="" style="shape=partialRectangle;collapsible=0;dropTarget=0;pointerEvents=0;fillColor=#ffe6cc;top=0;left=0;bottom=0;right=0;points=[[0,0.5],[1,0.5]];portConstraint=eastwest;strokeColor=#d79b00;" vertex="1" parent="GXWJZuFiqb-djiV_RVK9-159">
          <mxGeometry y="90" width="160" height="30" as="geometry" />
        </mxCell>
        <mxCell id="GXWJZuFiqb-djiV_RVK9-167" value="" style="shape=partialRectangle;connectable=0;fillColor=#ffe6cc;top=0;left=0;bottom=0;right=0;editable=1;overflow=hidden;strokeColor=#d79b00;" vertex="1" parent="GXWJZuFiqb-djiV_RVK9-166">
          <mxGeometry width="30" height="30" as="geometry" />
        </mxCell>
        <mxCell id="GXWJZuFiqb-djiV_RVK9-168" value="From_user_id" style="shape=partialRectangle;connectable=0;fillColor=#ffe6cc;top=0;left=0;bottom=0;right=0;align=left;spacingLeft=6;overflow=hidden;strokeColor=#d79b00;" vertex="1" parent="GXWJZuFiqb-djiV_RVK9-166">
          <mxGeometry x="30" width="130" height="30" as="geometry" />
        </mxCell>
        <mxCell id="GXWJZuFiqb-djiV_RVK9-169" value="" style="shape=partialRectangle;collapsible=0;dropTarget=0;pointerEvents=0;fillColor=#ffe6cc;top=0;left=0;bottom=0;right=0;points=[[0,0.5],[1,0.5]];portConstraint=eastwest;strokeColor=#d79b00;" vertex="1" parent="GXWJZuFiqb-djiV_RVK9-159">
          <mxGeometry y="120" width="160" height="30" as="geometry" />
        </mxCell>
        <mxCell id="GXWJZuFiqb-djiV_RVK9-170" value="" style="shape=partialRectangle;connectable=0;fillColor=#ffe6cc;top=0;left=0;bottom=0;right=0;editable=1;overflow=hidden;strokeColor=#d79b00;" vertex="1" parent="GXWJZuFiqb-djiV_RVK9-169">
          <mxGeometry width="30" height="30" as="geometry" />
        </mxCell>
        <mxCell id="GXWJZuFiqb-djiV_RVK9-171" value="To_user_id" style="shape=partialRectangle;connectable=0;fillColor=#ffe6cc;top=0;left=0;bottom=0;right=0;align=left;spacingLeft=6;overflow=hidden;strokeColor=#d79b00;" vertex="1" parent="GXWJZuFiqb-djiV_RVK9-169">
          <mxGeometry x="30" width="130" height="30" as="geometry" />
        </mxCell>
        <mxCell id="GXWJZuFiqb-djiV_RVK9-172" value="" style="shape=partialRectangle;collapsible=0;dropTarget=0;pointerEvents=0;fillColor=#ffe6cc;top=0;left=0;bottom=0;right=0;points=[[0,0.5],[1,0.5]];portConstraint=eastwest;strokeColor=#d79b00;" vertex="1" parent="GXWJZuFiqb-djiV_RVK9-159">
          <mxGeometry y="150" width="160" height="30" as="geometry" />
        </mxCell>
        <mxCell id="GXWJZuFiqb-djiV_RVK9-173" value="" style="shape=partialRectangle;connectable=0;fillColor=#ffe6cc;top=0;left=0;bottom=0;right=0;editable=1;overflow=hidden;strokeColor=#d79b00;" vertex="1" parent="GXWJZuFiqb-djiV_RVK9-172">
          <mxGeometry width="30" height="30" as="geometry" />
        </mxCell>
        <mxCell id="GXWJZuFiqb-djiV_RVK9-174" value="Notification_title" style="shape=partialRectangle;connectable=0;fillColor=#ffe6cc;top=0;left=0;bottom=0;right=0;align=left;spacingLeft=6;overflow=hidden;strokeColor=#d79b00;" vertex="1" parent="GXWJZuFiqb-djiV_RVK9-172">
          <mxGeometry x="30" width="130" height="30" as="geometry" />
        </mxCell>
        <mxCell id="GXWJZuFiqb-djiV_RVK9-175" value="" style="shape=partialRectangle;collapsible=0;dropTarget=0;pointerEvents=0;fillColor=#ffe6cc;top=0;left=0;bottom=0;right=0;points=[[0,0.5],[1,0.5]];portConstraint=eastwest;strokeColor=#d79b00;" vertex="1" parent="GXWJZuFiqb-djiV_RVK9-159">
          <mxGeometry y="180" width="160" height="30" as="geometry" />
        </mxCell>
        <mxCell id="GXWJZuFiqb-djiV_RVK9-176" value="" style="shape=partialRectangle;connectable=0;fillColor=#ffe6cc;top=0;left=0;bottom=0;right=0;editable=1;overflow=hidden;strokeColor=#d79b00;" vertex="1" parent="GXWJZuFiqb-djiV_RVK9-175">
          <mxGeometry width="30" height="30" as="geometry" />
        </mxCell>
        <mxCell id="GXWJZuFiqb-djiV_RVK9-177" value="Notification_message" style="shape=partialRectangle;connectable=0;fillColor=#ffe6cc;top=0;left=0;bottom=0;right=0;align=left;spacingLeft=6;overflow=hidden;strokeColor=#d79b00;" vertex="1" parent="GXWJZuFiqb-djiV_RVK9-175">
          <mxGeometry x="30" width="130" height="30" as="geometry" />
        </mxCell>
        <mxCell id="GXWJZuFiqb-djiV_RVK9-178" value="" style="shape=partialRectangle;collapsible=0;dropTarget=0;pointerEvents=0;fillColor=#ffe6cc;top=0;left=0;bottom=0;right=0;points=[[0,0.5],[1,0.5]];portConstraint=eastwest;strokeColor=#d79b00;" vertex="1" parent="GXWJZuFiqb-djiV_RVK9-159">
          <mxGeometry y="210" width="160" height="30" as="geometry" />
        </mxCell>
        <mxCell id="GXWJZuFiqb-djiV_RVK9-179" value="" style="shape=partialRectangle;connectable=0;fillColor=#ffe6cc;top=0;left=0;bottom=0;right=0;editable=1;overflow=hidden;strokeColor=#d79b00;" vertex="1" parent="GXWJZuFiqb-djiV_RVK9-178">
          <mxGeometry width="30" height="30" as="geometry" />
        </mxCell>
        <mxCell id="GXWJZuFiqb-djiV_RVK9-180" value="Notification_time" style="shape=partialRectangle;connectable=0;fillColor=#ffe6cc;top=0;left=0;bottom=0;right=0;align=left;spacingLeft=6;overflow=hidden;strokeColor=#d79b00;" vertex="1" parent="GXWJZuFiqb-djiV_RVK9-178">
          <mxGeometry x="30" width="130" height="30" as="geometry" />
        </mxCell>
        <mxCell id="GXWJZuFiqb-djiV_RVK9-181" value="Transaction" style="shape=table;startSize=30;container=1;collapsible=1;childLayout=tableLayout;fixedRows=1;rowLines=0;fontStyle=1;align=center;resizeLast=1;fillColor=#008a00;strokeColor=#005700;fontColor=#ffffff;" vertex="1" parent="GXWJZuFiqb-djiV_RVK9-1">
          <mxGeometry x="550" y="950" width="160" height="240" as="geometry" />
        </mxCell>
        <mxCell id="GXWJZuFiqb-djiV_RVK9-182" value="" style="shape=partialRectangle;collapsible=0;dropTarget=0;pointerEvents=0;fillColor=#008a00;top=0;left=0;bottom=1;right=0;points=[[0,0.5],[1,0.5]];portConstraint=eastwest;strokeColor=#005700;fontColor=#ffffff;" vertex="1" parent="GXWJZuFiqb-djiV_RVK9-181">
          <mxGeometry y="30" width="160" height="30" as="geometry" />
        </mxCell>
        <mxCell id="GXWJZuFiqb-djiV_RVK9-183" value="PK" style="shape=partialRectangle;connectable=0;fillColor=#008a00;top=0;left=0;bottom=0;right=0;fontStyle=1;overflow=hidden;strokeColor=#005700;fontColor=#ffffff;" vertex="1" parent="GXWJZuFiqb-djiV_RVK9-182">
          <mxGeometry width="30" height="30" as="geometry" />
        </mxCell>
        <mxCell id="GXWJZuFiqb-djiV_RVK9-184" value="Transaction_id" style="shape=partialRectangle;connectable=0;fillColor=#008a00;top=0;left=0;bottom=0;right=0;align=left;spacingLeft=6;fontStyle=5;overflow=hidden;strokeColor=#005700;fontColor=#ffffff;" vertex="1" parent="GXWJZuFiqb-djiV_RVK9-182">
          <mxGeometry x="30" width="130" height="30" as="geometry" />
        </mxCell>
        <mxCell id="GXWJZuFiqb-djiV_RVK9-185" value="" style="shape=partialRectangle;collapsible=0;dropTarget=0;pointerEvents=0;fillColor=#008a00;top=0;left=0;bottom=0;right=0;points=[[0,0.5],[1,0.5]];portConstraint=eastwest;strokeColor=#005700;fontColor=#ffffff;" vertex="1" parent="GXWJZuFiqb-djiV_RVK9-181">
          <mxGeometry y="60" width="160" height="30" as="geometry" />
        </mxCell>
        <mxCell id="GXWJZuFiqb-djiV_RVK9-186" value="" style="shape=partialRectangle;connectable=0;fillColor=#008a00;top=0;left=0;bottom=0;right=0;editable=1;overflow=hidden;strokeColor=#005700;fontColor=#ffffff;" vertex="1" parent="GXWJZuFiqb-djiV_RVK9-185">
          <mxGeometry width="30" height="30" as="geometry" />
        </mxCell>
        <mxCell id="GXWJZuFiqb-djiV_RVK9-187" value="User_id" style="shape=partialRectangle;connectable=0;fillColor=#008a00;top=0;left=0;bottom=0;right=0;align=left;spacingLeft=6;overflow=hidden;strokeColor=#005700;fontColor=#ffffff;" vertex="1" parent="GXWJZuFiqb-djiV_RVK9-185">
          <mxGeometry x="30" width="130" height="30" as="geometry" />
        </mxCell>
        <mxCell id="GXWJZuFiqb-djiV_RVK9-188" value="" style="shape=partialRectangle;collapsible=0;dropTarget=0;pointerEvents=0;fillColor=#008a00;top=0;left=0;bottom=0;right=0;points=[[0,0.5],[1,0.5]];portConstraint=eastwest;strokeColor=#005700;fontColor=#ffffff;" vertex="1" parent="GXWJZuFiqb-djiV_RVK9-181">
          <mxGeometry y="90" width="160" height="30" as="geometry" />
        </mxCell>
        <mxCell id="GXWJZuFiqb-djiV_RVK9-189" value="" style="shape=partialRectangle;connectable=0;fillColor=#008a00;top=0;left=0;bottom=0;right=0;editable=1;overflow=hidden;strokeColor=#005700;fontColor=#ffffff;" vertex="1" parent="GXWJZuFiqb-djiV_RVK9-188">
          <mxGeometry width="30" height="30" as="geometry" />
        </mxCell>
        <mxCell id="GXWJZuFiqb-djiV_RVK9-190" value="Device_id" style="shape=partialRectangle;connectable=0;fillColor=#008a00;top=0;left=0;bottom=0;right=0;align=left;spacingLeft=6;overflow=hidden;strokeColor=#005700;fontColor=#ffffff;" vertex="1" parent="GXWJZuFiqb-djiV_RVK9-188">
          <mxGeometry x="30" width="130" height="30" as="geometry" />
        </mxCell>
        <mxCell id="GXWJZuFiqb-djiV_RVK9-191" value="" style="shape=partialRectangle;collapsible=0;dropTarget=0;pointerEvents=0;fillColor=#008a00;top=0;left=0;bottom=0;right=0;points=[[0,0.5],[1,0.5]];portConstraint=eastwest;strokeColor=#005700;fontColor=#ffffff;" vertex="1" parent="GXWJZuFiqb-djiV_RVK9-181">
          <mxGeometry y="120" width="160" height="30" as="geometry" />
        </mxCell>
        <mxCell id="GXWJZuFiqb-djiV_RVK9-192" value="" style="shape=partialRectangle;connectable=0;fillColor=#008a00;top=0;left=0;bottom=0;right=0;editable=1;overflow=hidden;strokeColor=#005700;fontColor=#ffffff;" vertex="1" parent="GXWJZuFiqb-djiV_RVK9-191">
          <mxGeometry width="30" height="30" as="geometry" />
        </mxCell>
        <mxCell id="GXWJZuFiqb-djiV_RVK9-193" value="Tran_location_id" style="shape=partialRectangle;connectable=0;fillColor=#008a00;top=0;left=0;bottom=0;right=0;align=left;spacingLeft=6;overflow=hidden;strokeColor=#005700;fontColor=#ffffff;" vertex="1" parent="GXWJZuFiqb-djiV_RVK9-191">
          <mxGeometry x="30" width="130" height="30" as="geometry" />
        </mxCell>
        <mxCell id="GXWJZuFiqb-djiV_RVK9-194" value="" style="shape=partialRectangle;collapsible=0;dropTarget=0;pointerEvents=0;fillColor=#008a00;top=0;left=0;bottom=0;right=0;points=[[0,0.5],[1,0.5]];portConstraint=eastwest;strokeColor=#005700;fontColor=#ffffff;" vertex="1" parent="GXWJZuFiqb-djiV_RVK9-181">
          <mxGeometry y="150" width="160" height="30" as="geometry" />
        </mxCell>
        <mxCell id="GXWJZuFiqb-djiV_RVK9-195" value="" style="shape=partialRectangle;connectable=0;fillColor=#008a00;top=0;left=0;bottom=0;right=0;editable=1;overflow=hidden;strokeColor=#005700;fontColor=#ffffff;" vertex="1" parent="GXWJZuFiqb-djiV_RVK9-194">
          <mxGeometry width="30" height="30" as="geometry" />
        </mxCell>
        <mxCell id="GXWJZuFiqb-djiV_RVK9-196" value="Payment_id" style="shape=partialRectangle;connectable=0;fillColor=#008a00;top=0;left=0;bottom=0;right=0;align=left;spacingLeft=6;overflow=hidden;strokeColor=#005700;fontColor=#ffffff;" vertex="1" parent="GXWJZuFiqb-djiV_RVK9-194">
          <mxGeometry x="30" width="130" height="30" as="geometry" />
        </mxCell>
        <mxCell id="GXWJZuFiqb-djiV_RVK9-197" value="" style="shape=partialRectangle;collapsible=0;dropTarget=0;pointerEvents=0;fillColor=#008a00;top=0;left=0;bottom=0;right=0;points=[[0,0.5],[1,0.5]];portConstraint=eastwest;strokeColor=#005700;fontColor=#ffffff;" vertex="1" parent="GXWJZuFiqb-djiV_RVK9-181">
          <mxGeometry y="180" width="160" height="30" as="geometry" />
        </mxCell>
        <mxCell id="GXWJZuFiqb-djiV_RVK9-198" value="" style="shape=partialRectangle;connectable=0;fillColor=#008a00;top=0;left=0;bottom=0;right=0;editable=1;overflow=hidden;strokeColor=#005700;fontColor=#ffffff;" vertex="1" parent="GXWJZuFiqb-djiV_RVK9-197">
          <mxGeometry width="30" height="30" as="geometry" />
        </mxCell>
        <mxCell id="GXWJZuFiqb-djiV_RVK9-199" value="Usage_time" style="shape=partialRectangle;connectable=0;fillColor=#008a00;top=0;left=0;bottom=0;right=0;align=left;spacingLeft=6;overflow=hidden;strokeColor=#005700;fontColor=#ffffff;" vertex="1" parent="GXWJZuFiqb-djiV_RVK9-197">
          <mxGeometry x="30" width="130" height="30" as="geometry" />
        </mxCell>
        <mxCell id="GXWJZuFiqb-djiV_RVK9-200" value="" style="shape=partialRectangle;collapsible=0;dropTarget=0;pointerEvents=0;fillColor=#008a00;top=0;left=0;bottom=0;right=0;points=[[0,0.5],[1,0.5]];portConstraint=eastwest;strokeColor=#005700;fontColor=#ffffff;" vertex="1" parent="GXWJZuFiqb-djiV_RVK9-181">
          <mxGeometry y="210" width="160" height="30" as="geometry" />
        </mxCell>
        <mxCell id="GXWJZuFiqb-djiV_RVK9-201" value="" style="shape=partialRectangle;connectable=0;fillColor=#008a00;top=0;left=0;bottom=0;right=0;editable=1;overflow=hidden;strokeColor=#005700;fontColor=#ffffff;" vertex="1" parent="GXWJZuFiqb-djiV_RVK9-200">
          <mxGeometry width="30" height="30" as="geometry" />
        </mxCell>
        <mxCell id="GXWJZuFiqb-djiV_RVK9-202" value="Score" style="shape=partialRectangle;connectable=0;fillColor=#008a00;top=0;left=0;bottom=0;right=0;align=left;spacingLeft=6;overflow=hidden;strokeColor=#005700;fontColor=#ffffff;" vertex="1" parent="GXWJZuFiqb-djiV_RVK9-200">
          <mxGeometry x="30" width="130" height="30" as="geometry" />
        </mxCell>
        <mxCell id="GXWJZuFiqb-djiV_RVK9-203" value="Tran_location" style="shape=table;startSize=30;container=1;collapsible=1;childLayout=tableLayout;fixedRows=1;rowLines=0;fontStyle=1;align=center;resizeLast=1;fillColor=#647687;strokeColor=#314354;fontColor=#ffffff;" vertex="1" parent="GXWJZuFiqb-djiV_RVK9-1">
          <mxGeometry x="780" y="960" width="160" height="240" as="geometry" />
        </mxCell>
        <mxCell id="GXWJZuFiqb-djiV_RVK9-204" value="" style="shape=partialRectangle;collapsible=0;dropTarget=0;pointerEvents=0;fillColor=#647687;top=0;left=0;bottom=1;right=0;points=[[0,0.5],[1,0.5]];portConstraint=eastwest;strokeColor=#314354;fontColor=#ffffff;" vertex="1" parent="GXWJZuFiqb-djiV_RVK9-203">
          <mxGeometry y="30" width="160" height="30" as="geometry" />
        </mxCell>
        <mxCell id="GXWJZuFiqb-djiV_RVK9-205" value="PK" style="shape=partialRectangle;connectable=0;fillColor=#647687;top=0;left=0;bottom=0;right=0;fontStyle=1;overflow=hidden;strokeColor=#314354;fontColor=#ffffff;" vertex="1" parent="GXWJZuFiqb-djiV_RVK9-204">
          <mxGeometry width="30" height="30" as="geometry" />
        </mxCell>
        <mxCell id="GXWJZuFiqb-djiV_RVK9-206" value="Tran_location_id" style="shape=partialRectangle;connectable=0;fillColor=#647687;top=0;left=0;bottom=0;right=0;align=left;spacingLeft=6;fontStyle=5;overflow=hidden;strokeColor=#314354;fontColor=#ffffff;" vertex="1" parent="GXWJZuFiqb-djiV_RVK9-204">
          <mxGeometry x="30" width="130" height="30" as="geometry" />
        </mxCell>
        <mxCell id="GXWJZuFiqb-djiV_RVK9-207" value="" style="shape=partialRectangle;collapsible=0;dropTarget=0;pointerEvents=0;fillColor=#647687;top=0;left=0;bottom=0;right=0;points=[[0,0.5],[1,0.5]];portConstraint=eastwest;strokeColor=#314354;fontColor=#ffffff;" vertex="1" parent="GXWJZuFiqb-djiV_RVK9-203">
          <mxGeometry y="60" width="160" height="30" as="geometry" />
        </mxCell>
        <mxCell id="GXWJZuFiqb-djiV_RVK9-208" value="" style="shape=partialRectangle;connectable=0;fillColor=#647687;top=0;left=0;bottom=0;right=0;editable=1;overflow=hidden;strokeColor=#314354;fontColor=#ffffff;" vertex="1" parent="GXWJZuFiqb-djiV_RVK9-207">
          <mxGeometry width="30" height="30" as="geometry" />
        </mxCell>
        <mxCell id="GXWJZuFiqb-djiV_RVK9-209" value="Plan_from_location" style="shape=partialRectangle;connectable=0;fillColor=#647687;top=0;left=0;bottom=0;right=0;align=left;spacingLeft=6;overflow=hidden;strokeColor=#314354;fontColor=#ffffff;" vertex="1" parent="GXWJZuFiqb-djiV_RVK9-207">
          <mxGeometry x="30" width="130" height="30" as="geometry" />
        </mxCell>
        <mxCell id="GXWJZuFiqb-djiV_RVK9-210" value="" style="shape=partialRectangle;collapsible=0;dropTarget=0;pointerEvents=0;fillColor=#647687;top=0;left=0;bottom=0;right=0;points=[[0,0.5],[1,0.5]];portConstraint=eastwest;strokeColor=#314354;fontColor=#ffffff;" vertex="1" parent="GXWJZuFiqb-djiV_RVK9-203">
          <mxGeometry y="90" width="160" height="30" as="geometry" />
        </mxCell>
        <mxCell id="GXWJZuFiqb-djiV_RVK9-211" value="" style="shape=partialRectangle;connectable=0;fillColor=#647687;top=0;left=0;bottom=0;right=0;editable=1;overflow=hidden;strokeColor=#314354;fontColor=#ffffff;" vertex="1" parent="GXWJZuFiqb-djiV_RVK9-210">
          <mxGeometry width="30" height="30" as="geometry" />
        </mxCell>
        <mxCell id="GXWJZuFiqb-djiV_RVK9-212" value="Plan_to_location" style="shape=partialRectangle;connectable=0;fillColor=#647687;top=0;left=0;bottom=0;right=0;align=left;spacingLeft=6;overflow=hidden;strokeColor=#314354;fontColor=#ffffff;" vertex="1" parent="GXWJZuFiqb-djiV_RVK9-210">
          <mxGeometry x="30" width="130" height="30" as="geometry" />
        </mxCell>
        <mxCell id="GXWJZuFiqb-djiV_RVK9-213" value="" style="shape=partialRectangle;collapsible=0;dropTarget=0;pointerEvents=0;fillColor=#647687;top=0;left=0;bottom=0;right=0;points=[[0,0.5],[1,0.5]];portConstraint=eastwest;strokeColor=#314354;fontColor=#ffffff;" vertex="1" parent="GXWJZuFiqb-djiV_RVK9-203">
          <mxGeometry y="120" width="160" height="30" as="geometry" />
        </mxCell>
        <mxCell id="GXWJZuFiqb-djiV_RVK9-214" value="" style="shape=partialRectangle;connectable=0;fillColor=#647687;top=0;left=0;bottom=0;right=0;editable=1;overflow=hidden;strokeColor=#314354;fontColor=#ffffff;" vertex="1" parent="GXWJZuFiqb-djiV_RVK9-213">
          <mxGeometry width="30" height="30" as="geometry" />
        </mxCell>
        <mxCell id="GXWJZuFiqb-djiV_RVK9-215" value="Plan_time" style="shape=partialRectangle;connectable=0;fillColor=#647687;top=0;left=0;bottom=0;right=0;align=left;spacingLeft=6;overflow=hidden;strokeColor=#314354;fontColor=#ffffff;" vertex="1" parent="GXWJZuFiqb-djiV_RVK9-213">
          <mxGeometry x="30" width="130" height="30" as="geometry" />
        </mxCell>
        <mxCell id="GXWJZuFiqb-djiV_RVK9-216" value="" style="shape=partialRectangle;collapsible=0;dropTarget=0;pointerEvents=0;fillColor=#647687;top=0;left=0;bottom=0;right=0;points=[[0,0.5],[1,0.5]];portConstraint=eastwest;strokeColor=#314354;fontColor=#ffffff;" vertex="1" parent="GXWJZuFiqb-djiV_RVK9-203">
          <mxGeometry y="150" width="160" height="30" as="geometry" />
        </mxCell>
        <mxCell id="GXWJZuFiqb-djiV_RVK9-217" value="" style="shape=partialRectangle;connectable=0;fillColor=#647687;top=0;left=0;bottom=0;right=0;editable=1;overflow=hidden;strokeColor=#314354;fontColor=#ffffff;" vertex="1" parent="GXWJZuFiqb-djiV_RVK9-216">
          <mxGeometry width="30" height="30" as="geometry" />
        </mxCell>
        <mxCell id="GXWJZuFiqb-djiV_RVK9-218" value="Actual_from_location" style="shape=partialRectangle;connectable=0;fillColor=#647687;top=0;left=0;bottom=0;right=0;align=left;spacingLeft=6;overflow=hidden;strokeColor=#314354;fontColor=#ffffff;" vertex="1" parent="GXWJZuFiqb-djiV_RVK9-216">
          <mxGeometry x="30" width="130" height="30" as="geometry" />
        </mxCell>
        <mxCell id="GXWJZuFiqb-djiV_RVK9-219" value="" style="shape=partialRectangle;collapsible=0;dropTarget=0;pointerEvents=0;fillColor=#647687;top=0;left=0;bottom=0;right=0;points=[[0,0.5],[1,0.5]];portConstraint=eastwest;strokeColor=#314354;fontColor=#ffffff;" vertex="1" parent="GXWJZuFiqb-djiV_RVK9-203">
          <mxGeometry y="180" width="160" height="30" as="geometry" />
        </mxCell>
        <mxCell id="GXWJZuFiqb-djiV_RVK9-220" value="" style="shape=partialRectangle;connectable=0;fillColor=#647687;top=0;left=0;bottom=0;right=0;editable=1;overflow=hidden;strokeColor=#314354;fontColor=#ffffff;" vertex="1" parent="GXWJZuFiqb-djiV_RVK9-219">
          <mxGeometry width="30" height="30" as="geometry" />
        </mxCell>
        <mxCell id="GXWJZuFiqb-djiV_RVK9-221" value="Actual_to_location" style="shape=partialRectangle;connectable=0;fillColor=#647687;top=0;left=0;bottom=0;right=0;align=left;spacingLeft=6;overflow=hidden;strokeColor=#314354;fontColor=#ffffff;" vertex="1" parent="GXWJZuFiqb-djiV_RVK9-219">
          <mxGeometry x="30" width="130" height="30" as="geometry" />
        </mxCell>
        <mxCell id="GXWJZuFiqb-djiV_RVK9-222" value="" style="shape=partialRectangle;collapsible=0;dropTarget=0;pointerEvents=0;fillColor=#647687;top=0;left=0;bottom=0;right=0;points=[[0,0.5],[1,0.5]];portConstraint=eastwest;strokeColor=#314354;fontColor=#ffffff;" vertex="1" parent="GXWJZuFiqb-djiV_RVK9-203">
          <mxGeometry y="210" width="160" height="30" as="geometry" />
        </mxCell>
        <mxCell id="GXWJZuFiqb-djiV_RVK9-223" value="" style="shape=partialRectangle;connectable=0;fillColor=#647687;top=0;left=0;bottom=0;right=0;editable=1;overflow=hidden;strokeColor=#314354;fontColor=#ffffff;" vertex="1" parent="GXWJZuFiqb-djiV_RVK9-222">
          <mxGeometry width="30" height="30" as="geometry" />
        </mxCell>
        <mxCell id="GXWJZuFiqb-djiV_RVK9-224" value="Actual_time" style="shape=partialRectangle;connectable=0;fillColor=#647687;top=0;left=0;bottom=0;right=0;align=left;spacingLeft=6;overflow=hidden;strokeColor=#314354;fontColor=#ffffff;" vertex="1" parent="GXWJZuFiqb-djiV_RVK9-222">
          <mxGeometry x="30" width="130" height="30" as="geometry" />
        </mxCell>
        <mxCell id="GXWJZuFiqb-djiV_RVK9-225" value="Location" style="shape=table;startSize=30;container=1;collapsible=1;childLayout=tableLayout;fixedRows=1;rowLines=0;fontStyle=1;align=center;resizeLast=1;fillColor=#647687;strokeColor=#314354;fontColor=#ffffff;" vertex="1" parent="GXWJZuFiqb-djiV_RVK9-1">
          <mxGeometry x="975" y="960" width="160" height="250" as="geometry" />
        </mxCell>
        <mxCell id="GXWJZuFiqb-djiV_RVK9-226" value="" style="shape=partialRectangle;collapsible=0;dropTarget=0;pointerEvents=0;fillColor=#647687;top=0;left=0;bottom=1;right=0;points=[[0,0.5],[1,0.5]];portConstraint=eastwest;strokeColor=#314354;fontColor=#ffffff;" vertex="1" parent="GXWJZuFiqb-djiV_RVK9-225">
          <mxGeometry y="30" width="160" height="40" as="geometry" />
        </mxCell>
        <mxCell id="GXWJZuFiqb-djiV_RVK9-227" value="PK" style="shape=partialRectangle;connectable=0;fillColor=#647687;top=0;left=0;bottom=0;right=0;fontStyle=1;overflow=hidden;strokeColor=#314354;fontColor=#ffffff;" vertex="1" parent="GXWJZuFiqb-djiV_RVK9-226">
          <mxGeometry width="30" height="40" as="geometry" />
        </mxCell>
        <mxCell id="GXWJZuFiqb-djiV_RVK9-228" value="Location_id" style="shape=partialRectangle;connectable=0;fillColor=#647687;top=0;left=0;bottom=0;right=0;align=left;spacingLeft=6;fontStyle=5;overflow=hidden;strokeColor=#314354;fontColor=#ffffff;" vertex="1" parent="GXWJZuFiqb-djiV_RVK9-226">
          <mxGeometry x="30" width="130" height="40" as="geometry" />
        </mxCell>
        <mxCell id="GXWJZuFiqb-djiV_RVK9-229" value="" style="shape=partialRectangle;collapsible=0;dropTarget=0;pointerEvents=0;fillColor=#647687;top=0;left=0;bottom=0;right=0;points=[[0,0.5],[1,0.5]];portConstraint=eastwest;strokeColor=#314354;fontColor=#ffffff;" vertex="1" parent="GXWJZuFiqb-djiV_RVK9-225">
          <mxGeometry y="70" width="160" height="30" as="geometry" />
        </mxCell>
        <mxCell id="GXWJZuFiqb-djiV_RVK9-230" value="" style="shape=partialRectangle;connectable=0;fillColor=#647687;top=0;left=0;bottom=0;right=0;editable=1;overflow=hidden;strokeColor=#314354;fontColor=#ffffff;" vertex="1" parent="GXWJZuFiqb-djiV_RVK9-229">
          <mxGeometry width="30" height="30" as="geometry" />
        </mxCell>
        <mxCell id="GXWJZuFiqb-djiV_RVK9-231" value="Location_type" style="shape=partialRectangle;connectable=0;fillColor=#647687;top=0;left=0;bottom=0;right=0;align=left;spacingLeft=6;overflow=hidden;strokeColor=#314354;fontColor=#ffffff;" vertex="1" parent="GXWJZuFiqb-djiV_RVK9-229">
          <mxGeometry x="30" width="130" height="30" as="geometry" />
        </mxCell>
        <mxCell id="GXWJZuFiqb-djiV_RVK9-232" value="" style="shape=partialRectangle;collapsible=0;dropTarget=0;pointerEvents=0;fillColor=#647687;top=0;left=0;bottom=0;right=0;points=[[0,0.5],[1,0.5]];portConstraint=eastwest;strokeColor=#314354;fontColor=#ffffff;" vertex="1" parent="GXWJZuFiqb-djiV_RVK9-225">
          <mxGeometry y="100" width="160" height="30" as="geometry" />
        </mxCell>
        <mxCell id="GXWJZuFiqb-djiV_RVK9-233" value="" style="shape=partialRectangle;connectable=0;fillColor=#647687;top=0;left=0;bottom=0;right=0;editable=1;overflow=hidden;strokeColor=#314354;fontColor=#ffffff;" vertex="1" parent="GXWJZuFiqb-djiV_RVK9-232">
          <mxGeometry width="30" height="30" as="geometry" />
        </mxCell>
        <mxCell id="GXWJZuFiqb-djiV_RVK9-234" value="Country" style="shape=partialRectangle;connectable=0;fillColor=#647687;top=0;left=0;bottom=0;right=0;align=left;spacingLeft=6;overflow=hidden;strokeColor=#314354;fontColor=#ffffff;" vertex="1" parent="GXWJZuFiqb-djiV_RVK9-232">
          <mxGeometry x="30" width="130" height="30" as="geometry" />
        </mxCell>
        <mxCell id="GXWJZuFiqb-djiV_RVK9-235" value="" style="shape=partialRectangle;collapsible=0;dropTarget=0;pointerEvents=0;fillColor=#647687;top=0;left=0;bottom=0;right=0;points=[[0,0.5],[1,0.5]];portConstraint=eastwest;strokeColor=#314354;fontColor=#ffffff;" vertex="1" parent="GXWJZuFiqb-djiV_RVK9-225">
          <mxGeometry y="130" width="160" height="30" as="geometry" />
        </mxCell>
        <mxCell id="GXWJZuFiqb-djiV_RVK9-236" value="" style="shape=partialRectangle;connectable=0;fillColor=#647687;top=0;left=0;bottom=0;right=0;editable=1;overflow=hidden;strokeColor=#314354;fontColor=#ffffff;" vertex="1" parent="GXWJZuFiqb-djiV_RVK9-235">
          <mxGeometry width="30" height="30" as="geometry" />
        </mxCell>
        <mxCell id="GXWJZuFiqb-djiV_RVK9-237" value="Province" style="shape=partialRectangle;connectable=0;fillColor=#647687;top=0;left=0;bottom=0;right=0;align=left;spacingLeft=6;overflow=hidden;strokeColor=#314354;fontColor=#ffffff;" vertex="1" parent="GXWJZuFiqb-djiV_RVK9-235">
          <mxGeometry x="30" width="130" height="30" as="geometry" />
        </mxCell>
        <mxCell id="GXWJZuFiqb-djiV_RVK9-238" value="" style="shape=partialRectangle;collapsible=0;dropTarget=0;pointerEvents=0;fillColor=#647687;top=0;left=0;bottom=0;right=0;points=[[0,0.5],[1,0.5]];portConstraint=eastwest;strokeColor=#314354;fontColor=#ffffff;" vertex="1" parent="GXWJZuFiqb-djiV_RVK9-225">
          <mxGeometry y="160" width="160" height="30" as="geometry" />
        </mxCell>
        <mxCell id="GXWJZuFiqb-djiV_RVK9-239" value="" style="shape=partialRectangle;connectable=0;fillColor=#647687;top=0;left=0;bottom=0;right=0;editable=1;overflow=hidden;strokeColor=#314354;fontColor=#ffffff;" vertex="1" parent="GXWJZuFiqb-djiV_RVK9-238">
          <mxGeometry width="30" height="30" as="geometry" />
        </mxCell>
        <mxCell id="GXWJZuFiqb-djiV_RVK9-240" value="City" style="shape=partialRectangle;connectable=0;fillColor=#647687;top=0;left=0;bottom=0;right=0;align=left;spacingLeft=6;overflow=hidden;strokeColor=#314354;fontColor=#ffffff;" vertex="1" parent="GXWJZuFiqb-djiV_RVK9-238">
          <mxGeometry x="30" width="130" height="30" as="geometry" />
        </mxCell>
        <mxCell id="GXWJZuFiqb-djiV_RVK9-241" value="" style="shape=partialRectangle;collapsible=0;dropTarget=0;pointerEvents=0;fillColor=#647687;top=0;left=0;bottom=0;right=0;points=[[0,0.5],[1,0.5]];portConstraint=eastwest;strokeColor=#314354;fontColor=#ffffff;" vertex="1" parent="GXWJZuFiqb-djiV_RVK9-225">
          <mxGeometry y="190" width="160" height="30" as="geometry" />
        </mxCell>
        <mxCell id="GXWJZuFiqb-djiV_RVK9-242" value="" style="shape=partialRectangle;connectable=0;fillColor=#647687;top=0;left=0;bottom=0;right=0;editable=1;overflow=hidden;strokeColor=#314354;fontColor=#ffffff;" vertex="1" parent="GXWJZuFiqb-djiV_RVK9-241">
          <mxGeometry width="30" height="30" as="geometry" />
        </mxCell>
        <mxCell id="GXWJZuFiqb-djiV_RVK9-243" value="Street" style="shape=partialRectangle;connectable=0;fillColor=#647687;top=0;left=0;bottom=0;right=0;align=left;spacingLeft=6;overflow=hidden;strokeColor=#314354;fontColor=#ffffff;" vertex="1" parent="GXWJZuFiqb-djiV_RVK9-241">
          <mxGeometry x="30" width="130" height="30" as="geometry" />
        </mxCell>
        <mxCell id="GXWJZuFiqb-djiV_RVK9-244" value="" style="shape=partialRectangle;collapsible=0;dropTarget=0;pointerEvents=0;fillColor=#647687;top=0;left=0;bottom=0;right=0;points=[[0,0.5],[1,0.5]];portConstraint=eastwest;strokeColor=#314354;fontColor=#ffffff;" vertex="1" parent="GXWJZuFiqb-djiV_RVK9-225">
          <mxGeometry y="220" width="160" height="30" as="geometry" />
        </mxCell>
        <mxCell id="GXWJZuFiqb-djiV_RVK9-245" value="" style="shape=partialRectangle;connectable=0;fillColor=#647687;top=0;left=0;bottom=0;right=0;editable=1;overflow=hidden;strokeColor=#314354;fontColor=#ffffff;" vertex="1" parent="GXWJZuFiqb-djiV_RVK9-244">
          <mxGeometry width="30" height="30" as="geometry" />
        </mxCell>
        <mxCell id="GXWJZuFiqb-djiV_RVK9-246" value="Actual_time" style="shape=partialRectangle;connectable=0;fillColor=#647687;top=0;left=0;bottom=0;right=0;align=left;spacingLeft=6;overflow=hidden;strokeColor=#314354;fontColor=#ffffff;" vertex="1" parent="GXWJZuFiqb-djiV_RVK9-244">
          <mxGeometry x="30" width="130" height="30" as="geometry" />
        </mxCell>
        <object label="User_account" id="GXWJZuFiqb-djiV_RVK9-247">
          <mxCell style="shape=table;startSize=30;container=1;collapsible=1;childLayout=tableLayout;fixedRows=1;rowLines=0;fontStyle=1;align=center;resizeLast=1;fillColor=#ffff88;strokeColor=#36393d;" vertex="1" parent="GXWJZuFiqb-djiV_RVK9-1">
            <mxGeometry x="540" y="1220" width="145" height="210" as="geometry" />
          </mxCell>
        </object>
        <mxCell id="GXWJZuFiqb-djiV_RVK9-248" value="" style="shape=partialRectangle;collapsible=0;dropTarget=0;pointerEvents=0;fillColor=#ffff88;top=0;left=0;bottom=1;right=0;points=[[0,0.5],[1,0.5]];portConstraint=eastwest;strokeColor=#36393d;" vertex="1" parent="GXWJZuFiqb-djiV_RVK9-247">
          <mxGeometry y="30" width="145" height="30" as="geometry" />
        </mxCell>
        <mxCell id="GXWJZuFiqb-djiV_RVK9-249" value="PK" style="shape=partialRectangle;connectable=0;fillColor=#ffff88;top=0;left=0;bottom=0;right=0;fontStyle=1;overflow=hidden;strokeColor=#36393d;" vertex="1" parent="GXWJZuFiqb-djiV_RVK9-248">
          <mxGeometry width="30" height="30" as="geometry" />
        </mxCell>
        <mxCell id="GXWJZuFiqb-djiV_RVK9-250" value="Account_id" style="shape=partialRectangle;connectable=0;fillColor=#ffff88;top=0;left=0;bottom=0;right=0;align=left;spacingLeft=6;fontStyle=5;overflow=hidden;strokeColor=#36393d;" vertex="1" parent="GXWJZuFiqb-djiV_RVK9-248">
          <mxGeometry x="30" width="115" height="30" as="geometry" />
        </mxCell>
        <mxCell id="GXWJZuFiqb-djiV_RVK9-251" value="" style="shape=partialRectangle;collapsible=0;dropTarget=0;pointerEvents=0;fillColor=#ffff88;top=0;left=0;bottom=0;right=0;points=[[0,0.5],[1,0.5]];portConstraint=eastwest;strokeColor=#36393d;" vertex="1" parent="GXWJZuFiqb-djiV_RVK9-247">
          <mxGeometry y="60" width="145" height="30" as="geometry" />
        </mxCell>
        <mxCell id="GXWJZuFiqb-djiV_RVK9-252" value="" style="shape=partialRectangle;connectable=0;fillColor=#ffff88;top=0;left=0;bottom=0;right=0;editable=1;overflow=hidden;strokeColor=#36393d;" vertex="1" parent="GXWJZuFiqb-djiV_RVK9-251">
          <mxGeometry width="30" height="30" as="geometry" />
        </mxCell>
        <mxCell id="GXWJZuFiqb-djiV_RVK9-253" value="user_id" style="shape=partialRectangle;connectable=0;fillColor=#ffff88;top=0;left=0;bottom=0;right=0;align=left;spacingLeft=6;overflow=hidden;strokeColor=#36393d;" vertex="1" parent="GXWJZuFiqb-djiV_RVK9-251">
          <mxGeometry x="30" width="115" height="30" as="geometry" />
        </mxCell>
        <mxCell id="GXWJZuFiqb-djiV_RVK9-254" value="" style="shape=partialRectangle;collapsible=0;dropTarget=0;pointerEvents=0;fillColor=#ffff88;top=0;left=0;bottom=0;right=0;points=[[0,0.5],[1,0.5]];portConstraint=eastwest;strokeColor=#36393d;" vertex="1" parent="GXWJZuFiqb-djiV_RVK9-247">
          <mxGeometry y="90" width="145" height="30" as="geometry" />
        </mxCell>
        <mxCell id="GXWJZuFiqb-djiV_RVK9-255" value="" style="shape=partialRectangle;connectable=0;fillColor=#ffff88;top=0;left=0;bottom=0;right=0;editable=1;overflow=hidden;strokeColor=#36393d;" vertex="1" parent="GXWJZuFiqb-djiV_RVK9-254">
          <mxGeometry width="30" height="30" as="geometry" />
        </mxCell>
        <mxCell id="GXWJZuFiqb-djiV_RVK9-256" value="Bank_name" style="shape=partialRectangle;connectable=0;fillColor=#ffff88;top=0;left=0;bottom=0;right=0;align=left;spacingLeft=6;overflow=hidden;strokeColor=#36393d;" vertex="1" parent="GXWJZuFiqb-djiV_RVK9-254">
          <mxGeometry x="30" width="115" height="30" as="geometry" />
        </mxCell>
        <mxCell id="GXWJZuFiqb-djiV_RVK9-257" value="" style="shape=partialRectangle;collapsible=0;dropTarget=0;pointerEvents=0;fillColor=#ffff88;top=0;left=0;bottom=0;right=0;points=[[0,0.5],[1,0.5]];portConstraint=eastwest;strokeColor=#36393d;" vertex="1" parent="GXWJZuFiqb-djiV_RVK9-247">
          <mxGeometry y="120" width="145" height="30" as="geometry" />
        </mxCell>
        <mxCell id="GXWJZuFiqb-djiV_RVK9-258" value="" style="shape=partialRectangle;connectable=0;fillColor=#ffff88;top=0;left=0;bottom=0;right=0;editable=1;overflow=hidden;strokeColor=#36393d;" vertex="1" parent="GXWJZuFiqb-djiV_RVK9-257">
          <mxGeometry width="30" height="30" as="geometry" />
        </mxCell>
        <mxCell id="GXWJZuFiqb-djiV_RVK9-259" value="Bank_no" style="shape=partialRectangle;connectable=0;fillColor=#ffff88;top=0;left=0;bottom=0;right=0;align=left;spacingLeft=6;overflow=hidden;strokeColor=#36393d;" vertex="1" parent="GXWJZuFiqb-djiV_RVK9-257">
          <mxGeometry x="30" width="115" height="30" as="geometry" />
        </mxCell>
        <mxCell id="GXWJZuFiqb-djiV_RVK9-260" value="" style="shape=partialRectangle;collapsible=0;dropTarget=0;pointerEvents=0;fillColor=#ffff88;top=0;left=0;bottom=0;right=0;points=[[0,0.5],[1,0.5]];portConstraint=eastwest;strokeColor=#36393d;" vertex="1" parent="GXWJZuFiqb-djiV_RVK9-247">
          <mxGeometry y="150" width="145" height="30" as="geometry" />
        </mxCell>
        <mxCell id="GXWJZuFiqb-djiV_RVK9-261" value="" style="shape=partialRectangle;connectable=0;fillColor=#ffff88;top=0;left=0;bottom=0;right=0;editable=1;overflow=hidden;strokeColor=#36393d;" vertex="1" parent="GXWJZuFiqb-djiV_RVK9-260">
          <mxGeometry width="30" height="30" as="geometry" />
        </mxCell>
        <mxCell id="GXWJZuFiqb-djiV_RVK9-262" value="Validate_time" style="shape=partialRectangle;connectable=0;fillColor=#ffff88;top=0;left=0;bottom=0;right=0;align=left;spacingLeft=6;overflow=hidden;strokeColor=#36393d;" vertex="1" parent="GXWJZuFiqb-djiV_RVK9-260">
          <mxGeometry x="30" width="115" height="30" as="geometry" />
        </mxCell>
        <mxCell id="GXWJZuFiqb-djiV_RVK9-263" value="" style="shape=partialRectangle;collapsible=0;dropTarget=0;pointerEvents=0;fillColor=#ffff88;top=0;left=0;bottom=0;right=0;points=[[0,0.5],[1,0.5]];portConstraint=eastwest;strokeColor=#36393d;" vertex="1" parent="GXWJZuFiqb-djiV_RVK9-247">
          <mxGeometry y="180" width="145" height="30" as="geometry" />
        </mxCell>
        <mxCell id="GXWJZuFiqb-djiV_RVK9-264" value="" style="shape=partialRectangle;connectable=0;fillColor=#ffff88;top=0;left=0;bottom=0;right=0;editable=1;overflow=hidden;strokeColor=#36393d;" vertex="1" parent="GXWJZuFiqb-djiV_RVK9-263">
          <mxGeometry width="30" height="30" as="geometry" />
        </mxCell>
        <mxCell id="GXWJZuFiqb-djiV_RVK9-265" value="Account_type" style="shape=partialRectangle;connectable=0;fillColor=#ffff88;top=0;left=0;bottom=0;right=0;align=left;spacingLeft=6;overflow=hidden;strokeColor=#36393d;" vertex="1" parent="GXWJZuFiqb-djiV_RVK9-263">
          <mxGeometry x="30" width="115" height="30" as="geometry" />
        </mxCell>
        <mxCell id="GXWJZuFiqb-djiV_RVK9-266" value="" style="verticalLabelPosition=bottom;verticalAlign=top;html=1;shape=mxgraph.basic.rect;fillColor2=none;strokeWidth=1;size=20;indent=5;fillColor=none;" vertex="1" parent="GXWJZuFiqb-djiV_RVK9-1">
          <mxGeometry x="20" y="184" width="390" height="386" as="geometry" />
        </mxCell>
        <mxCell id="GXWJZuFiqb-djiV_RVK9-267" value="Permission Service" style="text;html=1;strokeColor=#6D1F00;fillColor=#a0522d;align=center;verticalAlign=middle;whiteSpace=wrap;rounded=0;fontColor=#ffffff;" vertex="1" parent="GXWJZuFiqb-djiV_RVK9-1">
          <mxGeometry x="20" y="185" width="120" height="25" as="geometry" />
        </mxCell>
        <mxCell id="GXWJZuFiqb-djiV_RVK9-268" value="Passenger Service" style="text;html=1;strokeColor=#6D1F00;fillColor=#a0522d;align=center;verticalAlign=middle;whiteSpace=wrap;rounded=0;fontColor=#ffffff;" vertex="1" parent="GXWJZuFiqb-djiV_RVK9-1">
          <mxGeometry x="450" y="174" width="120" height="25" as="geometry" />
        </mxCell>
        <mxCell id="GXWJZuFiqb-djiV_RVK9-269" value="Driver Service" style="text;html=1;strokeColor=#6D1F00;fillColor=#a0522d;align=center;verticalAlign=middle;whiteSpace=wrap;rounded=0;fontColor=#ffffff;" vertex="1" parent="GXWJZuFiqb-djiV_RVK9-1">
          <mxGeometry x="650" y="174" width="120" height="25" as="geometry" />
        </mxCell>
        <mxCell id="GXWJZuFiqb-djiV_RVK9-270" value="" style="rounded=0;whiteSpace=wrap;html=1;fillColor=none;gradientColor=none;" vertex="1" parent="GXWJZuFiqb-djiV_RVK9-1">
          <mxGeometry x="450" y="410" width="530" height="360" as="geometry" />
        </mxCell>
        <mxCell id="GXWJZuFiqb-djiV_RVK9-271" value="Device Service" style="text;html=1;strokeColor=#6D1F00;fillColor=#a0522d;align=center;verticalAlign=middle;whiteSpace=wrap;rounded=0;fontColor=#ffffff;" vertex="1" parent="GXWJZuFiqb-djiV_RVK9-1">
          <mxGeometry x="450" y="410" width="120" height="25" as="geometry" />
        </mxCell>
        <mxCell id="GXWJZuFiqb-djiV_RVK9-272" value="Trip Service" style="text;html=1;strokeColor=#6D1F00;fillColor=#a0522d;align=center;verticalAlign=middle;whiteSpace=wrap;rounded=0;fontColor=#ffffff;" vertex="1" parent="GXWJZuFiqb-djiV_RVK9-1">
          <mxGeometry x="750" y="810" width="120" height="25" as="geometry" />
        </mxCell>
        <mxCell id="GXWJZuFiqb-djiV_RVK9-273" value="Finance Service" style="text;html=1;strokeColor=#6D1F00;fillColor=#a0522d;align=center;verticalAlign=middle;whiteSpace=wrap;rounded=0;fontColor=#ffffff;" vertex="1" parent="GXWJZuFiqb-djiV_RVK9-1">
          <mxGeometry x="278.5" y="870" width="120" height="25" as="geometry" />
        </mxCell>
        <mxCell id="GXWJZuFiqb-djiV_RVK9-274" value="Notification Service" style="text;html=1;strokeColor=#6D1F00;fillColor=#a0522d;align=center;verticalAlign=middle;whiteSpace=wrap;rounded=0;fontColor=#ffffff;" vertex="1" parent="GXWJZuFiqb-djiV_RVK9-1">
          <mxGeometry x="75" y="870" width="120" height="25" as="geometry" />
        </mxCell>
        <mxCell id="GXWJZuFiqb-djiV_RVK9-275" style="edgeStyle=orthogonalEdgeStyle;rounded=0;orthogonalLoop=1;jettySize=auto;html=1;exitX=0;exitY=0.5;exitDx=0;exitDy=0;entryX=1;entryY=0.75;entryDx=0;entryDy=0;" edge="1" parent="GXWJZuFiqb-djiV_RVK9-1" source="GXWJZuFiqb-djiV_RVK9-248" target="GXWJZuFiqb-djiV_RVK9-132">
          <mxGeometry relative="1" as="geometry" />
        </mxCell>
        <mxCell id="GXWJZuFiqb-djiV_RVK9-276" style="edgeStyle=orthogonalEdgeStyle;rounded=0;orthogonalLoop=1;jettySize=auto;html=1;exitX=0;exitY=0.5;exitDx=0;exitDy=0;entryX=1;entryY=0.25;entryDx=0;entryDy=0;" edge="1" parent="GXWJZuFiqb-djiV_RVK9-1" source="GXWJZuFiqb-djiV_RVK9-194" target="GXWJZuFiqb-djiV_RVK9-132">
          <mxGeometry relative="1" as="geometry" />
        </mxCell>
        <mxCell id="GXWJZuFiqb-djiV_RVK9-277" style="edgeStyle=orthogonalEdgeStyle;rounded=0;orthogonalLoop=1;jettySize=auto;html=1;exitX=0;exitY=0.5;exitDx=0;exitDy=0;" edge="1" parent="GXWJZuFiqb-djiV_RVK9-1" source="GXWJZuFiqb-djiV_RVK9-226">
          <mxGeometry relative="1" as="geometry">
            <mxPoint x="940" y="1010" as="targetPoint" />
          </mxGeometry>
        </mxCell>
      </root>
    </mxGraphModel>
  </diagram>
  <diagram id="UKHZ7zIA5uqn1gJdNjyk" name="System Context">
    <mxGraphModel dx="1186" dy="547" grid="1" gridSize="10" guides="1" tooltips="1" connect="1" arrows="1" fold="1" page="1" pageScale="1" pageWidth="850" pageHeight="1100" math="0" shadow="0">
      <root>
        <mxCell id="wiP6R654KTc_zJW-nA_D-0" />
        <mxCell id="wiP6R654KTc_zJW-nA_D-1" parent="wiP6R654KTc_zJW-nA_D-0" />
        <mxCell id="98ZZZm_6MhH1Hq_FR0KK-6" value="" style="edgeStyle=orthogonalEdgeStyle;rounded=0;orthogonalLoop=1;jettySize=auto;html=1;" edge="1" parent="wiP6R654KTc_zJW-nA_D-1" source="98ZZZm_6MhH1Hq_FR0KK-0" target="98ZZZm_6MhH1Hq_FR0KK-5">
          <mxGeometry relative="1" as="geometry" />
        </mxCell>
        <mxCell id="98ZZZm_6MhH1Hq_FR0KK-0" value="Admin" style="shape=umlActor;verticalLabelPosition=bottom;verticalAlign=top;html=1;outlineConnect=0;fillColor=#7EA6E0;direction=east;" vertex="1" parent="wiP6R654KTc_zJW-nA_D-1">
          <mxGeometry x="160" y="70" width="30" height="60" as="geometry" />
        </mxCell>
        <mxCell id="98ZZZm_6MhH1Hq_FR0KK-11" value="" style="edgeStyle=orthogonalEdgeStyle;rounded=0;orthogonalLoop=1;jettySize=auto;html=1;" edge="1" parent="wiP6R654KTc_zJW-nA_D-1" source="98ZZZm_6MhH1Hq_FR0KK-7" target="98ZZZm_6MhH1Hq_FR0KK-5">
          <mxGeometry relative="1" as="geometry">
            <Array as="points">
              <mxPoint x="248" y="240" />
              <mxPoint x="248" y="200" />
            </Array>
          </mxGeometry>
        </mxCell>
        <mxCell id="98ZZZm_6MhH1Hq_FR0KK-7" value="Passager" style="shape=umlActor;verticalLabelPosition=bottom;verticalAlign=top;html=1;outlineConnect=0;fillColor=#7EA6E0;direction=east;" vertex="1" parent="wiP6R654KTc_zJW-nA_D-1">
          <mxGeometry x="160" y="210" width="30" height="60" as="geometry" />
        </mxCell>
        <mxCell id="98ZZZm_6MhH1Hq_FR0KK-12" value="" style="edgeStyle=orthogonalEdgeStyle;rounded=0;orthogonalLoop=1;jettySize=auto;html=1;" edge="1" parent="wiP6R654KTc_zJW-nA_D-1" source="98ZZZm_6MhH1Hq_FR0KK-9" target="98ZZZm_6MhH1Hq_FR0KK-5">
          <mxGeometry relative="1" as="geometry">
            <Array as="points">
              <mxPoint x="340" y="340" />
            </Array>
          </mxGeometry>
        </mxCell>
        <mxCell id="98ZZZm_6MhH1Hq_FR0KK-9" value="Driver" style="shape=umlActor;verticalLabelPosition=bottom;verticalAlign=top;html=1;outlineConnect=0;fillColor=#7EA6E0;direction=east;" vertex="1" parent="wiP6R654KTc_zJW-nA_D-1">
          <mxGeometry x="200" y="310" width="30" height="60" as="geometry" />
        </mxCell>
        <mxCell id="98ZZZm_6MhH1Hq_FR0KK-19" value="&lt;div&gt;&lt;br&gt;&lt;/div&gt;&lt;div&gt;Map API&lt;/div&gt;" style="whiteSpace=wrap;html=1;verticalAlign=top;fillColor=#7EA6E0;" vertex="1" parent="wiP6R654KTc_zJW-nA_D-1">
          <mxGeometry x="410" y="340" width="120" height="60" as="geometry" />
        </mxCell>
        <mxCell id="Xv4aWMplW_IK9ZPZR4Wd-1" value="" style="edgeStyle=orthogonalEdgeStyle;rounded=0;orthogonalLoop=1;jettySize=auto;html=1;entryX=0;entryY=0.5;entryDx=0;entryDy=0;" edge="1" parent="wiP6R654KTc_zJW-nA_D-1" source="98ZZZm_6MhH1Hq_FR0KK-5" target="98ZZZm_6MhH1Hq_FR0KK-19">
          <mxGeometry relative="1" as="geometry">
            <mxPoint x="532.5" y="175" as="targetPoint" />
            <Array as="points">
              <mxPoint x="378" y="370" />
            </Array>
          </mxGeometry>
        </mxCell>
        <mxCell id="nXecvoGlkJ8tP4wGXlor-2" value="" style="edgeStyle=orthogonalEdgeStyle;rounded=0;orthogonalLoop=1;jettySize=auto;html=1;" edge="1" parent="wiP6R654KTc_zJW-nA_D-1" source="98ZZZm_6MhH1Hq_FR0KK-5" target="Xv4aWMplW_IK9ZPZR4Wd-2">
          <mxGeometry relative="1" as="geometry">
            <Array as="points">
              <mxPoint x="570" y="220" />
            </Array>
          </mxGeometry>
        </mxCell>
        <mxCell id="nXecvoGlkJ8tP4wGXlor-4" value="" style="edgeStyle=orthogonalEdgeStyle;rounded=0;orthogonalLoop=1;jettySize=auto;html=1;" edge="1" parent="wiP6R654KTc_zJW-nA_D-1" source="98ZZZm_6MhH1Hq_FR0KK-5" target="nXecvoGlkJ8tP4wGXlor-3">
          <mxGeometry relative="1" as="geometry">
            <Array as="points">
              <mxPoint x="530" y="180" />
              <mxPoint x="530" y="180" />
            </Array>
          </mxGeometry>
        </mxCell>
        <mxCell id="nXecvoGlkJ8tP4wGXlor-6" value="" style="edgeStyle=orthogonalEdgeStyle;rounded=0;orthogonalLoop=1;jettySize=auto;html=1;" edge="1" parent="wiP6R654KTc_zJW-nA_D-1" source="98ZZZm_6MhH1Hq_FR0KK-5">
          <mxGeometry relative="1" as="geometry">
            <mxPoint x="377.5" y="80" as="targetPoint" />
          </mxGeometry>
        </mxCell>
        <mxCell id="bfuvAioUCbpqh1Ox47_i-1" style="edgeStyle=orthogonalEdgeStyle;rounded=0;orthogonalLoop=1;jettySize=auto;html=1;exitX=1;exitY=0;exitDx=0;exitDy=0;entryX=0.408;entryY=1;entryDx=0;entryDy=0;entryPerimeter=0;" edge="1" parent="wiP6R654KTc_zJW-nA_D-1" source="98ZZZm_6MhH1Hq_FR0KK-5" target="bfuvAioUCbpqh1Ox47_i-0">
          <mxGeometry relative="1" as="geometry">
            <Array as="points">
              <mxPoint x="425" y="120" />
              <mxPoint x="539" y="120" />
            </Array>
          </mxGeometry>
        </mxCell>
        <mxCell id="98ZZZm_6MhH1Hq_FR0KK-5" value="&lt;div&gt;&lt;br&gt;&lt;/div&gt;&lt;div&gt;&lt;br&gt;&lt;/div&gt;&lt;div&gt;&lt;font style=&quot;font-size: 14px&quot;&gt;DD&lt;/font&gt;&lt;font size=&quot;3&quot;&gt; System&lt;/font&gt;&lt;/div&gt;" style="ellipse;whiteSpace=wrap;html=1;verticalAlign=top;fillColor=#FF6666;" vertex="1" parent="wiP6R654KTc_zJW-nA_D-1">
          <mxGeometry x="310" y="130" width="135" height="90" as="geometry" />
        </mxCell>
        <mxCell id="Xv4aWMplW_IK9ZPZR4Wd-2" value="&lt;div&gt;&lt;br&gt;&lt;/div&gt;&lt;div&gt;Enterprise &lt;br&gt;&lt;/div&gt;Data System" style="whiteSpace=wrap;html=1;verticalAlign=top;fillColor=#7EA6E0;" vertex="1" parent="wiP6R654KTc_zJW-nA_D-1">
          <mxGeometry x="530" y="270" width="120" height="60" as="geometry" />
        </mxCell>
        <mxCell id="nXecvoGlkJ8tP4wGXlor-3" value="&lt;div&gt;&lt;br&gt;&lt;/div&gt;&lt;div&gt;LDAP&lt;br&gt;&lt;/div&gt;" style="whiteSpace=wrap;html=1;verticalAlign=top;fillColor=#7EA6E0;" vertex="1" parent="wiP6R654KTc_zJW-nA_D-1">
          <mxGeometry x="530" y="145" width="120" height="60" as="geometry" />
        </mxCell>
        <mxCell id="nXecvoGlkJ8tP4wGXlor-7" value="&lt;div&gt;&lt;br&gt;&lt;/div&gt;&lt;div&gt;SMS API&lt;/div&gt;" style="whiteSpace=wrap;html=1;verticalAlign=top;fillColor=#7EA6E0;" vertex="1" parent="wiP6R654KTc_zJW-nA_D-1">
          <mxGeometry x="317.5" y="20" width="120" height="60" as="geometry" />
        </mxCell>
        <mxCell id="bfuvAioUCbpqh1Ox47_i-0" value="&lt;div&gt;&lt;br&gt;&lt;/div&gt;&lt;div&gt;微信小程序&lt;br&gt;&lt;/div&gt;" style="whiteSpace=wrap;html=1;verticalAlign=top;fillColor=#7EA6E0;" vertex="1" parent="wiP6R654KTc_zJW-nA_D-1">
          <mxGeometry x="490" y="30" width="120" height="60" as="geometry" />
        </mxCell>
      </root>
    </mxGraphModel>
  </diagram>
  <diagram id="FJujSrgsdXCBxjK5DOog" name="Component Model">
    <mxGraphModel dx="1186" dy="547" grid="1" gridSize="10" guides="1" tooltips="1" connect="1" arrows="1" fold="1" page="1" pageScale="1" pageWidth="850" pageHeight="1100" math="0" shadow="0">
      <root>
        <mxCell id="qnHVhaoIVWl-DkX3CZ01-0" />
        <mxCell id="qnHVhaoIVWl-DkX3CZ01-1" parent="qnHVhaoIVWl-DkX3CZ01-0" />
      </root>
    </mxGraphModel>
  </diagram>
  <diagram id="66CCR7iLF4wJh0NPp82-" name="Technology stack architecture">
    <mxGraphModel dx="1186" dy="547" grid="1" gridSize="10" guides="1" tooltips="1" connect="1" arrows="1" fold="1" page="1" pageScale="1" pageWidth="850" pageHeight="1100" math="0" shadow="0">
      <root>
        <mxCell id="Gv655J5DgJL4m2ql7Ajn-0" />
        <mxCell id="Gv655J5DgJL4m2ql7Ajn-1" parent="Gv655J5DgJL4m2ql7Ajn-0" />
        <mxCell id="bf3NnfWX4IKNm-F9bSnx-6" value="K8S" style="points=[[0,0],[0.25,0],[0.5,0],[0.75,0],[1,0],[1,0.25],[1,0.5],[1,0.75],[1,1],[0.75,1],[0.5,1],[0.25,1],[0,1],[0,0.75],[0,0.5],[0,0.25]];outlineConnect=0;gradientColor=none;html=1;whiteSpace=wrap;fontSize=12;fontStyle=0;shape=mxgraph.aws4.group;grIcon=mxgraph.aws4.group_aws_cloud;strokeColor=#232F3E;fillColor=none;verticalAlign=top;align=left;spacingLeft=30;fontColor=#232F3E;dashed=0;shadow=0;" vertex="1" parent="Gv655J5DgJL4m2ql7Ajn-1">
          <mxGeometry x="20" y="240" width="810" height="460" as="geometry" />
        </mxCell>
        <mxCell id="bf3NnfWX4IKNm-F9bSnx-4" value="" style="points=[[0,0],[0.25,0],[0.5,0],[0.75,0],[1,0],[1,0.25],[1,0.5],[1,0.75],[1,1],[0.75,1],[0.5,1],[0.25,1],[0,1],[0,0.75],[0,0.5],[0,0.25]];outlineConnect=0;gradientColor=none;html=1;whiteSpace=wrap;fontSize=12;fontStyle=0;shape=mxgraph.aws4.group;grIcon=mxgraph.aws4.group_on_premise;strokeColor=#5A6C86;fillColor=none;verticalAlign=top;align=left;spacingLeft=30;fontColor=#5A6C86;dashed=0;shadow=0;" vertex="1" parent="Gv655J5DgJL4m2ql7Ajn-1">
          <mxGeometry x="60" y="297.5" width="160" height="122.5" as="geometry" />
        </mxCell>
        <mxCell id="fguoz1uaRNuE5J5tbNKD-0" value="&lt;div&gt;Application users&lt;/div&gt;" style="points=[[0,0],[0.25,0],[0.5,0],[0.75,0],[1,0],[1,0.25],[1,0.5],[1,0.75],[1,1],[0.75,1],[0.5,1],[0.25,1],[0,1],[0,0.75],[0,0.5],[0,0.25]];outlineConnect=0;gradientColor=none;html=1;whiteSpace=wrap;fontSize=12;fontStyle=0;shape=mxgraph.aws4.group;grIcon=mxgraph.aws4.group_region;strokeColor=#147EBA;fillColor=none;verticalAlign=top;align=left;spacingLeft=30;fontColor=#147EBA;dashed=1;shadow=0;" vertex="1" parent="Gv655J5DgJL4m2ql7Ajn-1">
          <mxGeometry x="170" y="60" width="390" height="160" as="geometry" />
        </mxCell>
        <mxCell id="fguoz1uaRNuE5J5tbNKD-10" value="" style="edgeStyle=orthogonalEdgeStyle;rounded=0;orthogonalLoop=1;jettySize=auto;html=1;" edge="1" parent="Gv655J5DgJL4m2ql7Ajn-1" source="fguoz1uaRNuE5J5tbNKD-2" target="fguoz1uaRNuE5J5tbNKD-9">
          <mxGeometry relative="1" as="geometry">
            <Array as="points">
              <mxPoint x="245" y="200" />
              <mxPoint x="140" y="200" />
            </Array>
          </mxGeometry>
        </mxCell>
        <mxCell id="fguoz1uaRNuE5J5tbNKD-2" value="&lt;div&gt;&lt;br&gt;&lt;/div&gt;&lt;div&gt;Passnger&lt;br&gt;&lt;/div&gt;" style="shape=actor;whiteSpace=wrap;html=1;shadow=0;fillColor=#7EA6E0;" vertex="1" parent="Gv655J5DgJL4m2ql7Ajn-1">
          <mxGeometry x="220" y="100" width="50" height="70" as="geometry" />
        </mxCell>
        <mxCell id="bf3NnfWX4IKNm-F9bSnx-1" style="edgeStyle=orthogonalEdgeStyle;rounded=0;orthogonalLoop=1;jettySize=auto;html=1;exitX=0.5;exitY=1;exitDx=0;exitDy=0;entryX=1;entryY=0.5;entryDx=0;entryDy=0;" edge="1" parent="Gv655J5DgJL4m2ql7Ajn-1" source="fguoz1uaRNuE5J5tbNKD-4" target="fguoz1uaRNuE5J5tbNKD-9">
          <mxGeometry relative="1" as="geometry" />
        </mxCell>
        <mxCell id="fguoz1uaRNuE5J5tbNKD-4" value="&lt;div&gt;&lt;br&gt;&lt;/div&gt;&lt;div&gt;Driver&lt;/div&gt;" style="shape=actor;whiteSpace=wrap;html=1;shadow=0;fillColor=#7EA6E0;" vertex="1" parent="Gv655J5DgJL4m2ql7Ajn-1">
          <mxGeometry x="340" y="100" width="50" height="70" as="geometry" />
        </mxCell>
        <mxCell id="bf3NnfWX4IKNm-F9bSnx-3" value="" style="edgeStyle=orthogonalEdgeStyle;rounded=0;orthogonalLoop=1;jettySize=auto;html=1;" edge="1" parent="Gv655J5DgJL4m2ql7Ajn-1" source="fguoz1uaRNuE5J5tbNKD-6" target="bf3NnfWX4IKNm-F9bSnx-2">
          <mxGeometry relative="1" as="geometry" />
        </mxCell>
        <mxCell id="fguoz1uaRNuE5J5tbNKD-6" value="&lt;div&gt;&lt;br&gt;&lt;/div&gt;&lt;div&gt;&lt;br&gt;&lt;/div&gt;&lt;div&gt;Admin&lt;br&gt;&lt;/div&gt;" style="shape=actor;whiteSpace=wrap;html=1;shadow=0;fillColor=#7EA6E0;" vertex="1" parent="Gv655J5DgJL4m2ql7Ajn-1">
          <mxGeometry x="450" y="100" width="50" height="70" as="geometry" />
        </mxCell>
        <mxCell id="fguoz1uaRNuE5J5tbNKD-9" value="微信小程序UI" style="whiteSpace=wrap;html=1;shadow=0;fillColor=#7EA6E0;" vertex="1" parent="Gv655J5DgJL4m2ql7Ajn-1">
          <mxGeometry x="80" y="328.75" width="120" height="60" as="geometry" />
        </mxCell>
        <mxCell id="bf3NnfWX4IKNm-F9bSnx-2" value="Front End application" style="whiteSpace=wrap;html=1;shadow=0;fillColor=#7EA6E0;" vertex="1" parent="Gv655J5DgJL4m2ql7Ajn-1">
          <mxGeometry x="415" y="320" width="120" height="60" as="geometry" />
        </mxCell>
        <mxCell id="bf3NnfWX4IKNm-F9bSnx-5" value="Vue,js" style="points=[[0,0],[0.25,0],[0.5,0],[0.75,0],[1,0],[1,0.25],[1,0.5],[1,0.75],[1,1],[0.75,1],[0.5,1],[0.25,1],[0,1],[0,0.75],[0,0.5],[0,0.25]];outlineConnect=0;gradientColor=none;html=1;whiteSpace=wrap;fontSize=12;fontStyle=0;shape=mxgraph.aws4.group;grIcon=mxgraph.aws4.group_on_premise;strokeColor=#5A6C86;fillColor=none;verticalAlign=top;align=left;spacingLeft=30;fontColor=#5A6C86;dashed=0;shadow=0;" vertex="1" parent="Gv655J5DgJL4m2ql7Ajn-1">
          <mxGeometry x="390" y="288.75" width="160" height="122.5" as="geometry" />
        </mxCell>
        <mxCell id="U9y6JQhgUB3DvAykh_Eb-0" value="" style="shape=image;verticalLabelPosition=bottom;labelBackgroundColor=#ffffff;verticalAlign=top;aspect=fixed;imageAspect=0;image=data:image/png,iVBORw0KGgoAAAANSUhEUgAAAQ4AAADqCAYAAABTE6uFAAAAAXNSR0IArs4c6QAAAJBlWElmTU0AKgAAAAgABgEGAAMAAAABAAIAAAESAAMAAAABAAEAAAEaAAUAAAABAAAAVgEbAAUAAAABAAAAXgEoAAMAAAABAAIAAIdpAAQAAAABAAAAZgAAAAAAAACQAAAAAQAAAJAAAAABAAOgAQADAAAAAQABAACgAgAEAAAAAQAAAQ6gAwAEAAAAAQAAAOoAAAAA1a6ytQAAAAlwSFlzAAAWJQAAFiUBSVIk8AAAAm9pVFh0WE1MOmNvbS5hZG9iZS54bXAAAAAAADx4OnhtcG1ldGEgeG1sbnM6eD0iYWRvYmU6bnM6bWV0YS8iIHg6eG1wdGs9IlhNUCBDb3JlIDYuMC4wIj4KICAgPHJkZjpSREYgeG1sbnM6cmRmPSJodHRwOi8vd3d3LnczLm9yZy8xOTk5LzAyLzIyLXJkZi1zeW50YXgtbnMjIj4KICAgICAgPHJkZjpEZXNjcmlwdGlvbiByZGY6YWJvdXQ9IiIKICAgICAgICAgICAgeG1sbnM6dGlmZj0iaHR0cDovL25zLmFkb2JlLmNvbS90aWZmLzEuMC8iPgogICAgICAgICA8dGlmZjpSZXNvbHV0aW9uVW5pdD4yPC90aWZmOlJlc29sdXRpb25Vbml0PgogICAgICAgICA8dGlmZjpYUmVzb2x1dGlvbj4xNDQ8L3RpZmY6WFJlc29sdXRpb24+CiAgICAgICAgIDx0aWZmOllSZXNvbHV0aW9uPjE0NDwvdGlmZjpZUmVzb2x1dGlvbj4KICAgICAgICAgPHRpZmY6T3JpZW50YXRpb24+MTwvdGlmZjpPcmllbnRhdGlvbj4KICAgICAgICAgPHRpZmY6Q29tcHJlc3Npb24+MTwvdGlmZjpDb21wcmVzc2lvbj4KICAgICAgICAgPHRpZmY6UGhvdG9tZXRyaWNJbnRlcnByZXRhdGlvbj4yPC90aWZmOlBob3RvbWV0cmljSW50ZXJwcmV0YXRpb24+CiAgICAgIDwvcmRmOkRlc2NyaXB0aW9uPgogICA8L3JkZjpSREY+CjwveDp4bXBtZXRhPgpgtfwkAAAn2klEQVR4Ae19CZhVxZV/1X1rLwiyuSs4IqKEGBdAjEij8F4jGDcIoBJFIrijIgp044to8mX5jxON8+UvmUnGTDIaMpNJnBlAoLsBoxhFx0TUiaMiuBBUoJte3nKrak49pNO8Xt52731V51V9Yr9bt+rUOb9T99y6p6pOEWKSQcAgYBDIEwE6ae2qNZSSGkJonlUVLs45Pbj6vQFUEKEwl1lZo1X+V//wi5+MzVoQWYGx1y54TbTZX9JZLGFR2m/B8APEsrTug0fqIC3KxsZo/Wx/wEeWi2DwzyyePLKMzlcWJZXTjift//qh3vYwYZ8//u7bvrHt0Sf+SWd15MP7uMW3zedvt54twOprm4D1ymtOJMSiA4ne764jVOALB0kykVwmM60NU+vf4fHU3x1RAsGF7+QKQqt8WksiCCd8V8ePtBYiT+b57vYntDYaIC+t9hPfSRV5Sq5+cRZPfW9LpP59yakl/+enoToLhh6oElj96nmnaG/weZtdPf7WRf+MSje9CDNu4aI1oo2Fe7mtRzb0u6rrT9a+32WCLe1D/KjPY4fz04bjuch9bTzFr8Dk5kgLGPYR3ymVh2XV8y+4nvjHiWv1ZD4/rsVfktfo3gf9p1YRCv0OVYI+KBKpy1+c8GjHYbnShkNeNEbrfgsjY0SODhAKrH/lFSd8Ma46LLJ+f3mCkbFzb9qhH+e5czxu9k1v8oSdewUVS4JvrWLG8ehGG/AcxRumPfhsV8g7DYfMpEF6OoEpFlQJxAlNGKS9MkUzO3PCU7GhqHTzhTAXPr70eH6QjdJaNnhJhS4arLczvicFgD3wpQIjM28dYTgaLqn7gArxcmYh3a+D5w0kNHSEqNqJJDgMB3+983+0YzwHhhMb9r4p5dM5yf4V/MoAnUXokXch+NaNMx7YlXmz29PUnGKTMgtpfy0/Wa6G6TEOP3ROKT7gwmV3LNRZhEzeJzxw170kxftn5mt1Df2qcib0L827V0+YJ1r2R3rK72Y4ts+ItcPo/v9h+2Sxjg0Ta0ioJwy0yku+cfDHM2fOROF9k3Kk3mj+gVYK6IFZ31DoW/APVYJPFLCDj7w4668O0a7ydTMc8mZDtH4J5QKXozT9VjhJ+7eCsDnZPXToU12VqOvvXYMH/0owvT9R5NNVMQvBaDajE4HLItkUra/LyO687NFwyLvMotdQX6+3Owno9IOGLRI48yjtjQd7r23uuTffrPXwftLixQP4zvardOo/3XgFoxEY3R8mFZA9J/Dcg2/j8m7ydsnoVeLNkbpn4e32bpey+v8ERYdrjyXUr/fMkVxR6kuI13RWSPxA2w7NtxIRAgajInKM9i+ibv2I8Xcaax9c3y2/S0avhkOWEcR/KbX6LNKFlCY/mSChi4do7yjlf0kMv/COWy7SBPUj2By7aNFk+5MELHjQOMl+BNOvAv5iSvJ5DxDr4mwy9WkVmmqX7eSc/wc2R2ngvKOJdXQwGzZq34dBEzvAt6jNZM/c+VrFpkObHXq+r0OuNShIQucerQOrufMoHaKc/XZ9dMUn2Sr1aThkZXCQzIAPnmx09Lqf4CQcORaePL3lsj/tIOO/cfMtOoE/dt7Nt6c+61y5rBPrnbwKW5Bw9Fgikpo7djsl+uIHfDs2RldekZnd03VWwyErUUHrsX2y+E6sIP6R/XrCRJ886appJX8/U8S0GD7d0BgL01bxuO77UYJnHUV8x+Pa/Xro+ea9zqJkPhQ5GY6G2rqHYdpsT2Zlra9htBGuGUpESu+3ht0eJx/M/XC1Drp4c/Xuf2AdCR1Y7ZVHOcoITQIfmeaj1UwBYRblIxhtfDszv7frnAyHrMwFn28F/L3R0TJfxuuomAqfLLqnFjZv0nfvGa+yGF9dtXgSaeZzVeYxF94qao8jtALF+rtOca2gX3ojbujMyOFHzoZj87QH1/IU25QDTX2KgIsj8CVYDqH524NzRtpfa/65ysAndxz8meRT6wTsB+AzBdvScpZKrQVf5sZ8dJOz4ZBEGSU3+quwLa2FfSzXnpwPZkqWFS3stAvuvf0uFZkbv/j2paLZPkVF3vLhqfLak9DtfvVXw3L5pPXNfHCQZfMyHFsidbtZW/sj+TaiennfMQBeP70/w+AbldjvtuX8jeqlTtjO1pjui72s/kEi+wm2lDoY/1bDjLqP8pUrL8MhifOQeFh+E2FLlXMRjDrirHLcgoW/VEk34+bf/GsR59pPQVTOgf0oyJIMB1gh+n+nELHyNhxNNbE4RGr6mu5TaplgyXBv/uFVmdl6XctFYXvic1Rheqb4lY/vTVyte18JjKiGeC64HKJSJ7AeZdraaXcWNM2Vt+GQnRLOVXgWHETNqnRQp/iovArCDMq1EToncPSOm3fz+yqI8MG8DR9ovyQb+kNYhgPElgT5vCGyYl2hYhVkOODhEoKxM7R/yDJQkysCQxdC+De9F5QS/nli2PjY4mEZ4nl6ObHuzhFiXxIsscYJ+kFoIr41G3ILSYCyM0EzBff0wgwHtNh0WWwPzP3iCzM4FsIMVuntwxEQe8T+7wPvlfKR7Xij5X8kHzoneT5KENt+FFAIxNp48blIbG8xuinYcMhGYe5XHk+o+eR8Bnww1K+YDovCNO/0JMHphHtvvSZDOk8uL7jvjjkC2vekMbcaAf1XXA6fKJqv8ekBHhsCdU3oIT+vrKIMR7olQR7DtnvWd0Ilkf90T6k329aMWbLEU4/vpNit1fYbLUrN7BSiRz/sRUE3/QqfKJzQ7xWCR2adog1HY239PeDxOJBJWOtreNtUXg2f55q/beTaiapE+y+81EX8M/Eb3ddsSL1XpIMP6/2p1U3vXOzfHK1b0S2/gIyiDYdsk1JrLvUjm66CKGHpcPea9x37f9u+Nn7xomEF9I28q0xccvtw9m77pXlXVKkC6Dt4Dhxz4NP7SysTUvl8Uos59unqiOGAaZ21xGZvZTKr9TV0oNAlQwkN6N2B5NtfHGAveKGL+Kfxl3Qfbcj4oaFLMIYDZG81RGINTvUDRwyHZIYzNhnb7ln4ICQh2Hqvu6OU7Uked/5NCyc61Wl6ojN+wYJJ/C9JmLvUOMEnSmgy6FvzT9RMDciV3iHmuzgzv5hrxwxHenrWtp/G5igNjulPrEGan8dCBaEtqc3FdJRsdXkLadR9XY88GyU4Gna/YkrSIZq0f7l22vJPnRTLMcMhmWqI1M+B81jgPY0npcPETYMwcZoH/OEHbTJu/qJ6NzRz/o0Lv8Vbkm6Q9oym1G8FRMCX+kaVBEk1Ruqvc1omRw2HZI5TcS+281jktJz2byJw1dAW/lDtf8UcfaVe8JPYQN9BsVL30UZwzAA4jU3zkWWGdUg/h4IvkSu9M24Vfem44WiKrvw7OED4L0VzphIB+e07Cb59NX8b2a1x8tnPdzsa8Idt/PCfJF2tk9xqII/MQObbgHCfnzTWrnzMDd04bjgkkz5Or8G29V6GiwtdCsZD5wSjDquVXD7ukSVjnBBj/COLzyGtfLruow0ZsVye8ocpyecPzmP7ulsyuYLWxtq652HrvWNTP24JnxddGOwFvwTz+5onZqcIf2XfGifE4Nubn+HMdoJUSWkERiEMB5i0122KrtzqFrCuGA7JrAizb2Abdch4aVXXneKWLryjG2enT1h6x/3FNHjhfbd9S3Tw04qhoULd6uuH5RkHTwWu++ZBPncpi93Ud6ni7rpmOCDgz4ciYX+rOPbUqy1P8NJ+9yz4ylLvHIwVg27inbYHtF/sBbug6cBAMTAoWReCDy/7/dTYx24y55rhkEwPOpl92woH3eS/JLSr5g/TPuAPhPMLj1u0aEMhAI7/5qIm2H2rt2LB31N9I4LRY4YC5fM25ET+txnZjl+6ajjWnBVLknjC1RWLjiOSA0FqUeI/tTqHkmoXYbs7CtpXYn/ccbHakmXhDvxV/tPhFD+fq90/CxPu3LZbExPTz5075Dupuo7cIQcNRRdmsOLy46D3wWtL5wS7gMfOvmlXPiKcP/umj3Vfgg/hr2CxF+gPXaLNm6e75xDtCpfrhkM2JpgNYQZh3TOmBOtj02EGNQ/4w5tTJ13w7XvPyEU1kx65c7RoTun9xIG+wnLNBraD1OH5srk1Ihc9OlHGE8Mh97GAorbqPt+fCXjovKPhPBb9nWv29n1vzfzVTF+mfF2vJ8Vi/vZXW//UNU/H3/SoAAmefbSOrPfOMwx8IUzjpq0O70fpvUEPJ6IgMvrF4MzXf9K/C5rpfSwz4AWs+YpD0c7Ih78fsqCLaN1+xvd9dgtv11x9oCcZDhBezd3k0zuDpppq66d4KYMnI46/CiS+Ry2Pm/xr46788skQc8M8jc7nihz8/cSPz43FeoyXKMMB8p0drixddkWYXoj6T61CFw4w/TwJ/v1eRHYt29OnuDG6cgXsY/nMNWlKQVi+xS7TP7gxzP0T/0d7ftwThB0f8dUc7mudwLdRcRmMDjX3SWXqAJ6nT+VzlZnv9rWnhiMtjCA3YQszKE+BC8KxCs7vQXRb/UfS57vj149funhU19wJS+4czXd3zO6ap91vcMuHxg2CPQPed3c3sUo/R4Jf72YbvdH2HEkIbvw7brOXe2NIy3zZMS+GDXCax6kUlBO+t31TVx3YnyWahOYTYlTGj5UHK+Ga14MYMWxbY+2D67vqy6vfnhsOKViShqf7QvrPRhyhJHC4yUAwug+F+Z74ceNvu22WlG3swoVz+J4OeFVrnOT0q9QLMoeoFfKThBX+Wqk0UxLD8ULkvr0skVpdKqHdatd/Rj8EYQbhxbwv+YzEiDaLX+o+hS6D8/hHwipRZAnCAa6Wz1GpxCrp0sfJGx6BM2hxTY3xfUnS9tOdeq8qhSE9rHdoFy2pSq0NBwToqbpxGLEG6r2tpptxgDiijZG6kj67JRlxdALB+M3YpmetwSESgADHWie5oOig5kYDFCDPxZH6wJTk8yIE/WapZSqp4YAzLFcLwT8qNQiOtg/f1KFJQ8BxhcwT5yhI7hMTSUGCFw3W3ueUiRRMv77fFF3xk8x8r69LajiksLZgV2EL+CMP9Umv7fBam6a9TgQqYEWv1AOmJJ8TwVjacV1quUqO7NZo7A8MwpyVGghH24fBRuAMCEcH36ImlQAB6NUB6RBFNuhjCfYs7Pt6pQSIdmuy5IZDcmTb/rk+bAF/wGZUzj2pG+Amw30E0uEdkdls+XyEqH2D++jl1oIShuP56cv280TKlcOCcoPBnVI+cMxZ/ZGtV3EHKseoWkcHifyHLbF46v710dg+VeRSwnBIMAY129+DsT2ywSUEN/7GKSCWKupGzgfgXDUP8EaXqGgZvOtRlcRSxnCsmRVL+i1+kUrgOMIL+Dl8fwNhBtGZREfQcY4I4OsfgW+hVxogeC62n/ekUrsMlTEcEqANU1e+APrf71xvUoNS1RUnoPPwq4FsFy5CFqmEWBvYknweGqesfEE1uZQyHACOGHJUFTxluD5Z5IHGwQmw5QPZlm5lOrPcj3KRXDuDaxWy/HQ/9DyoN15VzXCQNRPu6QCz0YTNLxA8F8IMYlv6rIjlsAbBat0va75aNxNL8NfAf03yeci8pcK1sm67mnWrJGBhFUByigf+WZK0/ux9QgPK2WunRPScjhxlVM8fjs8oC9IBISh6jMjmOcg9NKhsDwaf4ncpsnMv5E7N9MKkHhRhsgpDQC60Q7cf5VC/X1UYIt7UUnbEIcWvWfvQJ+DvgGAKiBK8IVsee4dQv7I2WxuwZbDofnedhg9LSj5qjNSfqLIilO693PLNQxfwB/ZPhMCRp567S+Vu2gNvMN0QnjgY3WefBQGu4G0+rweJlcpS2nBsjqzYAAF/nlcKsWKZgQ4fGgfxSeE0MZMKR4DC9CuGOK+ZCMAK6i0NkfqGzHzVrpU2HBIswYNzsO2elaONystgzYGZni3seZDTrxI/wBFTOrT7NfR1HWRS3nA0Tbv/QwjN/xi2nab+06r0DzNYoh5uDQ2TwKnKTjgUhgrMBkDw4R80XbZ0T2EEvK2lx3hZEFqz4WEIwY3rFcMPpkjb6ve1j47uaZeFc2yqbz6V0Gq/p8160RicdqjH8whgKD/iSCsMjDFnZC61tME1p35m9Q8S/2hkC5dykrzwQsGzB8h4qIUTULCm7NeC0tkKstYrS3oYDmB/c23dv8DBup/3KomON+S3eg3Ck9Pd0gUMOJGGA9zbFKlLR5Z3Czqn6WpjOKTgglqTsC0Kk6tIw1FcS1Wc7qSH6YXhqE1sq27laWwW99ccllGXv1oZjqbIijfgFLj/1AXcXPkMjDRhBrNiBcP5wGn4ts0L2/7XTdOWv5lVfsUKaGU4JHYhyuehm54F103VDcMU6xpqsZPGB3DClNLTryG+QEeZtDMc6fBpSXuJjmD3xbN1lB/fRq2+BM7jnjUIwgH2wzeLwhPsrqaa2IE8oFCmqHaGQyK3aRt7FNtBTlKuqrknp/dSy98mfYEAfKKkcUEGCIUDyhujKx7XVSwtDQeJxWA+gn1VV9B75Rs6U2AU+DtwLVfpVdysNwCHwJmAB7Jp+LTczB6nc8AqPQ0HIN84deXv4c/urJ1PswIVl8FBQrAPwyQYfIWRzjgJ8kEDnCeks4617qGio3qMzuD3xLtIQpjBibC2A1ZIlnUC+UMSB3ThAIloF0z7fqu14Wi68m7pWFqHbR9LCA5L9g3BdVhyvkbQOiZEgl8ekG81tcunT/YT//XStFiL2oxm5w7FBFfNuofj4BhA9aTxvXHS9vNdEPMfhYqy98QuJWSAnmo4jwZbZC8QMQ77USq6iKrtT61HHIdRh3X+38G2otQ6ruKQY/CwkGX0NzgawgHCDlhMSfZPKugjWGRC8zqrWbtqJ4ROOgWLYqQcwuak9dF3YIMGCvuek2pESpCjFo/AONJ6F0Ybp+UEggaF0PRIQckCbCtK0/tYphyjQTdyjsWKKUPRRUeT4QAtIm50DqXSU0JjOJqi9Rt5wn6u9JA6yIFcx3DO0boEPyhecLmO5SsgL7IJJQgHuG5TdOXW4gFShwIawyEhtYXvOn8Vrm9jGbyo8ioIeI0siFG3RyAt5wno5JT90fL7rusmr+YZqAzH1mnLP7Vb49/RXCfd2PedVEl8yJyFmUL6wBnsOxFZOEAQ0m7reGjTpctxxZEBuVAZDtkZBx8cWY9tXYccbVTAwdVoF4XBYq8KeWA0wlEVnI8Sk/0SW0JnONbMmsUoZ1dhCzNIq30kAGHzMCbpx6FVPlSiyU2YlPLLdd6P0pdC0BkOKWxD7YO/EUx81Jfg2t0Dh2G4BmYcsL2VBYRPvFiGT9ROI30yLDj/oCHy4LN9FtL4JkrDIfUhiP+rMiwbqgSrbiqix6ESqaIW5EGzmuiQasAZSnw+NhGVojKEQWs4mmqX7YQwg+sy5NX+0j+qH+waxWEQpRz+kfjCATKb/cfGKbFd2ne2PgRAazikzImWfeh8HVKuytkQ8Ef3oT3wXykDFyFLad9aiM1EJlY3cVAbjhdnPdrBbfFAN6k1z7D6+2H3bFBrKXyw+xVjOEBw2chwgLDpEndCbTik6pr+wL4Pf5LY1Fh5/TB9fQPg06i89hRsKpGjwGTji/aP8AnWXSL0hkOGGWQ+/3iMazsCZ8EpcLp9sgC/ab6RzQ5RiLXB/OI82d+6P2b4cvAbDtDZlinLXiNC7MKmvnDkGEIr9HKU0kofkXxjS2AHd26ZsvJP2OTqTZ6yMBxS+AANn9kbCNrmQ8Cb0MTB+qwoleEA5ZoN4BtdCtmj0MnUh0BlYziei9zXBjj8G7ZPlsCYAcQ6Vo+Nfb7jwySA7ZBt+EShgjxdDg7RrnYE2dKbrqL1/HvyulVt8L5DtZuK70uS1n94n1CFA/7IIMzVNw3HeOhUKwTowbcYpefHpzO3bEYcnRJT+iC2FaUWBDYOKr6PJXgOjIyQBWCWK0RhBLuis2+V0Y+yG3FI3dasX/UezEYMx6RnkWCk9Yl3CYFgOMol8G30uwOi5gXQvadQhQPMp9+g02ROwlNxowznhinJ5dvhqTBboZrfEfhJ86XwZ1Qh/cAH/QemYOcVUhdDnbI0HHAK3GaWTOLauQgPaOBL/Yk8k1SlROF4B8mXcgatSJBYIvVvDZG6F4oko231sjQcUltM+BbKtwaqBMajYs5J6jykkp/ZCvHjkLJlv7G5b5FD5LQkU7aGY2t0xSc8aS/TUmt9MC1DDPoGqbGPRfKBMeQhi6eWyjCVfagB/S21xrXew00vafgOBwPifcsutiji4Cj98Xul3csCo43qW/4G3QHaVsBHNl2yvNyfG3wxR/N8HoXdzidjWxQmHaVB6VcoYQrC+bc0hGxAC4u94JCsi0sIqzJNI9Ns/rhunr6iEZwCuMIMAgyhyRBmsIQpfdJ8Cdt3pWlBIBxg3RZXaGtGtOwNh9QXI/QCGVwWVYLBdHg6RA6HTwZPE7SXbhfZYD599muAXOgplgo3huxpKQzpLZG63YTzfy+strq1AiOqPd89K3frBkZUqQtKgZwJxp9puKQO3ci0QDjK3sfRidvEbexqbCfey4jolV/3cDoURhuVcyAcILKIFLJfNEbq5nR2FvPDGI7DfSAGAViEze7F5ii1jg7ACWkVh8V09a9sR4Y1RJXAIcoZvx36hdcffUrDiOxLtHisa9atagEq6HY7HnzsHXf9HdCT+t05ongFqEehGXa/4jwJqwisjY8jAzxqsyi2U+CkiOnds269M4GunH7FlmQ/oMSajE0uJ+QxhiMDxYbpsRcEFzsysrW/DE+BMINhd9Qt6YYvxRcOEHxEf2yIrnhVe+W7IIA7PckFRr0kGeZ7z8U2PSsS/NARkrDF3dEE9MKXHEMkfUxJjjaaP9h9HiaZnJTFGI4e0Fw77fEEYexpbI5S/1lHEd8JzjpKfSdVEnm6HKokV4gy8ovtC59MoZLLQWGMc7QPMCHgTzssoHL2SeujPS9u8c8hzOBPIcygA0F1RArCAS44lVgD0O0ybm+srce3GMXBDmZGHH2AKYRYijHMYOj8gX1InfstSccaqMZO3Ny57rtkWt+WuLvvUuauMRx99IGm6Mofwaamt/soot8tWBQWuhCOVIDgwUUl8GkEJR2ghynBWp43GiMrn8QkkxuyGMORDVVq3eCrwPVWhUNmSPhy2MdSRApfcQJ87uD60vVVhCAUgbihCFjKpqoxHFlU3RhZ/pLdnvh1lmJ63YZBQmBkv4IffGkwAqdXu7ugrASI2h2JZ2C0sb0ETWvXpDEcuagsXHkLulEHyF05G/aV5PulAeXT9XLBTaMyUr8hwm7ViOWSsmoMRw7wN9Us+Yy3Je7LoahWRSwZ2i/Ps058x4aIrIctsXjirvXR2D5scrkljzEcOSLbPPSYH0LRfN/POVIvUTGQJq/gxrL8LA9323oHCxNB/vfeNad/S8Zw5KjD7ectTAnOJmBbFCZXSAbH5BZmMADl0O3jgcVelvBfAGe/4go8m2O/LrSYMRx5INc0LbaNCLEnjypaFA1dCmEG4fyTvpI8HyUsy+FLH22qXfYyPrHclcgYjjzx7ZcInp5nFfWLw5IOud+k1w8x+EQJRY9FF6BHKmZws32G+gpSj0NjOPLUye++dv9BCOnyuzyrKV88APtNaL+eg/DI/MBpMP2KLz2zZlasFZ9Y7ktkDEcBGE+MsiuhGq5vYhhVVMnp2czds3Cdzof7qBKlqcZtbC4qmTwUxhiOAsCO0RgHn9o92ByFtNpHfMOP3Nslr2U+piT1JgS/lUC4SExyeSlL3x4xLznRsK2adQ/thzXKqEJfyYFF6w8hzOAXqXrx6bAKG9dwA6TZ3xStd2an32GgyuyvGXEUoXDmI5Ox7Z6Vb5LgWHim4BMlOH4QOqOR1he1JhahdlMVEDCGo4husGXKytcEY38ogoSSVUMXDSHWsWHYRTtISf6KYQpiiGxriqx4oxgapq4xHEX3gXbGpmBbFEZsTqquBUepjesTReqp2rYvKVrphoAZcRTbB16aFmsRRPx/bI7SXtd0FAtYieofcoiKJ56dEWsvEQuomjXOUYfUCeexdACpsEPkDBmHEYCO3t4QNeEAnYLV+DgcQhI65q3YHKUOQVNyMlIvgli3lJwRRAyYEYeDyoRRhwwzONJBkoaUMwjsgNPYRjtDylCRCJgRh4P9QDB6nRXsedm2g80YUnkgYAVlBHZxbR5VTNEcEDCGIweQci3SdFndKzxh/yLX8qac+wjwpP2PjdGVr7vfUnm1YAyHw/pOVfvv8FcZH6nDsBZEzl8dJqLDvregyqZSnwgYw9EnPPnffP6iZftZW8c3869pajiNADvYcWPTlbEDTtM19IyPw5U+MKjlTz9Ft67DFaRcJAqLvSa+xJ9ysYWyJm1mVVxSf836h84lgr7iEnlDNisCgbMbow8Y30ZWnAorYAxHYbjlVKtm7UPvwjLnU3MqbAo5iAB9uzFaN8pBgoZUBgLGx5EBiJOXAatljJP0DK3cEGhJ2efmVtKUKhQBYzgKRS6Hes9FftAmqPgNuk1wOchekiLg14Alor/abvajuA6/+VRxHWJCYEVpHJqBg0lNchmBBKwQNXPhLoMsyZsRhwcgU0IfMLMs7gIt8YWAgIvdbcVQP4yAGXEcRsLlvzDq2AVNwDFoJrmEwAcw2hjmEm1DNgMBM+LIAMStSzgv7AorgCvor1tY5UvXCvhh5tuanm89U75wBIzhKBy7vGo2RFe8CvsmNudVyRTOCQFms0YTDjAnqBwrZAyHY1BmJ7T3IJ8q344mOYdAGs+gPdU5ioZSLggYw5ELSg6V2TErluSp1N+a6VmHAIXpVxjFfd8cGO0QnnmQMc7RPMByqmjNuofh2EFx5MlHThEvLzrN4BBFda6NLuozI46SaIrPtyCcnUmFI5B2NAsyv3AKpmYxCJgRRzHoFVEX9rHsgE+WM4sgUd5VKXm9MVJ/dnmDUDrpzYijRNgLi1/tCwdL1LrezUrcLJ9vlt5S6M29MRwl0l9TJPY2iyefKlHzWjcLuK3edOnyP2sthObMG8NRQgWKELvLLArLTwFy+jXM2ZL8apnSTiNgDIfTiOZBD6YRD5AkW5BHlbIvCou9rlsLp+eVPRAlBsAYjhIrYODBP/6MwAYtk3JAAGAa0vz60zmUNEVcRsAYDpcBzkZ+zaw1jNritGzlzH1CWIKcKvEyWJQeAfOqK70O0hzUrHvofULosPSF+V83BKCjvgtnvxoD2w2Z0mSYEUdpcO/WqviEj4LoVbzbDZMBCFAW4nvPMlCog4AxHIroounGWBwi0Txt9rFkKESGAyTiqbXTHk9k3DGXJUTAfKqUEPyemoaAP22QX9nTvTLNa4P9KNVlKruyYpsRh2qqoeJuavaxpLWS3s9DxZ2qqcjwAx+PBgT1EIBRx3vA1XD1OPOco3dhtGEcop7Dnr1BM+LIjpH3Jah/ZrkH/JHyW4Jd5T34psVcEDCGIxeUPC7TGFm2nSdT/+lxs0o1BwGPfrupNvZHpZgyzHQiYAxHJxRq/ai2+axy3cdCIaizCPHZamnEcNMVAWM4uqKh0O9n4TQylmSxspuehelXkWIrYR+PPMTKJEURMM5RRRVzmC1wlCbhd+DwdRn8jYNDtKIM5NRaRDPiUF19PutK6isPNUk5BSFXqq4Sw5+ZjtWiD8Co43VgdIwWzBbBJBiNl5ui9WOLIGGqeoRAebzKPALTrWZYilxjhXB/rfhAPr/NjEPUrU7kMF1jOBwG1A1yW2bUvwPnhzzpBm1VaLJ46vGN02Ny4ZtJGiBgDIcGSpIsxpsrF2MNbizlEmG2VBNVGDYBAWM4NOkGL866p8PuSFyvCbt5scniia+b6de8ICt5YWM4Sq6C3BmYFOW/hPnz9txraFGyrXEb/7UWnBomOxEwhqMTCvV/xGiMU8a+oj6nuXNIOfkyicVMAKPcIVOipFkApoQa8mMCpmffhhoj86ulYGlKdsBpbKMV5MywlAUBYziyAKTq7clrVzFBNfZRQZjExtp6c4Cuqh0sC1/mUyULQKreFlToG2ZQhgO0yD+riq3hKzsCZsSRHSNlS8AnywFgrr+yDPbCGHS6fRCxfFAvt022BgiYEYcGSuqNRUHEEt3CDB7ily7uTSaTrwcCZsShh5565XLyulVvwh6PUb0WUOwGfKX8qSFSj37fjWKwO86OGXE4Dqm3BC1f8GpfRcjbRgtszVcRJNT2XVNgdVNNIQSM4VBIGYWwsnHK/W+xeHJNIXW9rsM6kv+y6bLlf/a6XdOe8wgYw+E8pp5TFEF7vuphBuVRBy0ptsBzcEyDriBgDIcrsHpLFPZ5tPIkW0rlNKeCiVqU8BS7ZzuEQ1SQPcNSAQio2dMKEMRUIaRm/ap2CKGlYti9VggH2M/oCA8CZsSBR5eEMFGrWphBOf0qfLQWE8xGFhM6EF0fqFn30BugVpVOdn8dRhtnowO6zAUyIw5kHcBvhaaqsihM8mETy4w2kPUxKY4xHMiUumHq/R+LlCJhBm32w63RFZ8gg9iIYwwHzj4Q71+9uNS+Dtk+D7EHcCJspDIjDoR94MUJ93RQzkt6Pgm0P8OEA0TYub4QyUzH4tUtgd2zCRAv6LmIgiQg1kbY83ZNg54hYEYcnkHtfUNC+EsSJYxZdIT30poWvUTAGA4v0fa4rabaZTuhyVc9axbGr0KQl7dE6nZ71qZpqCQIGMNREti9a3Rwy0h5pCLzpEVB7EkvsfGetGUaKSkCxnCUFH73G18za5Y0Gv9ILXdVnaYv6JMxE7HcfaUq0IJxjiqgBC9YgH0s+2EfywAX29oPK0QHukjfkFYIAXdfQwoJWvasMHGXW1vvD9EVt5c9xmUEgBlxlJGyYdTxGow6nN83QskrcD7K+WUEZdmLakYc5dQFhLjBCgUclVjSYxaZ5yhRQ0x5BIzhUF5FzjHYGF35Ok+kfuocRZiuSdg/2TKl/i0naRpa6iNgDIf6OnKUwzDvf4uv0pngxjJI8qct9m2OMmiIaYGAMRxaqMk5JtdOuzPB2lILSbHeLQhTaMcTC3bMiiWd485Q0gWBYruPLnIaPjMQqFkLYQZpEWEGKWkFh6gJB5iBa7lcmhFHuWg6Q04h2ORCt96nt8xzMTmDpLksIwTMiKOMlJ0pKuye3Q5552TmZ70WdFtjbd0FWcuZAmgRMCMOtKrNLljK9l+a76IwK+AnImybcIDZ4UVdwhgO1OrtW7jnpy/bD+edPNF3qSPvspT9QwjQc+DIXHNVbggYw1FuGs+Qt3EbuxOiosO51Tkl0RSpuzunkqYQagSM4UCt3hyEk7tZGb8uh5IQbINcQ2jORiYnkqaQnggY56ieenOca3CUfgpEB/dB+FPY/Tq0j/vmVhkhYEYcZaTsvkQNEmuMPOO1pyTzA5SN7umeyStPBIzhKE+9d5N6PZx/wrl4udsNyBBCvPRcJLa3p3smrzwR6PkVU55YGKkBAVhRymBFadcXCoNPFL8BxyDQFYGuHaRrvvldrghY4keHP1lkOEAqxKPlCoWRu3cEzIijd2zK9g44SuVnyRD4twdGG8eVLRBG8F4RMCOOXqEp4xs+cbu/X4WcfjVb5su4GxjRDQJ5I1Cz7uHv5l3JVDAIGAQMAgYBg0BvCPwfjksoa9M1Dt8AAAAASUVORK5CYII=;" vertex="1" parent="Gv655J5DgJL4m2ql7Ajn-1">
          <mxGeometry x="502.4" y="288.75" width="47.6" height="41.25" as="geometry" />
        </mxCell>
      </root>
    </mxGraphModel>
  </diagram>
</mxfile>
